<svg xmlns="http://www.w3.org/2000/svg" xmlns:xlink="http://www.w3.org/1999/xlink" width="93" height="80"><defs><path id="a" d="M1633.5 6338.004c-15.357 0-28.711-8.782-35.35-21.61h-.688v5.55H1587l3.356-7.68-3.356-8.674h5.15v-5.547h.081v-.002l.003.002h1.503a40.66 40.66 0 01-.052-2.044c0-22.058 17.861-40.004 39.815-40.004 21.954 0 39.814 17.946 39.814 40.004 0 .686-.017 1.367-.05 2.044h1.424v.083l.08-.085v5.549H1680l-3.36 8.673 3.36 7.68h-10.462v-5.548h-.688c-6.639 12.827-19.993 21.609-35.35 21.609zm0-77.665c-20.668 0-37.483 16.894-37.483 37.66 0 .686.018 1.368.054 2.044h1.293a.293.293 0 01-.15-.242c-.01-.196-.018-.393-.024-.59a.293.293 0 01.282-.303c.163 0 .296.122.301.283.006.195.014.388.024.582a.294.294 0 01-.15.27h73.282a38.45 38.45 0 00.054-2.044c0-20.766-16.814-37.66-37.483-37.66zm0 75.321c14.024 0 26.273-7.778 32.7-19.265h-1.315l-.122.209a.291.291 0 01-.537-.21h-61.451a.293.293 0 01-.286.354.29.29 0 01-.25-.143l-.124-.21h-1.315c6.427 11.487 18.676 19.265 32.7 19.265zm-.563-1.165h-.005a36.14 36.14 0 01-.587-.013.293.293 0 01.017-.587c.193.006.386.011.58.014.16.003.289.136.286.298a.292.292 0 01-.291.288zm1.166 0a.292.292 0 01-.291-.288.292.292 0 01.286-.298c.193-.004.386-.009.578-.015h.01c.157 0 .286.125.291.284a.293.293 0 01-.282.302c-.195.007-.39.012-.586.015h-.006zm-2.914-.068h-.02a43.064 43.064 0 01-.586-.043.293.293 0 01.046-.585c.192.016.385.03.578.041a.293.293 0 01-.018.587zm4.662-.002a.293.293 0 01-.019-.587c.193-.012.385-.026.578-.042a.293.293 0 11.047.585c-.196.016-.391.03-.587.043h-.02zm-6.405-.152c-.011 0-.022 0-.033-.002a42.37 42.37 0 01-.584-.07.293.293 0 01.074-.582c.19.025.383.048.575.07a.293.293 0 01-.032.584zm8.148-.004a.293.293 0 01-.033-.585c.192-.022.384-.045.575-.07a.293.293 0 11.075.582 52.2 52.2 0 01-.617.073zm-9.882-.234a.284.284 0 01-.047-.003 34.978 34.978 0 01-.58-.1.293.293 0 01-.236-.34.29.29 0 01.338-.237c.19.035.38.067.57.097a.293.293 0 01-.045.583zm11.615-.006a.293.293 0 01-.046-.583c.19-.031.38-.064.57-.098a.293.293 0 11.103.577 41.23 41.23 0 01-.58.1.358.358 0 01-.047.004zm-13.336-.316a.266.266 0 01-.06-.007c-.192-.04-.384-.083-.575-.127a.293.293 0 01.13-.571c.188.043.377.084.566.125a.293.293 0 01-.06.58zm15.056-.009a.293.293 0 01-.06-.58 27.1 27.1 0 00.565-.126.293.293 0 01.13.572c-.19.044-.382.087-.573.128a.306.306 0 01-.062.006zm-16.758-.398a.302.302 0 01-.075-.01 26.26 26.26 0 01-.567-.155.293.293 0 01.157-.565c.186.053.372.104.559.153a.293.293 0 01-.074.577zm18.46-.01a.293.293 0 01-.074-.577c.186-.05.373-.1.558-.153a.293.293 0 01.159.564c-.19.054-.378.106-.568.157a.303.303 0 01-.075.01zm-20.141-.48a.286.286 0 01-.088-.013c-.188-.06-.375-.121-.562-.184a.294.294 0 01.186-.556c.183.062.367.122.552.18a.293.293 0 01-.088.574zm21.822-.011a.293.293 0 01-.089-.573c.184-.059.368-.12.55-.181a.293.293 0 01.186.557 45.71 45.71 0 01-.559.183.273.273 0 01-.088.014zm-23.483-.562a.286.286 0 01-.101-.018c-.185-.07-.369-.14-.552-.212a.294.294 0 01.212-.546c.18.07.361.14.543.207a.294.294 0 01-.102.57zm25.137-.011a.293.293 0 01-.102-.568l.54-.208a.29.29 0 01.379.166.294.294 0 01-.165.38c-.183.072-.366.142-.55.21a.288.288 0 01-.102.02zm-26.767-.644a.284.284 0 01-.114-.023 32.403 32.403 0 01-.541-.238.294.294 0 01-.147-.388.292.292 0 01.386-.147c.176.08.353.157.531.234a.294.294 0 01-.115.562zm28.388-.01a.294.294 0 01-.115-.563c.177-.076.353-.154.528-.232.148-.066.32 0 .386.147a.295.295 0 01-.147.388c-.178.08-.357.159-.537.237a.287.287 0 01-.115.023zm-29.983-.724a.29.29 0 01-.128-.03 37.098 37.098 0 01-.527-.263.294.294 0 01-.128-.395.29.29 0 01.392-.128c.172.088.345.174.519.26a.294.294 0 01-.128.556zm31.57-.006a.294.294 0 01-.128-.557c.172-.085.344-.171.516-.259a.292.292 0 01.392.129.294.294 0 01-.128.394c-.174.09-.349.176-.525.263a.29.29 0 01-.128.03zm-33.127-.804a.287.287 0 01-.14-.037 44.12 44.12 0 01-.514-.288.295.295 0 01-.11-.4.29.29 0 01.398-.11l.507.285a.294.294 0 01-.141.55zm34.676-.004a.29.29 0 01-.256-.152.295.295 0 01.115-.398c.169-.093.337-.187.504-.284a.292.292 0 01.398.11c.08.14.031.32-.109.4-.17.098-.34.194-.512.288a.292.292 0 01-.14.036zm1.51-.883a.292.292 0 01-.25-.14.295.295 0 01.097-.403c.164-.1.327-.204.49-.307a.291.291 0 01.402.09.294.294 0 01-.09.404c-.165.106-.33.21-.497.314a.292.292 0 01-.153.042zm-37.701 0a.288.288 0 01-.153-.043 36.233 36.233 0 01-.5-.314.294.294 0 01-.088-.405.29.29 0 01.402-.09c.163.105.327.208.492.31a.294.294 0 01-.153.542zm39.166-.955a.294.294 0 01-.165-.535c.16-.11.317-.22.475-.332a.29.29 0 01.407.07.294.294 0 01-.07.409c-.16.114-.32.225-.482.336a.284.284 0 01-.165.052zm-40.636-.003a.288.288 0 01-.165-.05 40.741 40.741 0 01-.483-.338.295.295 0 01-.07-.41.292.292 0 01.407-.07c.158.112.316.223.476.333a.294.294 0 01-.165.535zm42.055-1.023a.294.294 0 01-.176-.527c.154-.117.306-.235.458-.355a.292.292 0 01.41.051c.1.127.076.312-.05.411-.154.122-.31.242-.466.36a.29.29 0 01-.176.06zm-43.477-.006a.29.29 0 01-.176-.059l-.466-.36a.295.295 0 01-.05-.412.29.29 0 01.41-.051c.152.12.305.238.459.356a.294.294 0 01-.177.526zm44.845-1.088a.292.292 0 01-.224-.105.295.295 0 01.037-.414 26.4 26.4 0 00.44-.376.29.29 0 01.412.03.294.294 0 01-.03.414c-.148.129-.298.256-.448.383a.291.291 0 01-.187.068zm-46.215-.007a.292.292 0 01-.187-.068c-.15-.127-.3-.255-.448-.384a.294.294 0 01-.03-.413.29.29 0 01.411-.03c.146.126.293.252.441.376a.295.295 0 01-.187.519zm47.53-1.153a.295.295 0 01-.198-.509c.142-.131.283-.264.422-.397a.29.29 0 01.413.01.294.294 0 01-.01.414c-.142.137-.286.271-.43.405a.29.29 0 01-.198.077zm-48.845-.009a.29.29 0 01-.198-.077 34.723 34.723 0 01-.43-.405.294.294 0 01-.009-.414.29.29 0 01.412-.01c.14.133.28.266.422.397a.294.294 0 01-.197.51zm50.102-1.213a.29.29 0 01-.205-.085.295.295 0 01-.002-.415c.135-.138.27-.277.402-.417a.29.29 0 01.413-.01.294.294 0 01.01.415c-.136.142-.272.284-.41.424a.29.29 0 01-.208.088zm-51.36-.01a.29.29 0 01-.208-.087c-.137-.14-.274-.282-.409-.425a.295.295 0 01.01-.415.29.29 0 01.412.01 38 38 0 00.403.418.295.295 0 01-.003.415.29.29 0 01-.205.084zm52.559-1.273a.295.295 0 01-.217-.489c.128-.144.256-.29.382-.436a.292.292 0 01.411-.03.295.295 0 01.03.414 38.25 38.25 0 01-.389.443.29.29 0 01-.217.098zm-53.756-.01a.29.29 0 01-.217-.097c-.13-.147-.26-.295-.388-.444a.294.294 0 01.03-.413.291.291 0 01.41.03c.127.146.254.291.383.436a.294.294 0 01-.218.488zm54.89-1.33a.294.294 0 01-.226-.478c.122-.15.242-.302.361-.454.1-.127.283-.15.41-.05.127.1.149.284.05.411-.122.156-.244.31-.368.463a.29.29 0 01-.227.108zm-56.024-.008a.292.292 0 01-.226-.108 33.75 33.75 0 01-.367-.462.294.294 0 01.05-.412.29.29 0 01.41.05c.118.152.239.304.36.454a.294.294 0 01-.227.478zm57.094-1.385a.292.292 0 01-.235-.467c.115-.156.227-.314.34-.472a.29.29 0 01.406-.07.294.294 0 01.07.409c-.114.162-.23.321-.345.48a.291.291 0 01-.236.12zm-58.161-.007a.29.29 0 01-.236-.119c-.116-.159-.23-.318-.343-.479a.295.295 0 01.07-.409.291.291 0 01.406.07c.111.158.224.315.338.471a.294.294 0 01-.235.466zm59.163-1.437a.294.294 0 01-.243-.455c.107-.163.212-.325.316-.489a.29.29 0 01.403-.09.294.294 0 01.089.406 42.07 42.07 0 01-.321.496.29.29 0 01-.244.132zm-60.162-.004a.292.292 0 01-.244-.131 38.904 38.904 0 01-.32-.495.294.294 0 01.089-.405.29.29 0 01.403.09c.104.163.209.325.315.486a.294.294 0 01-.243.455zm66.079-18.194h-.014a.292.292 0 01-.278-.306c.01-.194.017-.388.023-.582a.303.303 0 01.3-.284.293.293 0 01.283.302 40.42 40.42 0 01-.023.59.292.292 0 01-.291.28zm-72.035-1.735c-.16 0-.292-.117-.292-.279v-.033c0-.184.002-.37.005-.558a.3.3 0 01.296-.288c.161.002.29.135.287.298-.003.183-.004.368-.004.552 0 .162-.13.308-.292.308zm72.076-.024a.293.293 0 01-.292-.293c0-.194-.002-.388-.005-.582a.293.293 0 01.287-.298h.005c.159 0 .289.128.292.289.003.196.004.393.004.59 0 .163-.13.294-.291.294zm-72.035-1.72h-.014a.293.293 0 01-.278-.307c.01-.198.02-.394.033-.59a.292.292 0 01.582.037c-.012.193-.023.386-.032.58a.293.293 0 01-.29.28zm71.992-.038a.293.293 0 01-.291-.28 36.86 36.86 0 00-.033-.58.293.293 0 01.273-.312c.158-.012.3.112.31.274.012.196.023.393.033.59a.293.293 0 01-.278.307h-.014zm-71.868-1.717a.293.293 0 01-.29-.321c.018-.197.038-.392.06-.588a.295.295 0 01.323-.259c.16.018.275.164.257.325-.021.192-.041.385-.06.578a.292.292 0 01-.29.265zm71.742-.038a.292.292 0 01-.29-.265 38.281 38.281 0 00-.06-.579.293.293 0 01.257-.324.29.29 0 01.323.259c.021.195.042.39.06.587a.293.293 0 01-.261.32l-.029.002zm-71.533-1.708a.293.293 0 01-.29-.335c.029-.196.059-.39.09-.585a.29.29 0 01.334-.242c.16.025.267.175.242.335-.03.191-.06.383-.088.575a.292.292 0 01-.288.252zm71.323-.038a.292.292 0 01-.289-.251 42.547 42.547 0 00-.088-.575.292.292 0 01.576-.094c.031.194.061.389.09.584a.293.293 0 01-.29.336zm-71.03-1.696a.293.293 0 01-.287-.35c.038-.194.077-.386.117-.58a.294.294 0 01.346-.226.294.294 0 01.225.348c-.04.19-.078.38-.115.57a.292.292 0 01-.286.238zm70.735-.038a.293.293 0 01-.286-.237c-.038-.19-.076-.38-.116-.57a.293.293 0 01.225-.348.29.29 0 01.346.226c.04.193.08.385.117.58a.293.293 0 01-.286.35zm-70.359-1.68a.293.293 0 01-.283-.364c.047-.191.095-.382.145-.573a.29.29 0 01.357-.208.293.293 0 01.207.358c-.049.187-.096.375-.143.564a.293.293 0 01-.283.223zm69.98-.038a.293.293 0 01-.283-.222 37.218 37.218 0 00-.143-.564.294.294 0 01.207-.359.293.293 0 01.357.209c.05.19.099.381.146.573a.293.293 0 01-.284.363zm-69.52-1.66a.294.294 0 01-.28-.378c.057-.189.115-.378.175-.567a.29.29 0 01.366-.19.294.294 0 01.19.368 33.55 33.55 0 00-.171.558.292.292 0 01-.28.21zm69.059-.037a.292.292 0 01-.28-.209 32.936 32.936 0 00-.17-.555.292.292 0 11.556-.178c.059.188.117.376.174.565a.294.294 0 01-.28.377zm-68.515-1.641a.294.294 0 01-.275-.39c.066-.188.133-.374.201-.56a.291.291 0 01.376-.172.294.294 0 01.171.378c-.067.181-.133.365-.198.548a.293.293 0 01-.275.196zm67.97-.03a.292.292 0 01-.274-.196c-.065-.183-.13-.365-.198-.547a.292.292 0 11.547-.205c.068.185.135.37.2.556a.294.294 0 01-.274.392zm-67.345-1.619a.292.292 0 01-.27-.404c.075-.184.151-.366.229-.547a.292.292 0 11.536.23c-.076.18-.151.359-.225.539a.292.292 0 01-.27.182zm66.721-.025a.291.291 0 01-.27-.182 36.608 36.608 0 00-.223-.534.294.294 0 01.153-.385.291.291 0 01.383.154c.077.18.153.36.227.543a.294.294 0 01-.27.404zm-66.016-1.59a.294.294 0 01-.264-.418c.083-.179.168-.357.254-.535a.29.29 0 01.39-.134.294.294 0 01.134.392c-.085.174-.168.35-.25.525a.292.292 0 01-.264.17zm65.315-.015a.291.291 0 01-.264-.17 41.08 41.08 0 00-.25-.523.291.291 0 11.525-.257c.086.177.17.354.253.532a.293.293 0 01-.264.418zm-64.533-1.563a.294.294 0 01-.258-.43c.092-.175.185-.349.28-.522a.291.291 0 11.511.283 34.6 34.6 0 00-.275.513.292.292 0 01-.258.156zm63.754-.007a.292.292 0 01-.258-.157 37.73 37.73 0 00-.274-.51.294.294 0 01.115-.399.291.291 0 01.396.116c.095.172.187.345.28.519a.294.294 0 01-.259.43zm-62.897-1.53a.294.294 0 01-.25-.443c.1-.17.201-.34.304-.507a.29.29 0 01.402-.096c.137.085.18.266.095.403-.101.166-.201.332-.3.5a.291.291 0 01-.25.143zm62.043-.002a.291.291 0 01-.251-.143 33.469 33.469 0 00-.298-.497.294.294 0 01.095-.404.291.291 0 01.402.097c.102.167.203.335.303.505a.294.294 0 01-.25.442zm-.927-1.488a.29.29 0 01-.244-.131 40.424 40.424 0 00-.322-.482.294.294 0 01.076-.408.29.29 0 01.406.077c.11.162.219.325.327.49a.295.295 0 01-.243.454zm-60.186-.003a.294.294 0 01-.243-.455c.109-.165.218-.328.329-.491a.29.29 0 01.406-.077.294.294 0 01.076.408c-.11.16-.217.321-.324.483a.29.29 0 01-.244.132zm59.187-1.438a.29.29 0 01-.235-.12 34.133 34.133 0 00-.346-.466.294.294 0 01.057-.411.29.29 0 01.408.056c.119.157.236.315.352.474a.294.294 0 01-.236.467zm-58.186-.007a.294.294 0 01-.235-.467c.116-.159.234-.317.352-.474a.29.29 0 01.409-.057.294.294 0 01.056.41c-.116.156-.232.311-.346.468a.291.291 0 01-.236.12zm57.12-1.386a.29.29 0 01-.228-.108c-.121-.15-.244-.3-.367-.45a.294.294 0 01.036-.412.291.291 0 01.411.036c.126.151.25.303.374.457a.294.294 0 01-.227.477zm-56.05-.008a.295.295 0 01-.226-.478c.123-.154.247-.306.374-.457a.29.29 0 01.41-.036c.124.104.14.289.037.413-.124.149-.247.298-.368.45a.292.292 0 01-.227.108zm54.916-1.33a.29.29 0 01-.218-.099 35.987 35.987 0 00-.389-.43.294.294 0 01.017-.415.29.29 0 01.412.017c.133.145.265.29.395.438a.294.294 0 01-.217.488zm-53.782-.01a.294.294 0 01-.217-.489c.13-.147.263-.293.396-.438a.291.291 0 01.412-.017c.118.11.126.296.016.415-.13.142-.26.286-.389.43a.29.29 0 01-.218.099zm52.586-1.274a.289.289 0 01-.208-.087 42.096 42.096 0 00-.41-.412.294.294 0 01-.003-.414.29.29 0 01.413-.003c.14.137.278.277.416.417a.294.294 0 01-.208.5zm-51.388-.01a.294.294 0 01-.208-.498c.138-.14.276-.28.416-.419a.291.291 0 01.413.004.295.295 0 01-.004.415c-.138.136-.274.273-.41.411a.29.29 0 01-.207.087zm50.13-1.214a.288.288 0 01-.197-.077 41.43 41.43 0 00-.429-.392.294.294 0 01-.023-.414.29.29 0 01.412-.023c.146.131.291.264.435.397a.295.295 0 01-.197.51zm-48.873-.009a.295.295 0 01-.198-.509c.144-.133.29-.265.436-.397a.29.29 0 01.412.024.294.294 0 01-.024.414l-.428.39a.29.29 0 01-.198.078zm47.559-1.153a.29.29 0 01-.187-.068 34.268 34.268 0 00-.447-.37.295.295 0 01-.043-.413.291.291 0 01.41-.043c.152.124.304.25.454.376a.294.294 0 01-.187.518zm-46.245-.007a.295.295 0 01-.187-.519c.15-.126.301-.25.454-.375a.29.29 0 01.41.044.294.294 0 01-.043.412c-.15.122-.299.245-.447.37a.29.29 0 01-.187.068zm44.875-1.09a.289.289 0 01-.175-.059 35.885 35.885 0 00-.465-.348.295.295 0 01-.063-.41.29.29 0 01.408-.064c.158.117.315.235.472.354a.294.294 0 01-.177.527zm-43.507-.005a.295.295 0 01-.176-.528c.155-.118.312-.236.47-.352a.291.291 0 01.408.063.295.295 0 01-.063.41c-.155.114-.31.23-.463.347a.29.29 0 01-.176.06zm42.086-1.024a.293.293 0 01-.165-.051c-.159-.11-.32-.218-.48-.325a.294.294 0 01-.083-.406.29.29 0 01.404-.083c.164.108.327.218.49.33a.294.294 0 01-.166.535zm-40.668-.003a.294.294 0 01-.165-.535c.162-.111.324-.221.487-.33a.29.29 0 01.405.083.294.294 0 01-.083.407c-.16.107-.32.214-.48.324a.288.288 0 01-.164.05zm39.199-.956a.289.289 0 01-.153-.044 31.15 31.15 0 00-.496-.301.294.294 0 01-.102-.402.29.29 0 01.4-.102 26 26 0 01.504.306.294.294 0 01-.153.543zm-37.733 0a.294.294 0 01-.153-.543c.166-.103.333-.205.502-.305a.291.291 0 01.4.102c.082.14.036.32-.103.402-.165.099-.33.199-.494.3a.29.29 0 01-.152.044zm1.509-.884a.294.294 0 01-.141-.55c.17-.094.343-.188.516-.28a.29.29 0 01.394.122.294.294 0 01-.121.396c-.17.091-.34.182-.508.276a.289.289 0 01-.14.036zm34.709-.002a.293.293 0 01-.14-.037 42.59 42.59 0 00-.51-.277.294.294 0 01-.122-.397.291.291 0 01.394-.122c.174.093.347.187.52.282a.295.295 0 01-.142.55zm-33.16-.806a.294.294 0 01-.128-.557c.175-.086.351-.17.528-.255a.294.294 0 01.248.531 62.77 62.77 0 00-.52.25.285.285 0 01-.128.03zm31.603-.007a.291.291 0 01-.127-.03 35.864 35.864 0 00-.524-.251.294.294 0 01.248-.531c.178.084.355.169.532.256a.294.294 0 01-.129.556zm-30.017-.725a.294.294 0 01-.115-.563c.179-.077.359-.153.54-.228a.294.294 0 01.221.543c-.178.074-.355.149-.531.225a.286.286 0 01-.115.023zm28.423-.009a.285.285 0 01-.115-.024 37.836 37.836 0 00-.535-.225.294.294 0 01-.16-.383.291.291 0 01.38-.16c.183.075.364.151.545.23a.294.294 0 01-.115.562zm-26.802-.645a.294.294 0 01-.102-.568c.184-.069.368-.136.553-.202a.293.293 0 01.195.553c-.182.065-.363.131-.544.199a.288.288 0 01-.102.018zm25.173-.01a.298.298 0 01-.102-.019 33.436 33.436 0 00-.546-.199.294.294 0 01.195-.553c.185.066.37.133.554.203a.293.293 0 01-.101.568zm-23.519-.564a.293.293 0 01-.088-.572c.187-.06.374-.119.562-.175a.294.294 0 01.168.562c-.185.055-.37.112-.553.171a.287.287 0 01-.089.014zm21.859-.011a.287.287 0 01-.089-.014 31.566 31.566 0 00-.553-.171.294.294 0 01-.196-.366.29.29 0 01.364-.196c.188.057.375.115.562.174a.294.294 0 01-.088.573zm-20.179-.481a.293.293 0 01-.075-.577c.19-.05.38-.1.57-.147a.293.293 0 01.14.569 39.04 39.04 0 00-.56.145.283.283 0 01-.075.01zm18.498-.01a.302.302 0 01-.074-.01l-.561-.144a.293.293 0 01.14-.569c.19.047.38.096.57.147a.293.293 0 01-.075.576zm-16.796-.4a.294.294 0 01-.06-.58l.575-.119a.294.294 0 01.113.576c-.19.037-.378.076-.567.117a.304.304 0 01-.061.006zm15.094-.008a.297.297 0 01-.06-.006c-.19-.04-.379-.08-.568-.116a.293.293 0 01.112-.576c.192.038.384.077.576.118a.293.293 0 01-.06.58zm-13.374-.317a.293.293 0 01-.047-.582c.193-.032.387-.062.581-.091a.294.294 0 01.085.58c-.191.029-.382.058-.572.09a.287.287 0 01-.047.003zm11.654-.006a.353.353 0 01-.047-.003c-.19-.032-.38-.061-.572-.09a.293.293 0 01-.247-.331.29.29 0 01.331-.248c.194.028.388.058.581.09a.293.293 0 01-.046.582zm-9.92-.234a.293.293 0 01-.033-.585c.194-.022.389-.043.584-.062a.293.293 0 11.057.583c-.192.02-.384.04-.576.062l-.033.002zm8.186-.004a35.244 35.244 0 01.032-.585.293.293 0 01-.032.585zm-6.444-.152a.293.293 0 01-.29-.275.293.293 0 01.271-.312c.196-.012.391-.023.588-.033a.292.292 0 01.305.279.293.293 0 01-.277.307c-.193.01-.386.02-.578.033h-.02zm4.701-.003h-.019a41.987 41.987 0 00-.577-.033.292.292 0 01-.278-.307.295.295 0 01.305-.279c.196.01.392.02.587.033a.293.293 0 11-.018.586zm-2.952-.07a.293.293 0 01-.292-.288.293.293 0 01.287-.298c.196-.003.392-.005.588-.005.006.005.012 0 .018 0 .202-.013.405.001.607.005a.292.292 0 11-.005.586h-.005c-.198-.003-.403.003-.595-.005-.202.009-.4.002-.598.006h-.005zm20.91 31.417c.01.38-.144.748-.423 1.005a1.477 1.477 0 01-1.062.392 1.683 1.683 0 01-.867-.23 1.641 1.641 0 01-.578-.528l.578-.52c.035.054.074.105.118.151.197.217.476.34.769.337a.683.683 0 00.488-.166.564.564 0 00.179-.455c0-.224-.142-.378-.422-.46-.557-.17-.866-.266-.898-.29a1.55 1.55 0 01-.558-.432 1.26 1.26 0 01-.193-.738 1.24 1.24 0 01.413-.952 1.4 1.4 0 01.985-.378c.279-.003.554.066.8.198.21.1.39.251.526.441l-.509.538a1.591 1.591 0 00-.24-.204.96.96 0 00-.56-.212.707.707 0 00-.422.116.49.49 0 00-.196.418.43.43 0 00.19.395c.224.111.463.188.708.23.322.065.618.224.85.458.227.236.345.558.323.886zm-3.739 1.342l-.82.122v-3.035a.874.874 0 00-.182-.61.728.728 0 00-.546-.191.721.721 0 00-.653.363 1.02 1.02 0 00-.153.52v2.825l-.817.154v-3.04a.927.927 0 00-.18-.613.608.608 0 00-.488-.21h-.077a.649.649 0 00-.624.37c-.106.22-.157.462-.148.705v2.634l-.849.154v-4.449l.766-.133v.58c.07-.115.153-.22.248-.316.203-.204.479-.317.765-.314.492-.073.967.212 1.136.683a1.334 1.334 0 011.207-.703c.43-.033.847.148 1.118.485.216.347.318.753.289 1.161zm-6.097-4.478l-.387.903a1.058 1.058 0 00-.154 0 .97.97 0 00-.493.108.996.996 0 00-.445.49 1.986 1.986 0 00-.214.91v2.072l-.82.134v-4.44l.76-.14v.924c.095-.16.199-.32.288-.485a1.22 1.22 0 01.488-.354c.177-.056.36-.088.546-.096.143-.021.287-.03.43-.026zm-3.695 4.478l-.82.116v-4.417l.82-.128zm.165-5.488l-.549.705-.526-.705.555-.7zm-1.84.464h-2.29v1.595h1.779v.815h-1.78v2.614l-.892.133v-5.979h3.007zm-5.04 2.88a1.54 1.54 0 00-.446-1.126 1.378 1.378 0 00-1.02-.465 1.322 1.322 0 00-1.033.442 1.512 1.512 0 00-.376 1.025c-.015.408.122.808.384 1.12.245.287.604.448.98.439a1.5 1.5 0 001.037-.406c.3-.256.473-.632.47-1.028zm.721 2.144l-.77.122v-.758l-.165.192c-.146.136-.31.252-.489.342a1.94 1.94 0 01-.837.186 2 2 0 01-1.528-.677 2.293 2.293 0 01-.621-1.608c-.012-.61.208-1.2.615-1.652a1.95 1.95 0 011.51-.689c.307-.006.61.052.893.172.17.079.325.19.456.325.044.058.087.122.13.177v-1.984l.818-.122zm-5.756-2.187a1.5 1.5 0 00-.422-1.083 1.366 1.366 0 00-1.043-.444 1.29 1.29 0 00-.996.459 1.516 1.516 0 00-.41 1.048c-.006.393.143.774.415 1.057.266.29.642.452 1.034.444.379.003.74-.157.994-.438.278-.275.431-.652.425-1.043zm.837 0a2.28 2.28 0 01-.658 1.635 2.219 2.219 0 01-3.21 0 2.235 2.235 0 01-.67-1.643 2.37 2.37 0 01.642-1.653c.395-.453.968-.71 1.568-.7a2.223 2.223 0 011.675.674c.436.445.67 1.05.65 1.673zm-6.152 0a1.512 1.512 0 00-.422-1.083 1.37 1.37 0 00-1.046-.444 1.288 1.288 0 00-.993.459 1.516 1.516 0 00-.41 1.048c-.006.393.143.774.415 1.057.265.29.64.451 1.031.444.38.003.742-.156.997-.438.275-.276.428-.652.425-1.043zm.837 0a2.27 2.27 0 01-.661 1.635 2.213 2.213 0 01-3.206 0 2.227 2.227 0 01-.673-1.643 2.37 2.37 0 01.64-1.653 2.04 2.04 0 011.572-.7 2.225 2.225 0 011.675.674c.436.445.67 1.05.65 1.673zm-5.39 1.592a5.648 5.648 0 01-.318.209c-.238.15-.487.282-.745.395a2.393 2.393 0 01-.904.209 3.22 3.22 0 01-2.31-.872 2.856 2.856 0 01-.925-2.18c-.012-.814.286-1.6.832-2.201a2.592 2.592 0 012.022-.93c.358.004.713.064 1.051.18.433.133.829.365 1.156.68l-.532.598a2.038 2.038 0 00-.866-.49 2.998 2.998 0 00-.85-.114 1.755 1.755 0 00-1.4.68 2.505 2.505 0 00-.56 1.634 2.076 2.076 0 00.64 1.56c.44.418 1.028.642 1.632.62a1.63 1.63 0 00.84-.257c.24-.186.362-.273.368-.29v-1.304h-1.782l.257-.814h2.368zm22.124-19.029v5.061c-.032 3.467-3.417 3.987-3.417 3.987h-5.593v-3.987h4.704a.443.443 0 00.423-.462v-.92h-5.127v-3.066c0-.692.777-.613.777-.613zm-.292-1.118h-9.053a.949.949 0 00-.768.926v9.255h-3.836v-10.164s.075-2.996 3.683-3.868h9.974zm4.636 49.452a.72.72 0 00.168-.48v-.31a.725.725 0 00-.168-.48.598.598 0 00-.826 0 .725.725 0 00-.168.48v.302a.718.718 0 00.168.479.6.6 0 00.826 0zm-1.103.22a.995.995 0 01-.26-.68v-.35a.987.987 0 01.263-.677 1.05 1.05 0 011.374 0 .977.977 0 01.263.677v.351a.995.995 0 01-.257.68.922.922 0 01-.693.252.91.91 0 01-.682-.253zm-2.248 0a.974.974 0 01-.257-.697v-.328a.973.973 0 01.257-.694.916.916 0 01.682-.25c.17-.005.34.03.494.105a.76.76 0 01.303.261c.062.093.099.2.107.311a.075.075 0 01-.026.067.091.091 0 01-.066.029h-.18a.098.098 0 01-.063-.018.342.342 0 01-.04-.07.547.547 0 00-.203-.29.572.572 0 00-.323-.084.531.531 0 00-.407.16.734.734 0 00-.165.488v.29a.723.723 0 00.165.488.53.53 0 00.407.16.573.573 0 00.326-.085.56.56 0 00.2-.29.249.249 0 01.04-.067.101.101 0 01.064-.017h.179c.024 0 .048.01.066.026a.078.078 0 01.026.066.636.636 0 01-.107.308.786.786 0 01-.303.265c-.154.074-.323.11-.494.104a.911.911 0 01-.682-.232zm-1.19.18a.094.094 0 01-.026-.067v-.29c0-.026.01-.05.026-.07a.086.086 0 01.067-.029h.289c.025 0 .05.01.066.03a.102.102 0 01.026.069v.29a.09.09 0 01-.087.093h-.294a.094.094 0 01-.067-.02zm-1.82-.026a.799.799 0 01-.288-.21.353.353 0 01-.096-.197.08.08 0 01.03-.064.11.11 0 01.063-.023h.17a.065.065 0 01.038 0c.015.01.03.023.04.038a.73.73 0 00.211.18.626.626 0 00.312.067.658.658 0 00.352-.084.268.268 0 00.133-.238.233.233 0 00-.058-.163.48.48 0 00-.19-.11 2.662 2.662 0 00-.393-.108 1.014 1.014 0 01-.503-.226.52.52 0 01-.147-.38.555.555 0 01.09-.291c.066-.1.159-.18.268-.23a.91.91 0 01.422-.09c.151-.004.301.026.439.088a.778.778 0 01.274.2.35.35 0 01.093.195.088.088 0 01-.093.084h-.153a.093.093 0 01-.083-.044 1.682 1.682 0 00-.116-.122.37.37 0 00-.136-.072.64.64 0 00-.225-.032.493.493 0 00-.306.084.273.273 0 00-.06.369c.045.05.104.089.17.11.122.045.247.08.375.105.2.028.39.11.549.235.108.1.168.241.162.389a.541.541 0 01-.099.32.678.678 0 01-.288.226c-.15.058-.31.086-.471.081a1.053 1.053 0 01-.486-.078zm-3.85.026a.094.094 0 01-.026-.067v-1.945a.087.087 0 01.026-.067.084.084 0 01.066-.03h.174a.076.076 0 01.063.03.087.087 0 01.026.067v.14a.727.727 0 01.595-.277.661.661 0 01.639.378.7.7 0 01.289-.273.804.804 0 01.407-.105.716.716 0 01.546.23c.153.186.23.424.214.665v1.187a.1.1 0 01-.026.067.091.091 0 01-.07.026h-.173a.092.092 0 01-.07-.026.094.094 0 01-.025-.067v-1.16a.66.66 0 00-.136-.471.473.473 0 00-.355-.143.444.444 0 00-.336.148.638.638 0 00-.141.465v1.161a.09.09 0 01-.087.093h-.185a.091.091 0 01-.069-.026.094.094 0 01-.026-.067v-1.16a.647.647 0 00-.141-.469.471.471 0 00-.35-.145.452.452 0 00-.335.145.639.639 0 00-.142.465v1.162a.09.09 0 01-.086.093h-.188a.092.092 0 01-.066-.027zm-1.534 0a.094.094 0 01-.026-.067v-1.942c0-.026.01-.05.026-.07a.096.096 0 01.067-.03h.173a.088.088 0 01.07.03.093.093 0 01.025.07v.18a.615.615 0 01.578-.29h.159a.094.094 0 01.07.026.084.084 0 01.022.07v.15a.09.09 0 01-.083.096h-.252a.475.475 0 00-.352.13.494.494 0 00-.127.358v1.21c0 .026-.011.05-.03.068a.105.105 0 01-.069.026h-.184a.091.091 0 01-.067-.009zm-2.004 0a.094.094 0 01-.026-.067v-1.724h-.353a.105.105 0 01-.066-.024.094.094 0 01-.026-.067v-.13a.088.088 0 01.026-.067.084.084 0 01.066-.03h.353v-.202a.744.744 0 01.161-.517.672.672 0 01.529-.183h.612c.025 0 .048.01.064.029a.093.093 0 01.026.066v.131a.087.087 0 01-.026.067.089.089 0 01-.064.023h-.603a.315.315 0 00-.263.099.518.518 0 00-.073.305v.183h.94a.076.076 0 01.063.029.088.088 0 01.026.067v1.945c0 .025-.009.05-.026.067a.082.082 0 01-.064.026h-.176a.09.09 0 01-.092-.087v-1.73h-.665v1.724a.085.085 0 01-.029.067.085.085 0 01-.066.026h-.176a.094.094 0 01-.072-.02zm-1.381-.444a.774.774 0 00.153-.453v-.317a.693.693 0 00-.156-.432.519.519 0 00-.428-.183.499.499 0 00-.427.186.875.875 0 00-.147.485v.119c0 .525.193.786.577.786a.504.504 0 00.428-.185zm-1.156.232a1.217 1.217 0 01-.23-.705v-.247c.001-.253.083-.5.233-.703a.754.754 0 01.642-.29.78.78 0 01.658.29v-.95c0-.025.011-.049.029-.066a.092.092 0 01.066-.027h.185a.09.09 0 01.093.093v2.727a.09.09 0 01-.087.093h-.182a.085.085 0 01-.066-.026.105.105 0 01-.023-.067v-.177a.797.797 0 01-.673.31.76.76 0 01-.639-.25zm-1.193-.194a.72.72 0 00.168-.48v-.31a.726.726 0 00-.168-.48.598.598 0 00-.826 0 .725.725 0 00-.167.48v.308a.718.718 0 00.167.479.6.6 0 00.826 0zm-1.106.22a1.006 1.006 0 01-.257-.68v-.35a.987.987 0 01.263-.677c.396-.34.98-.34 1.375 0a.99.99 0 01.263.677v.351c.002.25-.09.493-.257.68a1.079 1.079 0 01-1.387 0zm-1.228-.22a.703.703 0 00.165-.48v-.31a.707.707 0 00-.165-.48.534.534 0 00-.413-.165.541.541 0 00-.416.166.736.736 0 00-.164.479v.308a.731.731 0 00.164.479c.109.113.26.173.416.165a.533.533 0 00.42-.156zm-1.363-.46v-.35a.976.976 0 01.263-.677c.396-.34.98-.34 1.375 0a.99.99 0 01.263.677v.351c0 .251-.092.494-.26.68-.4.336-.984.336-1.384 0a.994.994 0 01-.257-.68zm-1.057.407a.771.771 0 00.159-.45v-.284a.763.763 0 00-.16-.447.51.51 0 00-.43-.19.48.48 0 00-.424.19.874.874 0 00-.147.482v.217c0 .172.051.34.147.482.1.131.26.202.424.186a.507.507 0 00.437-.18zm-.965 1.272a.734.734 0 01-.289-.26.542.542 0 01-.08-.256c0-.024.009-.047.025-.064a.1.1 0 01.067-.027h.179a.08.08 0 01.06.02.14.14 0 01.044.067c.074.218.29.355.517.329a.669.669 0 00.453-.131.603.603 0 00.148-.465v-.29a.795.795 0 01-.662.29.764.764 0 01-.647-.29 1.165 1.165 0 01-.228-.706v-.226c-.002-.253.078-.5.228-.703a.759.759 0 01.647-.29.794.794 0 01.67.316v-.177c0-.025.01-.05.026-.07a.096.096 0 01.067-.029h.176c.025 0 .049.011.066.03s.027.044.027.069v2.033c0 .63-.315.946-.95.946a1.088 1.088 0 01-.538-.11zm-1.1-13.935c0 .729-.359 1.19-.928 1.19-.569 0-.93-.461-.93-1.19 0-.729.364-1.19.93-1.19.566 0 .928.461.928 1.19zm-4.215-4.733c-.569 0-.93-.462-.93-1.191 0-.717.364-1.193.93-1.193.566 0 .927.464.927 1.193 0 .73-.358 1.19-.927 1.19zm7.525-1.484h-.543v-.903h.615c.338 0 .534.145.534.438 0 .294-.222.465-.606.465zm-.239 5.672a.617.617 0 01-.616.617h-.526l-.003-1.236h.53c.34 0 .616.277.615.62zm.34-4.182h-.644v-1.011h.627c.427 0 .661.166.661.5 0 .334-.225.51-.644.51zm-18.58 4.715c0 .752-.352 1.147-.999 1.147h-.523l-.005-2.259h.523c.638 0 1.005.36 1.005 1.112zm25.374-5.912c0 .735-.347 1.19-.916 1.19-.569 0-.93-.46-.93-1.19 0-.717.352-1.193.919-1.193.566 0 .927.459.927 1.193zm-11.029.073h-.525v-1.237h.527c.34 0 .615.278.615.62a.617.617 0 01-.617.617zm25.682 5.851c0 .729-.363 1.19-.93 1.19-.566 0-.93-.461-.93-1.19 0-.729.364-1.19.93-1.19.567 0 .93.461.93 1.19zm9.59-1.06l.442 1.426h-.904l.445-1.426zm-5.959-3.125h.725v-3.484h-.725zm-23.284 0h2.238v-.609h-1.513v-2.875h-.725zm-3.163 0l1.545-.002c.74 0 1.196-.384 1.196-.996a.84.84 0 00-.815-.842v-.018a.765.765 0 00.65-.755c0-.537-.407-.871-1.057-.871h-1.52zm-4.114 0h.723v-1.097h.675a1.159 1.159 0 001.233-1.19 1.132 1.132 0 00-1.199-1.19l-1.432-.007zm-6.663-2.877h1.01v2.877h.726v-2.877h1.028v-.601h-2.764zm-5.697 7.047c0-1.103-.61-1.724-1.65-1.724l-1.336-.018v3.485h1.337c1.04 0 1.65-.64 1.65-1.743zm2.753-1.73h-2.293v3.484h2.293v-.595h-1.568v-.87h1.479v-.559h-1.48v-.839h1.57zm3.51 0h-.789l-.791 2.73h-.018l-.791-2.73h-.812l1.156 3.484h.89zm2.634 0h-2.29v3.484h2.29v-.595h-1.568v-.87h1.481v-.559h-1.481v-.839h1.568zm1.32-2.378c1.023 0 1.67-.694 1.67-1.801 0-1.106-.644-1.8-1.67-1.8-1.025 0-1.67.694-1.67 1.8 0 1.107.648 1.8 1.67 1.8zm1.442 5.253h-1.514v-2.875h-.725v3.484h2.239zm3.515-1.13c0-1.106-.644-1.8-1.67-1.8-1.025 0-1.67.694-1.67 1.8s.648 1.8 1.67 1.8c1.023 0 1.67-.694 1.67-1.8zm3.108-.543a1.131 1.131 0 00-1.202-1.196h-1.438v3.484h.722v-1.098h.685c.036.003.073.004.11.003a1.159 1.159 0 001.123-1.193zm4.09 2.282l-.006-3.484h-.84l-.982 2.465h-.02l-.983-2.465h-.84v3.484h.644v-2.349h.02l.939 2.323h.462l.942-2.323h.017v2.35zm2.866-3.484h-2.291v3.484h2.29v-.595h-1.568v-.87h1.482v-.559h-1.482v-.839h1.569zm.153-4.179c0-1.106-.644-1.8-1.67-1.8-1.025 0-1.67.694-1.67 1.8 0 1.107.648 1.8 1.67 1.8 1.023 0 1.67-.693 1.67-1.8zm3.29 4.179h-.673v2.265h-.02l-1.618-2.265h-.61v3.484h.702v-2.276h.023l1.618 2.276h.578zm.225-3.647h-.705a.778.778 0 01-.814.665c-.555 0-.902-.465-.902-1.2 0-.734.353-1.193.899-1.193a.801.801 0 01.814.705h.705a1.426 1.426 0 00-1.52-1.31c-1.002 0-1.637.68-1.637 1.801s.624 1.8 1.638 1.8c.849 0 1.441-.493 1.522-1.268zm2.952 3.667h-2.761v.601h1.01v2.863l.737.015v-2.878h1.014zm.433-2.465l-1.369-1.937 1.283-1.542h-.806l-1.3 1.586h-.023v-1.586h-.722v3.484l.719-.002v-1.063l.324-.392 1.028 1.452zm1.693.067c.847 0 1.439-.494 1.522-1.27h-.704a.784.784 0 01-.818.666c-.552 0-.901-.465-.901-1.2 0-.734.352-1.193.901-1.193a.801.801 0 01.815.705h.705a1.426 1.426 0 00-1.52-1.31c-1.002 0-1.638.68-1.638 1.801s.63 1.8 1.638 1.8zm2.372 4.654h-.705a.783.783 0 01-.818.665c-.554 0-.9-.464-.9-1.2 0-.734.352-1.192.898-1.192a.804.804 0 01.817.705h.705c-.055-.778-.69-1.31-1.522-1.31-1.003 0-1.635.68-1.635 1.801 0 1.12.63 1.8 1.635 1.8.849 0 1.44-.494 1.525-1.269zm.32-6.182h1.557v1.466h.725v-3.484h-.725v1.414h-1.557v-1.414h-.725v3.484h.725zm3.354 5.651c0-1.106-.644-1.8-1.67-1.8-1.025 0-1.666.694-1.666 1.8s.64 1.8 1.666 1.8c1.026 0 1.67-.694 1.67-1.8zm.292-5.03h1.213l.266.845h.768l-1.205-3.484h-.849l-1.201 3.484h.742zm3.836 3.285h-.838l-.982 2.465h-.02l-.982-2.465h-.841v3.484h.644v-2.349h.02l.94 2.323h.456l.941-2.323h.018v2.35h.644zm.063-2.44h.708v-2.279h.02l1.62 2.28h.599v-3.485h-.708v2.265h-.017l-1.618-2.265h-.604zm3.154 3.636a1.131 1.131 0 00-1.199-1.19l-1.44-.006v3.484h.722v-1.097h.684a1.159 1.159 0 001.233-1.19zm3.14 2.303l-1.204-3.485h-.85l-1.201 3.485h.742l.263-.845h1.213l.266.845zm3.296-3.5h-.705v2.266h-.017l-1.617-2.265h-.604v3.484l.693-.005v-2.277h.02l1.632 2.282h.598zm3.466.01h-.765l-.777 1.483h-.017l-.774-1.486h-.79l1.205 2.177v1.301l.711.003v-1.3zm-10.678 1.191a.617.617 0 01-.616.617h-.525l-.003-1.236h.53c.34 0 .615.277.614.62zm-5.65-6.453l.441 1.426h-.915l.456-1.426z"/></defs><use fill="#fff" xlink:href="#a" transform="translate(-1587 -6258)"/></svg>