<svg xmlns="http://www.w3.org/2000/svg" xmlns:xlink="http://www.w3.org/1999/xlink" width="73" height="80"><defs><path id="a" d="M311 6318.043c-.452.242-.916.47-1.368.726a27401.99 27401.99 0 01-27.604 15.105c-2.43 1.33-4.873 2.661-7.302 4.005-.067.04-.12.08-.186.12h-.093c-.903-.497-1.793-.994-2.695-1.49-7.887-4.328-15.787-8.642-23.674-12.97-3.28-1.8-6.573-3.6-9.852-5.402a1.178 1.178 0 00-.226-.094v-40.1c.292-.148.597-.296.89-.457 6.904-3.777 13.808-7.567 20.713-11.343 4.899-2.687 9.812-5.375 14.711-8.05.053-.026.093-.067.146-.094h.093c.93.511 1.859 1.035 2.788 1.546 8.033 4.408 16.093 8.816 24.152 13.224 3.094 1.693 6.2 3.386 9.294 5.093.067.04.133.053.2.08.013 13.358.013 26.73.013 40.101zm-72.43-20.077v19.379c0 .215.054.322.24.416 3.904 2.123 7.807 4.274 11.697 6.41 7.927 4.341 15.854 8.682 23.767 13.023.146.08.252.08.398 0 5.338-2.93 10.689-5.86 16.04-8.79l19.438-10.643c.173-.094.24-.188.24-.39v-38.743c0-.188-.054-.296-.227-.39-2.88-1.572-5.762-3.158-8.643-4.73-8.936-4.905-17.885-9.81-26.834-14.715-.146-.081-.252-.081-.398 0-4.117 2.257-8.246 4.528-12.375 6.786-7.701 4.22-15.402 8.426-23.103 12.645-.186.108-.24.216-.24.417v19.325zM309.009 6287c0 .067.014.135.014.202v21.595c0 .068 0 .135-.014.202h-3.147v6.142c0 .134 0 .228-.146.308-2.217 1.223-4.434 2.46-6.652 3.696-1.633.9-3.266 1.815-4.912 2.715-2.377 1.317-4.754 2.634-7.13 3.964-2.35 1.304-4.714 2.621-7.064 3.924-1.726.954-3.452 1.922-5.178 2.89-.186.094-.306.04-.452-.04-1.088-.606-2.19-1.223-3.28-1.829l-5.536-3.063-7.967-4.435c-1.991-1.102-3.996-2.204-5.988-3.32-2.682-1.491-5.35-2.983-8.033-4.46-.159-.095-.212-.19-.212-.364.013-1.935 0-3.884 0-5.819V6309h-3.346c0-.067-.013-.134-.013-.202v-21.595c0-.067 0-.135.013-.202h3.346v-6.142c0-.134 0-.228.146-.309 2.217-1.223 4.435-2.459 6.652-3.695 1.633-.9 3.266-1.814 4.913-2.714 2.376-1.318 4.753-2.635 7.13-3.965 2.35-1.304 4.713-2.62 7.064-3.924 1.726-.955 3.452-1.922 5.178-2.89.186-.094.305-.04.451.04 2.178 1.21 4.342 2.42 6.52 3.629l.858.474-.872-.487c-2.177-1.21-4.355-2.42-6.52-3.629-.145-.08-.278-.134-.45-.04-1.727.968-3.453 1.922-5.179 2.89-2.35 1.303-4.713 2.62-7.063 3.923-2.377 1.317-4.754 2.648-7.13 3.965a569.464 569.464 0 01-4.913 2.714c-2.218 1.237-4.435 2.46-6.652 3.696-.146.081-.146.175-.146.31v6.141h-3.346c0-.78 0-1.573-.013-2.352 0-1.707 0-3.413-.014-5.12 0-.229.08-.336.266-.43 2.708-1.465 5.404-2.93 8.1-4.395 7.66-4.152 15.308-8.292 22.943-12.444 1.009-.55 2.031-1.102 3.04-1.653.16-.08.266-.08.425 0 6.891 3.75 13.782 7.486 20.66 11.222 4.448 2.405 8.883 4.824 13.33 7.23.24.12.332.254.332.55-.013 2.366-.013 4.73-.013 7.096.013.108.013.202 0 .309h-3.133v.014c1.062-.014 2.098-.014 3.133-.014zm-22.824-17.295c2.39 1.316 4.767 2.647 7.157 3.964 1.62.9 3.226 1.787 4.846 2.688a2130.16 2130.16 0 007.449 4.139.473.473 0 01.177.15.42.42 0 00-.19-.164 2016.91 2016.91 0 01-7.45-4.139c-1.606-.9-3.226-1.787-4.845-2.688-2.39-1.317-4.767-2.647-7.157-3.964l-.859-.474.872.488zm-42.488 37.292v7.861c0 .189.053.283.226.377 8.006 4.435 16 8.869 23.992 13.317a993.004 993.004 0 016.466 3.602c.146.08.253.094.399 0 .226-.148.451-.256.69-.39l29.795-16.53c.146-.08.2-.174.2-.349v-7.888h-61.768zm0-18.021h61.767v-7.848c0-.189-.053-.283-.226-.377a35048.965 35048.965 0 00-30.445-16.92c-.146-.08-.252-.08-.398 0a35108.256 35108.256 0 01-30.485 16.92c-.147.08-.2.175-.2.336v7.069c-.013.269-.013.537-.013.82zm20.288 11.154c-1.7 1.814-4.023 1.25-4.9.255-1.075-1.237-1.115-3.172-.052-4.395a2.909 2.909 0 011.885-.994c1.182-.134 2.178.242 3 1.129.373-.363.73-.699 1.09-1.035a1.587 1.587 0 01-.213-.215c-1.54-1.505-3.97-1.841-5.815-.752-1.5.873-2.231 2.244-2.258 3.977-.026 1.465.492 2.729 1.633 3.656 1.169.967 2.537 1.21 3.997.954a4.573 4.573 0 002.629-1.465c-.345-.376-.664-.739-.996-1.115zm28.255 2.445c0-1.317.04-2.607-.014-3.91-.04-.995-.49-1.76-1.447-2.164-.53-.215-1.089-.295-1.646-.188-.412.08-.823.242-1.248.376v-3.494h-1.554v9.367h1.567v-3.118c0-1.088.478-1.599 1.54-1.707.545-.053.97.23 1.115.767.054.16.08.336.08.51.013.78.013 1.546.013 2.325v1.223c.558.013 1.063.013 1.594.013zm-19.133-6.181v.295c0 1.035.013 2.083-.013 3.118-.014.86-.478 1.37-1.302 1.519-.836.147-1.394-.148-1.58-.874a2.596 2.596 0 01-.066-.645v-3.413h-1.381v.215c0 1.236-.053 2.472.013 3.695.12 2.097 1.766 2.701 3.08 2.486.426-.067.824-.255 1.236-.39 0 .041.013.108.013.175h1.553v-6.181h-1.553zm12.6.887c-1.168-1.075-2.496-1.358-3.957-.887-2.31.752-2.987 3.668-1.274 5.402.996.994 2.655 1.29 4.036.712a3.425 3.425 0 001.182-.82c-.385-.349-.744-.685-1.102-1.02-.067.053-.106.08-.146.12-.518.47-1.115.632-1.806.524-.783-.12-1.434-.752-1.54-1.505-.12-.86.252-1.613.996-1.935.783-.336 1.553-.27 2.257.255.08.067.16.135.252.202.372-.363.717-.7 1.102-1.048zm-6.493.309v-1.21h-1.181v-2.177h-1.78v2.19h-.955v1.197h.982v4.985h1.78v-4.985h1.154zm-13.596-4.395v9.38h1.753v-9.38h-1.752zm17.34 7.405c.665 0 1.196-.497 1.182-1.102-.013-.618-.53-1.115-1.195-1.115-.637 0-1.168.497-1.168 1.102.013.618.531 1.115 1.182 1.115zm17.806 8.466c-.053.04-.093.095-.16.12-.053.015-.119 0-.172 0h-51.983c-.04-.133-.04-.214.133-.2h52.114a.36.36 0 01.067.08zm-26.967 8.104c-.053.336-.08.685-.16 1.035-.132.497-.49.725-.995.712-.505-.014-.81-.242-.93-.766-.159-.672-.159-1.358.054-2.016.16-.484.491-.686.996-.672.464.013.783.255.89.739.092.296.105.618.145.968zm-.465.013c-.04-.309-.053-.59-.106-.846-.066-.323-.239-.47-.518-.47-.265 0-.464.147-.53.456a3.88 3.88 0 00-.014 1.747c.066.296.226.43.478.444.279.013.478-.121.544-.43.08-.31.107-.618.146-.901zm4.568 1.411a6.5 6.5 0 00.173-.242c.318.054.597.122.89.135.251.013.41-.148.464-.404.053-.268.066-.55.106-.886-.319.349-.65.403-1.022.336-.478-.094-.73-.565-.65-1.183.065-.538.397-.847.942-.874.637-.027 1.022.215 1.089.82.066.565.08 1.156-.014 1.707-.146.914-1.261 1.236-1.978.591zm1.567-2.096c0-.39-.146-.591-.478-.632-.492-.067-.744.215-.677.793.053.484.411.686.85.47.238-.134.318-.363.305-.631zm-10.423 1.949h1.553v.39h-2.018c-.093-.552.053-.996.505-1.331.225-.161.464-.323.677-.498.12-.094.226-.2.305-.322.24-.416.014-.793-.451-.806-.279-.014-.531.053-.744.255-.08-.107-.159-.188-.265-.323.106-.067.225-.188.371-.228.306-.054.625-.108.943-.08a.664.664 0 01.638.51c.106.363.08.725-.2.994-.239.229-.53.417-.796.632-.24.215-.518.39-.518.807zm5.922-1.936c-.08-.107-.16-.215-.253-.35.478-.228.797-.765 1.448-.63v2.902h.664v.39h-1.939v-.376h.81V6316c-.24.188-.478.349-.73.51zm25.758-29.323h-52.021c-.107 0-.319.108-.266-.201h52.022c.106.013.318-.094.265.201zm-10.29-6.652l-.12 2.5h-.438c.053-1.049.12-2.097.173-3.131.04-.014.04-.014.066-.027.531-.041.531-.041.704.456l.69 1.936c.266-.713.518-1.384.744-2.07.093-.268.2-.376.478-.336h.239c.053 1.062.12 2.11.173 3.172h-.439c-.04-.82-.08-1.626-.106-2.446-.013 0-.026-.014-.04-.014-.026.054-.066.108-.08.175-.225.645-.464 1.277-.676 1.922-.054.147-.107.228-.28.228-.172 0-.238-.054-.291-.215-.213-.645-.452-1.29-.678-1.922a1.673 1.673 0 00-.093-.228h-.026zm-14.884-7.243c-.013.255-.013.43-.04.604-.133.874-.65 1.29-1.527 1.223-.637-.053-1.036-.39-1.102-1.061-.053-.47-.04-.954.04-1.411.106-.672.61-.995 1.368-.981.677.013 1.075.349 1.195 1.02.04.216.04.458.066.606zm-.478.094c-.027-.256-.04-.497-.08-.74-.08-.416-.345-.604-.783-.604-.438 0-.704.188-.797.591a3.39 3.39 0 00-.013 1.506c.093.402.332.577.77.59.425 0 .73-.188.81-.577.053-.256.053-.525.093-.766zm-10.808 6.49c.425 0 .836-.026 1.235 0 .491.028.743.243.81.618.08.512-.08.834-.492 1.035.12.23.266.457.359.7.093.255.133.523.2.806-.054.013-.08.013-.12.013-.359.013-.359.013-.439-.35-.013-.067-.026-.147-.053-.214-.172-.699-.318-.793-1.075-.686v1.237h-.425v-3.158zm.425 1.52c.279-.028.53-.028.783-.081.292-.068.412-.336.372-.686-.04-.269-.16-.376-.478-.376-.213-.014-.438 0-.664 0-.013.376-.013.739-.013 1.142zm23.607.16c.345.282.571.86.585 1.479h-.425a52.25 52.25 0 01-.16-.672c-.146-.538-.239-.605-.796-.605h-.24v1.263h-.424v-3.144c.464 0 .916-.027 1.38.013.399.027.598.269.651.631.067.525-.106.834-.57 1.035zm-1.035-.174h.49a.845.845 0 00.266-.04c.306-.081.425-.31.386-.713-.027-.269-.16-.376-.479-.376h-.663v1.129zm-10.57-9.636c.465 0 .943-.026 1.408.014.398.027.638.295.69.698.027.175.027.35.014.525-.053.523-.306.779-.823.82-.266.026-.545 0-.837 0v1.236h-.451v-3.293zm.452 1.653h.704c.319 0 .465-.134.491-.457.013-.161.027-.35-.04-.484-.053-.12-.212-.268-.345-.295-.265-.04-.531-.014-.81-.014v1.25zm-1.766 6.478h1.7v.362h-1.262v.982h1.156v.402H275.8v1.022h1.275v.39h-1.713c.013-1.049.013-2.097.013-3.158zm-13.503.362v.982h1.168v.402h-1.155v1.035h1.275v.363h-1.713v-3.158h1.7v.363c-.425.013-.85.013-1.275.013zm6.52 2.312c.252-.793.49-1.519.716-2.244.014-.027.014-.054.027-.068.12-.39.12-.39.57-.35-.358 1.063-.703 2.11-1.061 3.146-.027.013-.04.013-.054.013-.464.027-.464.027-.61-.417-.292-.86-.571-1.733-.863-2.593-.014-.04-.027-.094-.04-.134.451-.081.451-.081.584.322.239.739.478 1.491.73 2.325zm25.691.215c.08-.108.146-.202.213-.296 0 .027.385.255.916.215.212.014.372-.12.425-.336.053-.228-.014-.416-.226-.537-.226-.121-.465-.202-.69-.336-.186-.108-.385-.242-.505-.417-.265-.403-.08-.914.359-1.128.424-.216 1.009-.162 1.42.134a4.334 4.334 0 00-.172.268c-.385-.12-.518-.147-.757-.147-.226-.027-.425.067-.491.322-.067.229.04.417.292.538.225.107.451.188.677.295.637.323.757 1.102.252 1.505-.425.363-1.314.323-1.713-.08zm-33.764-2.701c-.08.12-.147.215-.173.268-.292-.053-.544-.12-.81-.134-.2-.013-.385.067-.438.31-.053.241.026.416.239.523.252.135.531.229.783.363.292.148.465.376.491.726.027.39-.146.698-.49.86-.479.215-1.17.12-1.514-.215.066-.094.132-.202.212-.31.292.202.61.283.943.23.186-.028.332-.108.385-.296.053-.202.04-.404-.16-.538-.146-.094-.305-.161-.451-.242-.146-.067-.292-.12-.425-.188-.332-.175-.491-.457-.465-.833.027-.39.266-.591.598-.712.425-.135.836-.067 1.275.188zm17.632 2.728c.08-.121.146-.215.186-.27.292.068.558.162.823.176.319.026.491-.094.545-.31.08-.282-.027-.497-.332-.645-.266-.134-.558-.228-.824-.39-.385-.241-.478-.779-.225-1.141.172-.23.411-.35.69-.39.372-.054.717.013 1.062.242-.066.107-.132.201-.186.295-.239-.053-.451-.134-.677-.16-.345-.041-.518.08-.57.335-.054.242.04.403.345.55.225.109.451.19.677.31.279.148.465.363.491.699.04.524-.186.846-.69.967-.452.095-.89.054-1.315-.268zm-3.864-.43c.08.08.173.16.266.242-.372.483-.863.577-1.407.456-.532-.12-.744-.537-.77-1.034a6.605 6.605 0 01.052-1.358.95.95 0 01.77-.82c.465-.093.93-.066 1.315.323-.093.094-.16.188-.239.282v-.067c-.252-.067-.504-.161-.77-.174-.332-.014-.544.147-.61.47a3.152 3.152 0 000 1.572c.119.457.61.605 1.061.363.107-.067.213-.161.332-.255zm-18.774.672h-.438v-2.769h-.956v-.39h2.337v.39h-.943v2.769zm16.703-11.289v.39h-.982v2.89h-.465v-2.89h-1.01v-.403c.81.013 1.62.013 2.457.013zm10.861 11.302h-.425v-3.158h1.7v.363h-1.262v1.021h1.155v.376h-1.168v1.398zm2.722 0h-.425v-3.158h.425v3.158zm-14.579-.013h-.411v-3.158h.411v3.158zm-18.429-3.158h.425v3.158h-.425v-3.158z"/></defs><use fill="#fff" xlink:href="#a" transform="translate(-238 -6258)"/></svg>