<svg xmlns="http://www.w3.org/2000/svg" xmlns:xlink="http://www.w3.org/1999/xlink" width="93" height="80"><defs><path id="a" d="M1089.5 6338.004c-15.357 0-28.711-8.782-35.35-21.61h-.688v5.55H1043l3.357-7.68-3.357-8.674h5.15v-5.547h.081v-.002l.003.002h1.503a40.66 40.66 0 01-.052-2.044c0-22.058 17.861-40.004 39.815-40.004 21.954 0 39.815 17.946 39.815 40.004 0 .686-.018 1.367-.052 2.044h1.425v.083l.08-.085v5.549H1136l-3.36 8.673 3.36 7.68h-10.462v-5.548h-.688c-6.639 12.827-19.993 21.609-35.35 21.609zm0-77.665c-20.668 0-37.483 16.894-37.483 37.66 0 .686.018 1.368.054 2.044h1.293a.293.293 0 01-.15-.242 36.04 36.04 0 01-.024-.59.293.293 0 01.282-.303c.163 0 .296.122.301.283.006.195.014.388.024.582a.294.294 0 01-.15.27h73.282a38.45 38.45 0 00.054-2.044c0-20.766-16.814-37.66-37.483-37.66zm0 75.321c14.024 0 26.273-7.778 32.7-19.265h-1.315c-.04.07-.081.14-.123.209a.29.29 0 01-.4.102.293.293 0 01-.136-.311h-61.451a.294.294 0 01-.286.353.291.291 0 01-.25-.143l-.124-.21h-1.315c6.427 11.487 18.676 19.265 32.7 19.265zm-.563-1.165h-.005a36.14 36.14 0 01-.587-.013.293.293 0 01.017-.587c.193.006.386.011.58.014a.292.292 0 01-.005.586zm1.167 0a.292.292 0 01-.292-.288.292.292 0 01.286-.298c.193-.004.386-.009.578-.015h.01c.157 0 .286.125.291.284a.293.293 0 01-.282.302c-.195.007-.39.012-.586.015h-.005zm-2.915-.068h-.02a42.93 42.93 0 01-.586-.043.293.293 0 01.046-.585c.192.016.385.03.578.041a.293.293 0 01-.018.587zm4.662-.002a.293.293 0 01-.019-.587c.193-.012.385-.026.578-.042a.293.293 0 11.047.585 53.304 53.304 0 01-.606.044zm-6.405-.152c-.011 0-.022 0-.033-.002-.195-.022-.39-.045-.584-.07a.293.293 0 01.074-.582c.191.025.383.048.575.07a.293.293 0 01-.032.584zm8.148-.004a.293.293 0 01-.033-.585c.192-.022.384-.045.575-.07a.293.293 0 11.074.582 52.18 52.18 0 01-.616.073zm-9.882-.234a.284.284 0 01-.047-.003 34.965 34.965 0 01-.58-.1.293.293 0 01-.236-.34.29.29 0 01.338-.237c.19.035.38.067.57.097a.293.293 0 01-.045.583zm11.615-.006a.293.293 0 01-.047-.583c.191-.031.381-.064.571-.098a.293.293 0 01.103.577c-.193.035-.386.068-.58.1a.358.358 0 01-.047.004zm-13.335-.316a.267.267 0 01-.061-.007c-.192-.04-.384-.083-.575-.127a.293.293 0 01.13-.571c.188.043.377.084.566.125a.293.293 0 01-.06.58zm15.055-.009a.293.293 0 01-.06-.58 27.1 27.1 0 00.565-.126.293.293 0 01.13.572c-.19.044-.382.087-.573.128a.306.306 0 01-.062.006zm-16.758-.398a.303.303 0 01-.075-.01 26.26 26.26 0 01-.567-.155.294.294 0 01.157-.565c.186.053.372.104.559.153a.294.294 0 01-.074.577zm18.46-.01a.293.293 0 01-.074-.577c.186-.05.373-.1.558-.153a.293.293 0 01.159.564c-.19.054-.378.106-.568.157a.304.304 0 01-.075.01zm-20.141-.48a.284.284 0 01-.088-.013c-.188-.06-.375-.121-.562-.184a.294.294 0 01.186-.556c.183.062.367.122.552.18a.293.293 0 01-.088.574zm21.822-.011a.293.293 0 01-.089-.573c.184-.059.368-.12.55-.181a.293.293 0 01.186.557 38.74 38.74 0 01-.559.183.272.272 0 01-.088.014zm-23.483-.562a.286.286 0 01-.101-.018c-.185-.07-.369-.14-.552-.212a.293.293 0 01.212-.546c.18.07.361.14.543.207a.294.294 0 01-.102.57zm25.137-.011a.293.293 0 01-.102-.568l.54-.208a.29.29 0 01.379.166.294.294 0 01-.165.38c-.183.072-.366.142-.55.21a.288.288 0 01-.102.02zm-26.767-.644a.285.285 0 01-.114-.023 32.758 32.758 0 01-.541-.238.294.294 0 01-.147-.388.292.292 0 01.386-.147c.176.08.353.157.531.234a.294.294 0 01-.115.562zm28.388-.01a.294.294 0 01-.115-.563c.177-.076.353-.154.528-.232.148-.066.32 0 .386.147a.295.295 0 01-.147.388c-.178.08-.357.159-.537.237a.287.287 0 01-.115.023zm-29.983-.724a.29.29 0 01-.128-.03 37.745 37.745 0 01-.528-.263.294.294 0 01-.127-.395.29.29 0 01.392-.128c.172.088.345.174.52.26a.294.294 0 01-.129.556zm31.57-.006a.294.294 0 01-.128-.557c.172-.085.344-.171.516-.259a.292.292 0 01.392.129.294.294 0 01-.128.394c-.174.09-.349.176-.525.263a.289.289 0 01-.127.03zm-33.127-.804a.288.288 0 01-.14-.037 45.116 45.116 0 01-.514-.288.294.294 0 01-.11-.4.29.29 0 01.398-.11c.168.096.337.19.507.285a.294.294 0 01-.141.55zm34.676-.004a.294.294 0 01-.14-.55c.168-.093.336-.187.503-.284a.292.292 0 01.398.11c.08.14.031.32-.109.4-.17.098-.34.194-.512.288a.293.293 0 01-.14.036zm1.51-.883a.292.292 0 01-.25-.14.295.295 0 01.097-.403c.164-.1.327-.204.49-.307a.291.291 0 01.402.09.294.294 0 01-.09.404c-.165.106-.33.21-.497.314a.292.292 0 01-.153.042zm-37.701 0a.288.288 0 01-.153-.043 36.306 36.306 0 01-.5-.314.294.294 0 01-.088-.405.291.291 0 01.403-.09c.163.105.326.208.491.31a.294.294 0 01-.153.542zm39.167-.955a.294.294 0 01-.165-.535c.158-.11.317-.22.474-.332a.29.29 0 01.407.07.295.295 0 01-.07.409c-.16.114-.32.225-.482.336a.284.284 0 01-.164.052zm-40.637-.003a.287.287 0 01-.165-.05 40.672 40.672 0 01-.483-.338.295.295 0 01-.07-.41.291.291 0 01.407-.07c.157.112.316.223.476.333a.294.294 0 01-.165.535zm42.055-1.023a.294.294 0 01-.177-.527c.155-.117.307-.235.46-.355a.293.293 0 01.359.462c-.154.122-.31.242-.466.36a.29.29 0 01-.176.06zm-43.477-.006a.29.29 0 01-.176-.059l-.466-.36a.294.294 0 01-.05-.412.29.29 0 01.41-.051c.151.12.305.238.459.356a.294.294 0 01.056.41.29.29 0 01-.233.116zm44.845-1.088a.292.292 0 01-.224-.105.295.295 0 01.037-.414 26.4 26.4 0 00.44-.376.29.29 0 01.412.03.294.294 0 01-.03.414 37.51 37.51 0 01-.448.383.292.292 0 01-.187.068zm-46.215-.007a.292.292 0 01-.187-.068c-.15-.127-.3-.255-.448-.384a.294.294 0 01-.03-.413.29.29 0 01.411-.03c.146.126.293.252.441.376a.295.295 0 01-.187.519zm47.53-1.153a.295.295 0 01-.197-.509c.141-.131.282-.264.421-.397a.29.29 0 01.413.01.294.294 0 01-.01.414c-.142.137-.286.271-.43.405a.29.29 0 01-.198.077zm-48.845-.009a.29.29 0 01-.198-.077 33.957 33.957 0 01-.43-.405.294.294 0 01-.009-.414.29.29 0 01.412-.01c.14.133.28.266.423.397a.294.294 0 01-.198.51zm50.102-1.213a.29.29 0 01-.205-.085.295.295 0 01-.002-.415c.135-.138.27-.277.402-.417a.29.29 0 01.413-.01.294.294 0 01.01.415c-.136.142-.272.284-.41.424a.29.29 0 01-.208.088zm-51.36-.01a.29.29 0 01-.208-.087c-.137-.14-.274-.282-.409-.425a.295.295 0 01.01-.415.29.29 0 01.412.01c.134.14.268.28.403.418a.295.295 0 01-.003.415.291.291 0 01-.205.084zm52.559-1.273a.295.295 0 01-.217-.489c.128-.144.255-.29.382-.436a.292.292 0 01.411-.03.295.295 0 01.03.414c-.129.149-.258.296-.389.443a.29.29 0 01-.217.098zm-53.756-.01a.29.29 0 01-.217-.097c-.13-.147-.26-.295-.388-.444a.294.294 0 01.03-.413.291.291 0 01.41.03c.127.146.254.291.383.436a.294.294 0 01-.218.488zm54.89-1.33a.294.294 0 01-.226-.478 35.1 35.1 0 00.361-.454c.1-.127.283-.15.41-.05.127.1.149.284.05.411-.122.156-.244.31-.368.463a.29.29 0 01-.227.108zm-56.024-.008a.292.292 0 01-.226-.108 34.7 34.7 0 01-.367-.462.294.294 0 01.05-.412.29.29 0 01.41.05c.118.152.239.304.36.454a.294.294 0 01-.227.478zm57.094-1.385a.292.292 0 01-.235-.467c.115-.156.227-.314.34-.472a.29.29 0 01.406-.07.294.294 0 01.07.409c-.114.162-.23.321-.345.48a.291.291 0 01-.236.12zm-58.161-.007a.29.29 0 01-.236-.119c-.115-.159-.23-.318-.343-.479a.295.295 0 01.07-.409.291.291 0 01.406.07c.111.158.224.315.338.471a.294.294 0 01-.235.466zm59.163-1.437a.294.294 0 01-.243-.455c.107-.163.212-.325.316-.489a.29.29 0 01.403-.09.294.294 0 01.089.406 42.07 42.07 0 01-.321.496.29.29 0 01-.244.132zm-60.162-.004a.291.291 0 01-.244-.131 38.913 38.913 0 01-.32-.495.294.294 0 01.089-.405.29.29 0 01.403.09c.104.163.209.325.315.486a.294.294 0 01-.243.455zm66.079-18.194h-.014a.292.292 0 01-.278-.306c.01-.194.016-.388.023-.582a.303.303 0 01.3-.284.293.293 0 01.283.302 38.27 38.27 0 01-.023.59.292.292 0 01-.291.28zm-72.035-1.735c-.161 0-.292-.117-.292-.279v-.033c0-.184.002-.37.005-.558a.3.3 0 01.296-.288c.161.002.29.135.287.298-.003.183-.004.368-.004.552 0 .162-.13.308-.292.308zm72.076-.024a.293.293 0 01-.292-.293c0-.194-.002-.388-.005-.582a.293.293 0 01.287-.298h.005c.159 0 .289.128.292.289.003.196.004.393.004.59 0 .163-.13.294-.291.294zm-72.035-1.72h-.014a.293.293 0 01-.278-.307c.01-.198.02-.394.033-.59a.292.292 0 01.582.037c-.012.193-.023.386-.032.58a.293.293 0 01-.291.28zm71.992-.038a.293.293 0 01-.291-.28c-.01-.194-.02-.387-.032-.58a.293.293 0 01.272-.312c.158-.012.3.112.31.274.012.196.023.393.033.59a.293.293 0 01-.278.307h-.014zm-71.868-1.717l-.028-.001a.293.293 0 01-.262-.32c.018-.197.038-.392.06-.588a.294.294 0 01.323-.259c.16.018.275.164.257.325-.021.192-.041.385-.06.578a.292.292 0 01-.29.265zm71.742-.038a.292.292 0 01-.29-.265 38.281 38.281 0 00-.06-.579.293.293 0 01.257-.324.29.29 0 01.323.259c.021.195.042.39.06.587a.293.293 0 01-.29.322zm-71.533-1.708a.293.293 0 01-.29-.335c.029-.196.059-.39.09-.585a.29.29 0 01.334-.242c.16.025.267.175.242.335-.03.191-.06.383-.088.575a.292.292 0 01-.288.252zm71.323-.038a.292.292 0 01-.289-.251 40.87 40.87 0 00-.088-.575.292.292 0 01.576-.094c.031.194.061.389.09.584a.293.293 0 01-.29.336zm-71.03-1.696a.293.293 0 01-.287-.35c.038-.194.077-.386.117-.58a.294.294 0 01.346-.226.294.294 0 01.225.348c-.04.19-.078.38-.115.57a.292.292 0 01-.286.238zm70.735-.038a.293.293 0 01-.286-.237c-.037-.19-.076-.38-.116-.57a.293.293 0 01.225-.348.29.29 0 01.346.226c.04.193.08.385.117.58a.293.293 0 01-.286.35zm-70.359-1.68a.293.293 0 01-.283-.364c.047-.191.095-.382.145-.573a.29.29 0 01.357-.208.293.293 0 01.207.358c-.049.187-.096.375-.142.564a.293.293 0 01-.284.223zm69.98-.038a.293.293 0 01-.283-.222 37.097 37.097 0 00-.143-.564.294.294 0 01.207-.359.293.293 0 01.357.209c.05.19.099.381.146.573a.293.293 0 01-.284.363zm-69.52-1.66a.294.294 0 01-.28-.378c.057-.189.115-.378.175-.567a.29.29 0 01.366-.19.293.293 0 01.19.368c-.059.185-.116.371-.171.558a.292.292 0 01-.28.21zm69.06-.037a.292.292 0 01-.28-.209 32.936 32.936 0 00-.171-.555.292.292 0 01.556-.178c.06.188.117.376.174.565a.294.294 0 01-.28.377zm-68.516-1.641a.293.293 0 01-.275-.39c.066-.188.133-.374.201-.56a.291.291 0 01.376-.172.294.294 0 01.171.378c-.067.181-.133.365-.198.548a.293.293 0 01-.275.196zm67.97-.03a.292.292 0 01-.274-.196c-.065-.183-.13-.365-.198-.547a.292.292 0 11.547-.205c.068.185.135.37.2.556a.294.294 0 01-.274.392zm-67.345-1.619a.294.294 0 01-.27-.404c.075-.184.151-.366.229-.547a.292.292 0 11.536.23 36.01 36.01 0 00-.225.539.292.292 0 01-.27.182zm66.721-.025a.291.291 0 01-.27-.182 37.863 37.863 0 00-.223-.534.294.294 0 01.153-.385.29.29 0 01.383.154c.078.18.153.36.227.543a.294.294 0 01-.27.404zm-66.016-1.59a.294.294 0 01-.264-.418c.083-.179.168-.357.254-.535a.29.29 0 01.39-.134.294.294 0 01.134.392c-.085.174-.168.35-.25.525a.292.292 0 01-.264.17zm65.315-.015a.291.291 0 01-.264-.17 41.08 41.08 0 00-.25-.523.293.293 0 01.135-.391.29.29 0 01.39.134c.086.177.17.354.253.532a.294.294 0 01-.264.418zm-64.533-1.563a.294.294 0 01-.258-.43c.092-.175.185-.349.28-.522a.291.291 0 11.511.283c-.093.17-.185.34-.275.513a.292.292 0 01-.258.156zm63.755-.007a.292.292 0 01-.259-.157c-.09-.17-.181-.34-.274-.51a.294.294 0 01.115-.399.291.291 0 01.396.116c.095.172.187.345.279.519a.294.294 0 01-.257.43zm-62.898-1.53a.294.294 0 01-.25-.443c.1-.17.201-.34.304-.507a.29.29 0 01.401-.096c.138.085.18.266.096.403-.101.166-.201.332-.3.5a.291.291 0 01-.251.143zm62.043-.002a.291.291 0 01-.251-.143 34.44 34.44 0 00-.298-.497.294.294 0 01.095-.404.291.291 0 01.402.097c.102.167.203.335.303.505a.294.294 0 01-.25.442zm-.927-1.488a.29.29 0 01-.244-.131 41.81 41.81 0 00-.322-.482.294.294 0 01.076-.408.29.29 0 01.405.077c.11.162.22.325.328.49a.294.294 0 01-.243.454zm-60.185-.003a.294.294 0 01-.243-.455c.107-.165.217-.328.328-.491a.29.29 0 01.405-.077.294.294 0 01.076.408c-.108.16-.216.321-.323.483a.29.29 0 01-.243.132zm59.186-1.438a.29.29 0 01-.236-.12 33.238 33.238 0 00-.345-.466.294.294 0 01.057-.411.29.29 0 01.408.056c.119.157.236.315.351.474a.294.294 0 01-.235.467zm-58.185-.007a.294.294 0 01-.235-.467c.115-.159.233-.317.351-.474a.29.29 0 01.409-.057.294.294 0 01.056.41c-.116.156-.232.311-.346.468a.291.291 0 01-.235.12zm57.118-1.386a.29.29 0 01-.227-.108c-.121-.15-.244-.3-.367-.45a.294.294 0 01.036-.412.291.291 0 01.411.036c.126.151.25.303.374.457a.294.294 0 01-.227.477zm-56.05-.008a.295.295 0 01-.227-.478c.125-.154.25-.306.376-.457a.29.29 0 01.41-.036c.124.104.14.289.037.413-.124.149-.247.298-.369.45a.291.291 0 01-.226.108zm54.917-1.33a.291.291 0 01-.218-.099 36.063 36.063 0 00-.388-.43.294.294 0 01.016-.415.29.29 0 01.412.017c.133.145.265.29.396.438a.294.294 0 01-.218.488zm-53.782-.01a.294.294 0 01-.217-.489c.13-.147.263-.293.396-.438a.291.291 0 01.412-.017c.118.11.126.296.016.415-.13.142-.26.286-.389.43a.29.29 0 01-.218.099zm52.586-1.274a.29.29 0 01-.208-.087 42.082 42.082 0 00-.41-.412.294.294 0 01-.003-.414.29.29 0 01.413-.003c.14.137.278.277.416.417a.294.294 0 01-.208.5zm-51.388-.01a.294.294 0 01-.208-.498c.137-.14.276-.28.416-.419a.291.291 0 01.412.004.295.295 0 01-.003.415c-.138.136-.274.273-.41.411a.29.29 0 01-.207.087zm50.13-1.214a.289.289 0 01-.197-.077 41.316 41.316 0 00-.429-.392.294.294 0 01-.023-.414.29.29 0 01.412-.023c.146.131.291.264.435.397a.295.295 0 01-.197.51zm-48.873-.009a.294.294 0 01-.198-.509c.144-.133.29-.265.436-.397a.29.29 0 01.412.024.294.294 0 01-.024.414l-.428.39a.29.29 0 01-.198.078zm47.559-1.153a.29.29 0 01-.187-.068 33.485 33.485 0 00-.447-.37.295.295 0 01-.043-.413.29.29 0 01.41-.043c.152.124.304.25.454.376a.294.294 0 01-.187.518zm-46.245-.007a.295.295 0 01-.187-.519c.15-.126.301-.25.454-.375a.29.29 0 01.41.044.294.294 0 01-.043.412c-.15.122-.299.245-.447.37a.29.29 0 01-.187.068zm44.875-1.09a.288.288 0 01-.175-.059 36.657 36.657 0 00-.465-.348.295.295 0 01-.063-.41.29.29 0 01.408-.064c.158.117.315.235.472.354a.294.294 0 01-.177.527zm-43.507-.005a.291.291 0 01-.233-.116.295.295 0 01.056-.412c.156-.118.313-.236.472-.352a.291.291 0 01.407.063.295.295 0 01-.063.41c-.155.114-.31.23-.463.347a.29.29 0 01-.176.06zm42.086-1.024a.293.293 0 01-.165-.051c-.159-.11-.32-.218-.48-.325a.294.294 0 01-.083-.406.291.291 0 01.404-.083c.164.108.327.218.49.33a.294.294 0 01-.166.535zm-40.668-.003a.294.294 0 01-.165-.535c.162-.111.324-.221.488-.33a.29.29 0 01.404.083.295.295 0 01-.083.407c-.16.107-.32.214-.48.324a.288.288 0 01-.164.05zm39.199-.956a.288.288 0 01-.153-.044 31.15 31.15 0 00-.496-.301.294.294 0 01-.102-.402.29.29 0 01.4-.102 26 26 0 01.504.306.294.294 0 01-.153.543zm-37.733 0a.294.294 0 01-.153-.543c.166-.103.333-.205.502-.305a.291.291 0 01.4.102c.082.14.036.32-.103.402-.165.099-.33.199-.494.3a.29.29 0 01-.152.044zm1.509-.884a.292.292 0 01-.256-.151.295.295 0 01.114-.399c.172-.094.344-.188.517-.28a.29.29 0 01.394.122.294.294 0 01-.121.396c-.17.091-.34.182-.508.276a.288.288 0 01-.14.036zm34.71-.002a.294.294 0 01-.141-.037 42.59 42.59 0 00-.51-.277.294.294 0 01-.122-.397.291.291 0 01.394-.122c.174.093.347.187.52.282a.295.295 0 01-.142.55zm-33.161-.806a.294.294 0 01-.128-.557c.175-.086.351-.17.528-.255a.293.293 0 01.248.531 62.77 62.77 0 00-.52.25.285.285 0 01-.128.03zm31.603-.007a.291.291 0 01-.127-.03 35.864 35.864 0 00-.524-.251.294.294 0 01.248-.531c.178.084.355.169.532.256a.294.294 0 01-.129.556zm-30.018-.725a.294.294 0 01-.115-.563l.54-.228a.293.293 0 01.221.543c-.177.074-.354.149-.53.225a.287.287 0 01-.116.023zm28.424-.009a.286.286 0 01-.115-.024 37.821 37.821 0 00-.535-.225.294.294 0 01-.16-.383.291.291 0 01.38-.16c.183.075.364.151.545.23a.294.294 0 01-.115.562zm-26.802-.645a.294.294 0 01-.102-.568c.184-.069.368-.136.553-.202a.294.294 0 01.195.553c-.182.065-.363.131-.544.199a.288.288 0 01-.102.018zm25.173-.01a.299.299 0 01-.102-.019 33.457 33.457 0 00-.546-.199.294.294 0 01.194-.553c.186.066.37.133.555.203a.293.293 0 01-.101.568zm-23.519-.564a.293.293 0 01-.088-.572c.187-.06.374-.119.562-.175a.294.294 0 01.168.562c-.185.055-.37.112-.553.171a.287.287 0 01-.089.014zm21.858-.011a.286.286 0 01-.088-.014 31.886 31.886 0 00-.553-.171.294.294 0 01.168-.562c.188.057.375.115.562.174a.294.294 0 01-.089.573zm-20.178-.481a.294.294 0 01-.075-.577c.19-.05.38-.1.57-.147a.293.293 0 01.14.569 39.04 39.04 0 00-.56.145.282.282 0 01-.075.01zm18.498-.01a.302.302 0 01-.074-.01l-.561-.144a.293.293 0 01.14-.569c.19.047.38.096.57.147a.293.293 0 01-.075.576zm-16.796-.4a.294.294 0 01-.06-.58l.575-.119a.294.294 0 01.113.576c-.19.037-.378.076-.567.117a.304.304 0 01-.061.006zm15.094-.008a.298.298 0 01-.061-.006c-.189-.04-.378-.08-.567-.116a.293.293 0 01.112-.576c.192.038.384.077.576.118a.293.293 0 01-.06.58zm-13.374-.317a.293.293 0 01-.047-.582c.193-.032.387-.062.581-.091a.294.294 0 01.085.58c-.191.029-.382.058-.572.09a.287.287 0 01-.047.003zm11.654-.006a.35.35 0 01-.047-.003c-.19-.032-.38-.061-.572-.09a.293.293 0 01-.247-.331.29.29 0 01.331-.248c.194.028.388.058.581.09a.293.293 0 01-.046.582zm-9.921-.234a.293.293 0 01-.032-.585c.194-.022.389-.043.584-.062a.292.292 0 01.057.584 34.415 34.415 0 00-.609.063zm8.187-.004l-.033-.002a34.969 34.969 0 00-.575-.06.293.293 0 01.056-.585c.195.02.39.04.585.062a.293.293 0 01-.033.585zm-6.444-.152a.293.293 0 11-.019-.586c.196-.013.392-.024.588-.034a.292.292 0 01.305.279.292.292 0 01-.277.307c-.193.01-.386.02-.578.033h-.02zm4.701-.003h-.019a41.905 41.905 0 00-.578-.033.292.292 0 01-.277-.307.295.295 0 01.305-.279c.197.01.392.02.587.033a.292.292 0 11-.018.586zm-2.952-.07a.293.293 0 01-.292-.288.293.293 0 01.287-.298c.196-.003.392-.005.588-.005.006.005.012 0 .018 0 .202-.013.405.001.607.005.161.002.29.135.287.297a.292.292 0 01-.292.289h-.005c-.198-.003-.403.003-.595-.005-.202.009-.4.002-.598.006h-.005zm20.91 31.417c.01.38-.144.748-.423 1.005a1.477 1.477 0 01-1.063.392 1.683 1.683 0 01-.866-.23 1.641 1.641 0 01-.578-.528l.578-.52c.035.054.074.105.118.151.197.217.477.34.769.337a.682.682 0 00.488-.166.564.564 0 00.179-.455c0-.224-.142-.378-.422-.46-.557-.17-.866-.266-.898-.29a1.549 1.549 0 01-.558-.432 1.258 1.258 0 01-.193-.738 1.24 1.24 0 01.413-.952 1.4 1.4 0 01.985-.378c.279-.003.554.066.8.198.21.1.39.251.526.441l-.509.538a1.591 1.591 0 00-.24-.204.959.959 0 00-.56-.212.707.707 0 00-.421.116.49.49 0 00-.197.418.43.43 0 00.19.395c.224.111.463.188.708.23.322.065.618.224.85.458.227.236.345.558.323.886zm-3.739 1.342l-.82.122v-3.035a.873.873 0 00-.182-.61.728.728 0 00-.546-.191.721.721 0 00-.653.363 1.02 1.02 0 00-.153.52v2.825l-.817.154v-3.04a.926.926 0 00-.18-.613.608.608 0 00-.487-.21h-.079a.65.65 0 00-.623.37c-.106.22-.157.462-.148.705v2.634l-.849.154v-4.449l.765-.133v.58a1.72 1.72 0 01.249-.316c.203-.204.479-.317.765-.314.492-.073.967.212 1.136.683a1.334 1.334 0 011.207-.703c.43-.033.847.148 1.118.485.216.347.317.753.289 1.161zm-6.097-4.478l-.387.903a1.056 1.056 0 00-.153 0c-.08 0-.159.006-.237.018a.989.989 0 00-.258.09.996.996 0 00-.444.49 1.985 1.985 0 00-.214.91v2.072l-.82.134v-4.44l.76-.14v.924c.095-.16.199-.32.288-.485a1.22 1.22 0 01.488-.354c.177-.056.36-.088.546-.096.143-.021.287-.03.43-.026zm-3.695 4.478l-.82.116v-4.417l.82-.128zm.165-5.488l-.549.705-.526-.705.555-.7zm-1.84.464h-2.29v1.595h1.779v.815h-1.78v2.614l-.892.133v-5.979h3.007zm-5.04 2.88c.01-.42-.15-.828-.446-1.126a1.378 1.378 0 00-1.02-.465 1.322 1.322 0 00-1.033.442 1.512 1.512 0 00-.376 1.025c-.015.408.122.808.384 1.12.245.287.604.448.98.439.384.003.755-.143 1.037-.407.3-.255.473-.631.47-1.027zm.721 2.144l-.77.122v-.758l-.165.192c-.146.136-.31.252-.489.342a1.94 1.94 0 01-.837.186 2 2 0 01-1.528-.677 2.294 2.294 0 01-.621-1.608c-.012-.61.208-1.2.615-1.652a1.95 1.95 0 011.51-.689 2.17 2.17 0 01.893.172c.17.079.326.19.457.325.043.058.086.122.13.177v-1.984l.817-.122zm-5.756-2.187a1.499 1.499 0 00-.422-1.083 1.365 1.365 0 00-1.043-.444 1.29 1.29 0 00-.997.459 1.516 1.516 0 00-.41 1.048c-.005.393.144.774.416 1.057.266.29.642.452 1.034.444.379.003.74-.157.994-.438.278-.275.431-.652.425-1.043zm.837 0a2.28 2.28 0 01-.658 1.635 2.219 2.219 0 01-3.21 0 2.236 2.236 0 01-.67-1.643 2.37 2.37 0 01.641-1.653c.396-.453.97-.71 1.569-.7a2.223 2.223 0 011.675.674c.436.445.67 1.05.65 1.673zm-6.152 0a1.511 1.511 0 00-.422-1.083 1.37 1.37 0 00-1.046-.444 1.287 1.287 0 00-.993.459 1.516 1.516 0 00-.41 1.048c-.006.393.143.774.415 1.057.265.29.64.451 1.032.444.379.003.741-.156.996-.438.275-.276.428-.652.425-1.043zm.837 0a2.27 2.27 0 01-.661 1.635 2.213 2.213 0 01-3.207 0 2.227 2.227 0 01-.673-1.643 2.37 2.37 0 01.642-1.653 2.04 2.04 0 011.571-.7 2.225 2.225 0 011.675.674c.436.445.67 1.05.65 1.673zm-5.39 1.592a5.654 5.654 0 01-.318.209c-.238.15-.487.282-.745.395a2.393 2.393 0 01-.904.209 3.22 3.22 0 01-2.31-.872 2.856 2.856 0 01-.925-2.18c-.012-.814.286-1.6.832-2.201a2.592 2.592 0 012.022-.93 3.33 3.33 0 011.051.18c.433.133.829.365 1.156.68l-.532.598a2.037 2.037 0 00-.866-.49 2.998 2.998 0 00-.85-.114 1.755 1.755 0 00-1.4.68 2.505 2.505 0 00-.561 1.634 2.077 2.077 0 00.641 1.56 2.25 2.25 0 001.632.62 1.63 1.63 0 00.84-.257c.24-.186.362-.273.368-.29v-1.304h-1.783l.258-.814h2.368zm22.124-19.029v5.061c-.032 3.467-3.418 3.987-3.418 3.987h-5.592v-3.987h4.704a.443.443 0 00.423-.462v-.92h-5.127v-3.066c0-.692.777-.613.777-.613zm-.292-1.118h-9.053a.949.949 0 00-.768.926v9.255h-3.836v-10.164s.075-2.996 3.683-3.868h9.974zm4.636 49.452a.72.72 0 00.168-.48v-.31a.726.726 0 00-.168-.48.598.598 0 00-.826 0 .725.725 0 00-.168.48v.302a.719.719 0 00.168.479.6.6 0 00.826 0zm-1.103.22a.994.994 0 01-.26-.68v-.35a.988.988 0 01.263-.677 1.052 1.052 0 011.375 0 .977.977 0 01.262.677v.351a.994.994 0 01-.257.68.922.922 0 01-.693.252.91.91 0 01-.682-.253zm-2.248 0a.974.974 0 01-.257-.697v-.328a.974.974 0 01.257-.694.916.916 0 01.682-.25c.17-.005.34.03.494.105a.76.76 0 01.303.261c.062.093.099.2.107.311a.076.076 0 01-.026.067.091.091 0 01-.066.029h-.18a.097.097 0 01-.063-.018.342.342 0 01-.04-.07.548.548 0 00-.203-.29.572.572 0 00-.323-.084.531.531 0 00-.407.16.734.734 0 00-.165.488v.29a.723.723 0 00.165.488c.107.11.255.167.407.16a.573.573 0 00.326-.085.561.561 0 00.2-.29.246.246 0 01.04-.067.1.1 0 01.064-.017h.179c.024 0 .048.01.066.026a.079.079 0 01.026.066.637.637 0 01-.107.308.786.786 0 01-.303.265c-.154.074-.323.11-.494.104a.91.91 0 01-.682-.232zm-1.19.18a.094.094 0 01-.026-.067v-.29c0-.026.01-.05.026-.07a.086.086 0 01.067-.029h.289c.025 0 .05.01.066.03a.102.102 0 01.026.069v.29a.09.09 0 01-.087.093h-.294a.094.094 0 01-.067-.02zm-1.82-.026a.799.799 0 01-.288-.21.354.354 0 01-.096-.197.08.08 0 01.03-.064.111.111 0 01.063-.023h.17a.065.065 0 01.038 0c.015.01.03.023.04.038a.73.73 0 00.211.18.626.626 0 00.312.067.658.658 0 00.352-.084.268.268 0 00.133-.238.233.233 0 00-.057-.163.481.481 0 00-.191-.11 2.666 2.666 0 00-.393-.108 1.014 1.014 0 01-.503-.226.52.52 0 01-.147-.38.553.553 0 01.09-.291.64.64 0 01.268-.23.91.91 0 01.422-.09c.15-.004.301.026.439.088a.777.777 0 01.274.2.35.35 0 01.093.195.089.089 0 01-.029.06.097.097 0 01-.064.024h-.153a.093.093 0 01-.083-.044 1.663 1.663 0 00-.116-.122.37.37 0 00-.136-.072.64.64 0 00-.225-.032.493.493 0 00-.306.084.273.273 0 00-.06.369c.045.05.104.089.17.11.122.045.247.08.375.105.2.028.39.11.549.235.108.1.167.241.162.389a.542.542 0 01-.099.32.678.678 0 01-.288.226c-.15.058-.31.086-.471.081a1.053 1.053 0 01-.486-.078zm-3.85.026a.094.094 0 01-.026-.067v-1.945a.088.088 0 01.026-.067.084.084 0 01.066-.03h.174a.076.076 0 01.063.03.088.088 0 01.026.067v.14a.727.727 0 01.595-.277.661.661 0 01.639.378.7.7 0 01.289-.273.803.803 0 01.407-.105.716.716 0 01.546.23c.153.186.23.424.214.665v1.187a.1.1 0 01-.026.067.092.092 0 01-.07.026h-.173a.091.091 0 01-.07-.026.094.094 0 01-.025-.067v-1.16a.66.66 0 00-.136-.471.473.473 0 00-.355-.143.444.444 0 00-.335.148.637.637 0 00-.142.465v1.161a.09.09 0 01-.087.093h-.185a.092.092 0 01-.069-.026.094.094 0 01-.026-.067v-1.16a.647.647 0 00-.141-.469.471.471 0 00-.35-.145.452.452 0 00-.335.145.639.639 0 00-.142.465v1.162a.09.09 0 01-.086.093h-.188a.092.092 0 01-.066-.027zm-1.534 0a.094.094 0 01-.026-.067v-1.942c0-.026.01-.05.026-.07a.096.096 0 01.067-.03h.173a.088.088 0 01.07.03.093.093 0 01.025.07v.18a.615.615 0 01.578-.29h.159a.094.094 0 01.07.026.084.084 0 01.022.07v.15a.09.09 0 01-.083.096h-.252a.475.475 0 00-.352.13.494.494 0 00-.127.358v1.21c0 .026-.011.05-.03.068a.104.104 0 01-.068.026h-.185a.09.09 0 01-.067-.009zm-2.004 0a.094.094 0 01-.027-.067v-1.724h-.352a.105.105 0 01-.066-.024.094.094 0 01-.026-.067v-.13a.087.087 0 01.026-.067.084.084 0 01.066-.03h.352v-.202a.744.744 0 01.162-.517.672.672 0 01.529-.183h.612c.025 0 .048.01.064.029a.092.092 0 01.026.066v.131a.086.086 0 01-.026.067.088.088 0 01-.064.023h-.603a.315.315 0 00-.263.099.517.517 0 00-.072.305v.183h.938a.076.076 0 01.064.029.087.087 0 01.026.067v1.945c0 .025-.009.05-.026.067a.082.082 0 01-.064.026h-.176a.09.09 0 01-.092-.093v-1.724h-.665v1.724a.085.085 0 01-.029.067.085.085 0 01-.066.026h-.176a.094.094 0 01-.072-.02zm-1.381-.444a.775.775 0 00.153-.453v-.317a.692.692 0 00-.156-.432.519.519 0 00-.428-.183.499.499 0 00-.427.186.876.876 0 00-.147.485v.119c0 .525.193.786.577.786a.504.504 0 00.428-.185zm-1.156.232a1.218 1.218 0 01-.23-.705v-.247a1.2 1.2 0 01.233-.703.754.754 0 01.642-.29.78.78 0 01.658.29v-.95c0-.025.011-.049.029-.066a.092.092 0 01.066-.027h.185a.09.09 0 01.093.087v2.733a.09.09 0 01-.087.093h-.182a.085.085 0 01-.066-.026.106.106 0 01-.023-.067v-.177a.797.797 0 01-.673.31.76.76 0 01-.639-.25zm-1.193-.194a.72.72 0 00.168-.48v-.31a.725.725 0 00-.168-.48.598.598 0 00-.826 0 .725.725 0 00-.167.48v.308a.72.72 0 00.167.479.6.6 0 00.826 0zm-1.106.22a1.006 1.006 0 01-.257-.68v-.35a.988.988 0 01.263-.677c.396-.34.98-.34 1.375 0a.99.99 0 01.263.677v.351c.002.25-.09.493-.257.68a1.079 1.079 0 01-1.387 0zm-1.227-.22a.703.703 0 00.164-.48v-.31a.707.707 0 00-.165-.48.534.534 0 00-.413-.165.54.54 0 00-.416.166.736.736 0 00-.164.479v.308a.73.73 0 00.164.479.54.54 0 00.416.165.533.533 0 00.42-.156zm-1.364-.46v-.35a.977.977 0 01.263-.677c.396-.34.98-.34 1.375 0a.99.99 0 01.263.677v.351c0 .251-.092.494-.26.68-.4.336-.984.336-1.384 0a.995.995 0 01-.257-.68zm-1.057.407a.771.771 0 00.159-.45v-.284a.761.761 0 00-.16-.447.51.51 0 00-.43-.19.48.48 0 00-.424.19.873.873 0 00-.147.482v.217c0 .172.052.34.147.482.1.131.26.202.424.186a.508.508 0 00.437-.18zm-.965 1.272a.733.733 0 01-.289-.26.54.54 0 01-.08-.256c0-.024.01-.047.025-.064a.1.1 0 01.067-.027h.179a.08.08 0 01.06.02.14.14 0 01.044.067c.074.218.29.355.517.329a.669.669 0 00.453-.131.603.603 0 00.148-.465v-.29a.795.795 0 01-.662.29.764.764 0 01-.647-.29 1.166 1.166 0 01-.228-.706v-.226c-.002-.253.078-.5.228-.703a.759.759 0 01.647-.29.794.794 0 01.67.316v-.177c0-.025.01-.05.026-.07a.096.096 0 01.067-.029h.176c.025 0 .049.011.066.03s.027.044.026.069v2.033c0 .63-.314.946-.95.946-.185.01-.37-.028-.537-.11zm1.971-14.48a.617.617 0 01-.616.617h-.526l-.003-1.236h.53c.34 0 .616.277.615.62zm7.596-5.379c0 .73-.364 1.19-.93 1.19-.566 0-.93-.46-.93-1.19 0-.717.364-1.193.93-1.193.566 0 .93.464.93 1.193zm-10.667 5.924c0 .729-.359 1.19-.928 1.19-.569 0-.93-.461-.93-1.19 0-.73.364-1.19.93-1.19.566 0 .928.46.928 1.19zm2.212-5.851h-.525v-1.237h.527c.34 0 .615.278.614.62a.617.617 0 01-.616.617zm-17.38 5.84c0 .751-.353 1.146-1 1.146h-.523l-.005-2.259h.522c.639 0 1.006.36 1.006 1.112zm41.875-5.974h-.635l.008-1.11h.627a.534.534 0 01.578.555.52.52 0 01-.578.554zm-28.819.061c0-.717.364-1.193.93-1.193.566 0 .93.464.93 1.193 0 .73-.364 1.19-.93 1.19-.566 0-.93-.46-.93-1.19zm25.93.352h-.903l.441-1.426h.018zm4.686 1.387h2.29l.01-.615h-1.57v-.871h1.48v-.558h-1.488v-.839h1.568v-.601h-2.29zm-3.157 0h.725l.02-1.271h.578l.652 1.266h.82l-.727-1.382a1.02 1.02 0 00.627-.988c0-.688-.454-1.11-1.251-1.11h-1.444zm-2.407-3.484l-1.201 3.484h.742l.266-.844h1.216l.251.844h.769l-1.202-3.484zm-11.068 3.484h.725v-1.37h1.406v-.58h-1.407v-.933h1.543v-.601h-2.267zm-4.862-.958c0 .256-.266.442-.65.442s-.682-.183-.713-.474h-.682c.02.654.526 1.052 1.384 1.052.857 0 1.403-.427 1.403-1.104 0-.529-.303-.827-.996-.978l-.419-.09c-.41-.09-.578-.212-.578-.424 0-.259.246-.43.598-.43.353 0 .618.183.642.473h.678c-.011-.63-.548-1.048-1.323-1.048-.774 0-1.323.424-1.323 1.066 0 .507.312.833.95.972l.451.099c.413.093.578.189.578.445zm-9.859-.781c0 1.107.642 1.8 1.667 1.8 1.026 0 1.67-.693 1.67-1.8 0-1.106-.644-1.8-1.67-1.8-1.025 0-1.667.694-1.667 1.8zm-2.85-1.138h1.01v2.877h.74v-2.877h1v-.601h-2.75zm-8.733 7.047c0-1.103-.61-1.724-1.649-1.724l-1.337-.018v3.485h1.337c1.04 0 1.65-.64 1.65-1.743zm2.753-1.73h-2.293v3.484h2.293v-.595h-1.568v-.87h1.479v-.559h-1.48v-.839h1.57zm3.51 0h-.789l-.791 2.73h-.018l-.791-2.73h-.812l1.156 3.484h.89zm2.634 0h-2.29v3.484h2.29v-.595h-1.568v-.87h1.481v-.559h-1.481v-.839h1.568zm2.762 2.875h-1.514v-2.875h-.725v3.484h2.239zm3.515-1.13c0-1.106-.644-1.8-1.67-1.8-1.025 0-1.67.694-1.67 1.8s.648 1.8 1.67 1.8c1.023 0 1.67-.694 1.67-1.8zm.22-4.185h.725v-1.097h.681a1.159 1.159 0 001.236-1.19 1.135 1.135 0 00-1.199-1.19l-1.444-.007zm2.888 3.642a1.132 1.132 0 00-1.202-1.196h-1.438v3.484h.722v-1.098h.685c.036.003.073.004.11.003a1.159 1.159 0 001.123-1.193zm4.09 2.282l-.006-3.484h-.84l-.982 2.465h-.02l-.983-2.465h-.84v3.484h.644v-2.349h.02l.939 2.323h.462l.942-2.323h.017v2.35zm2.866-3.484h-2.291v3.484h2.29v-.595h-1.568v-.87h1.482v-.559h-1.482v-.839h1.569zm.6-4.179c0-1.106-.644-1.8-1.67-1.8-1.025 0-1.666.694-1.666 1.8 0 1.107.641 1.8 1.667 1.8 1.025 0 1.67-.693 1.67-1.8zm2.843 4.179h-.673v2.265h-.02l-1.618-2.265h-.61v3.484h.702v-2.276h.023l1.618 2.276h.578zm.144-5.317h1.011v2.877h.72v-2.877h1.013v-.601h-2.744zm3.033 5.337h-2.761v.601h1.01v2.863l.737.015v-2.878h1.014zm.85-2.46h.681l.664-2.377h.02l.656 2.377h.685l.919-3.484h-.751l-.546 2.518h-.026l-.647-2.518h-.613l-.647 2.518h-.017l-.546-2.518h-.751zm3.648 4.716h-.705a.783.783 0 01-.818.665c-.554 0-.9-.464-.9-1.2 0-.734.352-1.192.898-1.192a.804.804 0 01.817.705h.705c-.055-.778-.69-1.31-1.522-1.31-1.003 0-1.635.68-1.635 1.801 0 1.12.63 1.8 1.635 1.8.849 0 1.44-.494 1.525-1.269zm3.674-.53c0-1.107-.644-1.802-1.67-1.802-1.025 0-1.666.695-1.666 1.801 0 1.106.64 1.8 1.666 1.8 1.026 0 1.67-.694 1.67-1.8zm4.128-1.746h-.838l-.982 2.465h-.02l-.982-2.465h-.841v3.484h.644v-2.349h.02l.94 2.323h.455l.942-2.323h.017v2.35h.645zm3.218 1.196a1.131 1.131 0 00-1.199-1.19l-1.442-.006v3.484h.722v-1.097h.685a1.159 1.159 0 001.233-1.19zm3.14 2.303l-1.205-3.485h-.85l-1.201 3.485h.742l.263-.845h1.213l.266.845zm3.295-3.5h-.705v2.266h-.017l-1.618-2.265h-.603v3.484l.693-.005v-2.277h.02l1.632 2.282h.598zm3.467.01h-.766l-.777 1.483h-.017l-.774-1.486h-.789l1.204 2.177v1.301l.711.003v-1.3zm-8.398.676l.442 1.426h-.904l.445-1.426zm-2.28.515a.617.617 0 01-.617.617h-.526l-.002-1.236h.53c.34 0 .615.277.614.62zm-7.31.545c0 .729-.364 1.19-.93 1.19-.566 0-.93-.461-.93-1.19 0-.73.364-1.19.93-1.19.566 0 .93.46.93 1.19z"/></defs><use fill="#fff" xlink:href="#a" transform="translate(-1043 -6258)"/></svg>