<svg xmlns="http://www.w3.org/2000/svg" xmlns:xlink="http://www.w3.org/1999/xlink" width="73" height="80"><defs><path id="a" d="M1361.447 6337.986c-.903-.497-1.793-.994-2.695-1.492-7.887-4.326-15.787-8.639-23.674-12.966-3.28-1.8-6.573-3.6-9.852-5.4-.067-.042-.146-.068-.226-.095v-40.094c.292-.148.598-.296.89-.457 6.904-3.775 13.808-7.565 20.713-11.34 4.899-2.687 9.812-5.375 14.711-8.049.053-.026.093-.067.146-.093h.093c.903.496 1.793.994 2.695 1.49 7.887 4.327 15.787 8.64 23.674 12.967 3.28 1.8 6.573 3.6 9.852 5.401.067.04.146.068.226.094v40.094c-.452.242-.916.47-1.368.726-9.201 5.038-18.402 10.077-27.604 15.102-2.43 1.33-4.873 2.661-7.302 4.004-.067.041-.12.081-.186.121-.027-.013-.053-.013-.093-.013zM1325.584 6298v19.376c0 .188.053.295.226.376 3.917 2.136 7.82 4.273 11.724 6.422 7.927 4.34 15.853 8.68 23.767 13.02.146.08.252.08.398 0 4.116-2.257 8.245-4.528 12.375-6.785 7.7-4.22 15.402-8.425 23.103-12.644.172-.094.239-.188.239-.403v-38.737c0-.188-.053-.296-.226-.376a1504.22 1504.22 0 01-7.993-4.38c-9.162-5.026-18.336-10.037-27.498-15.063-.146-.08-.252-.08-.398 0a8537.81 8537.81 0 01-15.402 8.438c-6.692 3.669-13.384 7.337-20.076 10.991-.186.108-.239.215-.239.417V6298zm1.394 10.992c0-.068-.013-.135-.013-.202v-21.593c0-.067 0-.134.013-.2h-.013c0-.78 0-1.573-.013-2.352 0-1.707 0-3.413-.013-5.12 0-.228.08-.335.265-.43 2.709-1.464 5.404-2.929 8.1-4.393 7.66-4.152 15.308-8.29 22.943-12.442 1.01-.551 2.031-1.102 3.04-1.653.16-.08.266-.08.425 0 6.891 3.748 13.782 7.484 20.66 11.22 4.448 2.404 8.883 4.823 13.33 7.228.24.12.333.256.333.55-.014 2.366-.014 4.73-.014 7.095a1.15 1.15 0 010 .31h.014c0 .066.013.134.013.201v21.592c0 .068 0 .135-.013.202h-3.147v6.14c0 .134 0 .228-.146.31a1576.73 1576.73 0 00-6.652 3.694c-1.633.9-3.266 1.814-4.913 2.714a1848.422 1848.422 0 00-7.13 3.964c-2.35 1.304-4.713 2.62-7.063 3.923-1.727.954-3.453 1.922-5.179 2.89-.186.093-.305.04-.451-.041-1.089-.605-2.191-1.223-3.28-1.828l-5.536-3.063-7.967-4.434c-1.992-1.102-3.996-2.204-5.988-3.319-2.682-1.491-5.35-2.983-8.033-4.46-.16-.095-.212-.189-.212-.363.013-1.935 0-3.883 0-5.818v-.31c-1.169-.013-2.258-.013-3.36-.013zm3.346-21.996v-6.14c0-.135 0-.23.146-.31 2.218-1.222 4.435-2.458 6.652-3.695a381.58 381.58 0 001.517-.839l-1.53.84c-2.217 1.236-4.435 2.459-6.652 3.695-.146.08-.146.174-.146.309v6.139h.013zm11.711-12.859c2.377-1.317 4.753-2.633 7.13-3.964 2.35-1.303 4.714-2.62 7.064-3.923a941.783 941.783 0 005.178-2.889.415.415 0 01.177-.05.368.368 0 00-.19.05c-1.726.968-3.452 1.922-5.178 2.889-2.35 1.304-4.714 2.62-7.064 3.923-2.377 1.317-4.754 2.647-7.13 3.964l-.767.428.78-.428zm50.441 32.866h-61.767v7.846c0 .188.053.282.226.376 10.157 5.63 20.315 11.26 30.472 16.903.146.08.252.08.398 0a35103.61 35103.61 0 0130.486-16.917c.146-.08.199-.174.199-.336v-7.416c-.014-.135-.014-.283-.014-.457zm-.013-18.018c0-.027.013-.054.013-.081v-7.9c0-.068-.08-.175-.146-.215-.332-.202-.677-.377-1.009-.565-9.838-5.455-19.677-10.924-29.516-16.38-.159-.08-.265-.08-.425 0-1.62.901-3.24 1.801-4.846 2.702-8.55 4.743-17.088 9.486-25.639 14.216-.146.08-.186.16-.186.322v7.901h61.754zm-41.532 7.148c.372-.35.717-.686 1.089-1.035a1.588 1.588 0 01-.213-.215c-1.54-1.505-3.97-1.84-5.815-.753-1.5.874-2.23 2.245-2.257 3.978-.027 1.464.49 2.727 1.633 3.655 1.168.967 2.536 1.209 3.996.953a4.61 4.61 0 002.616-1.437 80.4 80.4 0 00-.983-1.129c-1.66 1.8-4.063 1.277-5.005.108-.996-1.236-.93-3.252.172-4.394 1.09-1.128 3.293-1.303 4.767.269zm28.321 6.462c0-1.29.04-2.566-.013-3.842-.04-1.035-.492-1.868-1.5-2.244-.904-.336-1.793-.282-2.643.174l-.186.094v-3.56h-1.566v9.378h1.566v-3.103c0-1.089.465-1.6 1.527-1.72.558-.054.983.228 1.142.766.053.161.08.336.08.51.013 1.089.013 2.177.013 3.279v.268h1.58zm-17.566 0v-6.18h-1.567v3.225c0 1.06-.491 1.612-1.54 1.72-.757.08-1.248-.283-1.381-1.048a3.487 3.487 0 01-.04-.525v-3.372h-1.38c0 1.303-.04 2.593.013 3.883.04 1.008.464 1.84 1.407 2.284.93.43 1.859.35 2.749-.148l.159-.08c.013.08.013.161.026.228.518.013 1.023.013 1.554.013zm11.02-5.307c-1.128-1.061-2.43-1.343-3.864-.927-2.35.685-3.093 3.682-1.354 5.429.943.94 2.111 1.155 3.373.926.717-.134 1.327-.483 1.858-1.02-.385-.35-.743-.7-1.115-1.035-.558.55-1.208.766-1.952.645-.77-.121-1.407-.74-1.527-1.492-.12-.846.24-1.612.983-1.935.783-.335 1.554-.282 2.257.256.08.067.16.134.266.214.358-.376.703-.711 1.075-1.06zm-7.648 5.294v-5.011h1.156v-1.196h-1.169v-2.177h-1.78v2.19h-.968v1.209h.982v4.985h1.78zm-10.675.013v-9.378h-1.74v9.378h1.74zm15.601-1.988c.65 0 1.169-.484 1.182-1.088.013-.618-.518-1.129-1.168-1.129-.651 0-1.182.484-1.195 1.102 0 .618.517 1.115 1.181 1.115zm17.792 8.465c-.053.04-.093.094-.16.12-.052.014-.119 0-.172 0h-51.982c-.04-.133-.04-.214.133-.2h52.115a.343.343 0 01.066.08zm-37.097 4.058c.132 0 .265.013.398 0 .146-.014.213.04.292.175.452.805.903 1.625 1.381 2.485v-2.633h.438v3.305c-.172 0-.345.013-.518-.014-.053-.013-.12-.094-.159-.16-.425-.753-.85-1.52-1.275-2.272a1.354 1.354 0 00-.12-.188v2.62h-.437v-3.318zm22.12 3.318c-.16 0-.319.014-.478-.013-.08-.013-.16-.094-.212-.161-.412-.739-.824-1.478-1.235-2.204a3.382 3.382 0 01-.146-.269v2.634h-.438v-3.305c.146 0 .265.013.398 0 .146-.014.212.054.292.175.398.738.823 1.478 1.235 2.216.04.068.08.135.146.256v-2.62h.438v3.291zm-23.262-1.68c-.027.243-.04.484-.08.713-.133.672-.584 1.021-1.274 1.035-.757 0-1.182-.296-1.288-1.008a4.649 4.649 0 010-1.357c.12-.793.637-1.129 1.447-1.075.704.054 1.089.457 1.168 1.236.014.162 0 .309 0 .47.014-.013.014-.013.027-.013zm-.478.028c-.027-.255-.04-.51-.093-.753-.08-.403-.332-.577-.77-.59-.425-.014-.757.187-.797.577a7.129 7.129 0 00-.013 1.505c.04.417.305.59.743.605.439.013.744-.188.837-.578.053-.256.066-.524.093-.766zm11.764 7.981c-.053.336-.08.685-.16 1.021-.132.497-.49.739-.982.726-.505-.013-.81-.242-.93-.753-.159-.671-.159-1.357.054-2.015.159-.484.49-.686.995-.672.478.013.784.242.903.726.053.295.067.631.12.967zm-.478 0h-.053v-.524c0-.094-.027-.202-.053-.296-.08-.322-.24-.47-.505-.483-.279-.014-.478.134-.558.47a3.88 3.88 0 00-.013 1.746c.067.296.24.43.491.43.266 0 .465-.12.531-.416.093-.309.12-.618.16-.927zm6.267-6.342c.199-.591.385-1.169.584-1.733.146-.444.305-.874.438-1.317.053-.174.133-.269.319-.242.106.014.212 0 .332 0 .371 1.102.73 2.19 1.102 3.32-.146 0-.279.012-.399 0a.261.261 0 01-.146-.122c-.066-.175-.132-.336-.172-.524-.04-.148-.106-.175-.24-.175-.305.014-.61.014-.915 0-.133 0-.2.04-.226.162a1.17 1.17 0 01-.093.282c-.12.39-.12.39-.584.35zm1.38-2.808c-.185.564-.345 1.075-.517 1.599h1.035c-.172-.524-.331-1.035-.517-1.6zm-1.46 9.244a1.029 1.029 0 01-.81.282c-.637-.04-.956-.497-.863-1.222.067-.538.399-.847.943-.86.637-.027 1.022.228 1.089.82a6.308 6.308 0 01-.027 1.732c-.146.888-1.288 1.196-1.965.565.066-.094.133-.202.173-.242.305.054.57.134.836.148.306.013.452-.121.505-.43.08-.255.093-.524.12-.793zm-.053-.766c0-.456-.239-.672-.677-.631-.372.04-.531.309-.478.792.053.484.411.686.85.47.239-.134.318-.362.305-.63zm-9.068-8.962h.438v1.854c0 .229.013.444.04.672.026.215.146.377.345.39.239.027.491.04.73 0 .279-.054.385-.255.385-.632v-2.284h.451v1.25c0 .349.014.698 0 1.048-.026.59-.292.94-.85 1.034-.252.04-.517.04-.756 0-.505-.08-.77-.39-.797-.927 0-.806.014-1.585.014-2.405zm19.49 3.05c.094-.134.16-.228.24-.35.279.216.597.283.93.256.212-.013.384-.094.45-.322.067-.242.027-.457-.198-.592-.213-.12-.452-.201-.664-.322-.186-.107-.399-.215-.545-.376-.279-.323-.212-.847.093-1.129.425-.376 1.262-.376 1.7.014-.067.107-.133.201-.16.255-.331-.054-.61-.108-.902-.121-.2-.013-.359.08-.412.295-.053.215-.027.417.173.525.239.134.504.242.756.363.293.134.531.322.611.658.12.47-.106.927-.557 1.088-.518.148-1.036.107-1.514-.242zm-20.659-2.835c-.066.108-.133.202-.173.269-.305-.054-.584-.108-.85-.134-.225-.027-.398.093-.45.335-.054.229.026.417.238.524.252.135.531.229.784.363.318.161.544.39.557.78.027.43-.159.779-.557.913-.545.188-1.063.148-1.554-.215.08-.12.16-.215.186-.268.332.067.637.147.943.174.239.027.438-.08.504-.35.067-.241-.013-.456-.252-.59-.252-.148-.544-.242-.797-.376-.305-.148-.504-.39-.517-.753-.014-.403.159-.658.504-.833.412-.202 1.022-.148 1.434.161zm-.358 8.385a15.33 15.33 0 00-.28-.242c.36-.484 1.421-.565 1.82-.148.305.322.292.967-.053 1.29-.306.282-.65.51-.97.766-.185.147-.345.335-.332.618h1.554v.403h-2.018c-.093-.565.053-1.021.53-1.344.213-.148.439-.295.638-.457.12-.094.24-.202.319-.336.239-.416.013-.792-.452-.806-.292-.013-.544.04-.756.256zm-10.25-6.007l.252.256c-.346.456-.797.564-1.315.51-.451-.054-.743-.309-.876-.739a3.267 3.267 0 010-1.92c.279-.848 1.527-1.076 2.124-.377-.08.094-.16.174-.186.214-.318-.067-.584-.174-.85-.187-.358-.027-.61.16-.65.537-.053.47-.08.967-.027 1.438.067.59.571.82 1.102.55.147-.066.266-.174.425-.282zm16.105 6.06c.916-.685.93-.699 1.434-.631v2.888h.664v.404h-1.925v-.377h.796v-2.445c-.239.175-.478.322-.73.497-.08-.12-.16-.228-.24-.336zm4.289-8.64v.39h-.996v2.902h-.452v-2.888h-1.009v-.403h2.457zm-4.94-.013h.438v2.889h1.381v.403h-1.819v-3.292zm13.676.403h-1.009v-.39h2.443v.39h-.982v2.902h-.439c-.013-.967-.013-1.921-.013-2.902zm13.012-26.47c-.053.041-.093.094-.16.121-.052.014-.119 0-.172 0h-51.982c-.04-.134-.04-.215.133-.2h52.115c.026.026.053.052.066.08zm-43.364-4.03v-3.292c.478 0 .956-.027 1.434.013.345.027.557.228.624.538.08.376-.027.712-.306.913-.04.027-.08.054-.146.094.385.135.545.417.545.793 0 .537-.306.9-.85.94-.425.028-.85 0-1.301 0zm.464-.39c.28 0 .532.013.784 0 .279-.027.411-.215.411-.551 0-.322-.106-.497-.398-.524-.252-.027-.518 0-.783 0-.014.35-.014.699-.014 1.075zm.014-2.513v1.035c.252-.014.478-.014.703-.04.293-.04.439-.282.412-.605-.026-.296-.146-.39-.478-.39h-.637zm11.206-.403c.438 0 .863-.013 1.288 0 .398.014.677.215.757.524a.867.867 0 01-.359.981c-.026.013-.053.04-.08.054.452.215.598.497.505 1.035a.821.821 0 01-.81.698c-.425.027-.85 0-1.3 0v-3.292zm.438 1.814v1.102c.066 0 .12.013.173.013.199 0 .398 0 .584-.027.305-.04.451-.228.438-.577 0-.323-.146-.484-.451-.51-.24-.014-.478 0-.744 0zm0-.363c.252-.013.505-.013.744-.053.292-.054.425-.296.385-.632-.04-.282-.146-.363-.478-.363h-.65v1.048zm6.015-7.806c-.013.16 0 .336-.027.497-.106.9-.65 1.33-1.54 1.25-.624-.067-1.009-.39-1.089-1.062-.053-.47-.04-.967.04-1.438.106-.658.611-.98 1.355-.954.677.014 1.075.35 1.195 1.008.053.228.053.457.066.699.013 0 0 0 0 0zm-.465.013c-.026-.255-.04-.497-.08-.725-.08-.417-.345-.605-.783-.605-.438 0-.704.188-.797.591a3.388 3.388 0 00-.013 1.505c.08.403.332.578.77.592.438 0 .744-.202.824-.592.04-.268.04-.524.08-.766zm4.05 9.648v-3.266c.518 0 1.022-.04 1.527.014.491.04.81.376.85.86.04.497.053 1.008-.014 1.518-.066.511-.438.833-.942.874-.465.027-.93 0-1.421 0zm.451-.39c.266 0 .492.013.73 0 .439-.014.69-.242.73-.685a8.199 8.199 0 000-1.142c-.026-.376-.212-.605-.544-.645-.305-.04-.61-.014-.929-.014.013.833.013 1.64.013 2.486zm-3.213-2.634c-.093.121-.172.229-.265.336a1.244 1.244 0 00-.903-.268c-.412.026-.678.201-.717.605-.04.496-.014.994.013 1.49.013.256.2.417.438.484.345.081.677.054 1.022-.04v-.927h-.703v-.403h1.128v1.558c0 .041-.08.094-.132.108-.478.148-.97.188-1.46.067-.426-.107-.691-.39-.784-.82a3.59 3.59 0 01.026-1.68c.12-.442.399-.725.85-.805.518-.094 1.022-.067 1.487.295zm-10.41 2.406c.2.201.399.402.611.604-.358.08-.65.04-.836-.323-.306.31-.638.417-1.023.404-.371-.027-.69-.135-.85-.497-.159-.363-.092-.712.133-1.035.08-.108.173-.188.266-.282-.372-.578-.372-1.088 0-1.398.359-.295.996-.268 1.354.081-.08.094-.159.188-.199.229-.239-.04-.438-.108-.65-.108-.213 0-.346.148-.332.35.013.2.053.443.172.577.332.376.73.699 1.102 1.048.053-.201.106-.443.173-.699h.358c.053.363-.093.7-.278 1.049zm-.57.08c-.293-.322-.558-.618-.837-.914-.265.175-.372.404-.345.7.013.214.12.362.332.416.345.094.637.026.85-.202zm18.641-2.754c.359 1.088.73 2.177 1.089 3.278h-.505c-.066-.215-.132-.443-.225-.658-.027-.067-.12-.134-.186-.134-.372-.014-.744 0-1.115 0l-.28.806h-.49c.318-.927.623-1.84.929-2.741.013-.027.013-.068.026-.094.2-.51.2-.51.757-.457zm-.279.578c-.013 0-.04 0-.053.013-.16.497-.318.994-.491 1.505h1.036c-.16-.524-.332-1.021-.492-1.518zm7.741 2.714h-.504a19.045 19.045 0 01-.266-.806h-1.142c-.053 0-.146.067-.159.134-.08.215-.146.443-.226.672h-.491c.239-.712.478-1.425.717-2.123.12-.35.239-.686.345-1.035.08-.255.266-.12.412-.148.106-.013.212-.027.265.134.332 1.049.69 2.097 1.05 3.172zm-1.367-2.714h-.053c-.16.497-.32.994-.492 1.504h1.01c-.014-.053-.014-.094-.014-.134-.16-.457-.305-.913-.451-1.37zm-13.424-8.573c.465 0 .916-.027 1.368.014.517.04.783.43.77 1.034-.014.699-.332 1.008-1.023 1.035h-.664v1.209h-.438c-.013-1.102-.013-2.19-.013-3.292zm.451 1.626c.04.013.067.013.093.013.226 0 .439.014.664 0 .28-.013.399-.161.425-.47.04-.457-.066-.698-.332-.766-.013 0-.026-.013-.053-.013h-.81c.013.43.013.833.013 1.236zm-6.572-1.236h-1.01v-.39h2.444v.39h-.97v2.889h-.464v-2.89zm16.57 10.897h-.451v-2.889h-.996v-.403h2.443v.376h-.996v2.916zm-14.353 0h-.438v-3.292h.438v3.292zm-11.67-3.292v3.292h-.425v-3.292h.424z"/></defs><use fill="#fff" xlink:href="#a" transform="translate(-1325 -6258)"/></svg>