<svg xmlns="http://www.w3.org/2000/svg" xmlns:xlink="http://www.w3.org/1999/xlink" width="81" height="80"><defs><path id="a" d="M859 6266.71V6338h-71.064v-8.727h-9.912c-.008-.173-.023-.346-.023-.52v-25.501c0-.158.01-.315.016-.472-.006-.173-.016-.346-.016-.519v-18.654c0-.173.008-.346.012-.519-.004-.141-.012-.282-.013-.424V6258h71.254c-.016.107-.044.215-.044.323-.002 2.679-.002 5.359 0 8.038 0 .12.024.24.039.372.122.008.214.02.307.02 3.04.002 6.08.002 9.121 0 .108 0 .215-.028.323-.043zm-78.998 38.036l.001 21.91v.526h7.917v-.603l.001-16.42c0-.188.015-.377.023-.565-.101-.096-.192-.207-.305-.285-2.425-1.66-4.852-3.317-7.281-4.97-.11-.074-.248-.107-.373-.16.006.19.017.378.017.567zm7.919-15.232v-22.341c0-.124.013-.247.023-.415h59.2v-6.691h-67.14v.586l-.001 23.1c0 .188-.01.378-.015.567 1.265.876 2.528 1.754 3.795 2.626 1.256.863 2.515 1.721 3.776 2.578.112.076.247.12.37.179-.002-.063-.008-.126-.008-.189zm2.043.626h57.186v-21.329h-57.186v21.329zm-.004 37.055h57.203v-17.288H789.96v17.288zm.004 8.77h67.123v-26.058h-7.905v19.39h-59.218v6.668zm67.12-45.81v-21.349h-7.837v21.349h7.837zm-44.756 9.212l.106.022c0 .893.01 1.787-.005 2.679-.005.334.183.338.424.338s.43-.004.427-.337c-.012-1.276 0-2.553-.012-3.83 0-.119-.092-.331-.16-.34-.345-.042-.705-.144-.948.283-.34.595-.736 1.158-1.146 1.794-.425-.658-.826-1.238-1.184-1.845-.217-.367-.545-.296-.827-.231-.11.025-.216.335-.22.518-.02 1.119-.01 2.238-.01 3.357 0 .697.033.72.824.556v-2.935l.093-.031 1.319 1.965 1.319-1.963zm7.946-.04c.17.187.256.27.329.363.6.771 1.22 1.528 1.787 2.324.266.373.555.466.993.334.01-.136.029-.274.029-.412.002-1.198-.007-2.397.007-3.597.004-.32-.045-.486-.43-.487-.402-.001-.421.196-.417.5.012.81.004 1.62.004 2.577-.747-.962-1.422-1.789-2.046-2.653-.29-.4-.603-.5-1.047-.351v4.45h.79v-3.049zm-17.76.837c0 .615.008 1.23-.003 1.843-.005.272.075.404.374.4a93.215 93.215 0 012.644 0c.278.003.396-.087.396-.38-.001-.287-.108-.39-.391-.384-.598.013-1.197-.013-1.795.009-.481.017-.372-.316-.375-.58-.004-.27-.09-.593.384-.57.503.023 1.008-.007 1.511.008.299.009.377-.126.375-.399-.002-.261-.096-.37-.361-.363-.504.01-1.009-.018-1.511.008-.512.027-.387-.326-.4-.604-.015-.296-.037-.569.415-.544.58.032 1.165-.001 1.747.011.275.006.4-.078.398-.375-.002-.283-.099-.392-.386-.388a89.93 89.93 0 01-2.597 0c-.342-.004-.433.16-.428.466.01.614.003 1.228.003 1.842zm31.562-1.548c.093-.75.093-.75-.558-.75-.787-.001-1.574.005-2.361-.004-.254-.003-.371.074-.37.349.01 1.291.009 2.583.002 3.874-.002.255.113.322.344.32.913-.007 1.826-.01 2.74.002.292.004.33-.145.332-.382.002-.247-.059-.384-.342-.376-.503.013-1.007.003-1.51.003-.749 0-.734 0-.725-.752.003-.313.115-.417.416-.404.409.018.819.006 1.228.005.618-.001.647-.043.49-.751-.548 0-1.112-.029-1.672.008-.454.03-.474-.21-.46-.547.013-.316-.067-.636.452-.604.655.04 1.314.01 1.994.01zm-36.396 1.512c0 .646.01 1.293-.004 1.938-.007.33.192.337.431.34.248.002.436-.024.424-.348-.014-.393.006-.788-.005-1.181-.007-.257.084-.377.354-.37.457.011.914.015 1.37-.002.304-.01.376.135.368.403-.012.394.006.788-.004 1.182-.007.304.183.316.405.314.23-.002.446.015.445-.324-.008-1.292-.004-2.585-.005-3.877 0-.35-.246-.336-.493-.346-.27-.01-.36.112-.353.37.01.393.027.79-.014 1.18-.013.123-.195.317-.312.326-.47.039-.944.008-1.417.02-.279.006-.35-.133-.344-.38.01-.378-.004-.756.003-1.134.006-.331-.19-.378-.461-.384-.28-.005-.4.089-.393.382.014.63.004 1.26.005 1.89zm16.341 2.195c.733.168.818.15 1.038-.48.138-.398.35-.546.761-.509.359.032.726.035 1.084-.001.384-.04.556.122.692.465.273.687.292.679 1.04.557.003-.03.019-.066.008-.09-.607-1.4-1.207-2.801-1.84-4.188-.056-.123-.328-.213-.493-.203-.161.01-.39.13-.458.266-.326.662-.61 1.345-.904 2.023-.31.716-.616 1.433-.928 2.16zm21.148-1.008c-.436.426-.44.609.244.855.53.191 1.133.302 1.69.26.751-.057 1.157-.556 1.183-1.186.03-.73-.262-1.107-1.055-1.35-.346-.107-.716-.161-1.035-.32-.172-.086-.365-.349-.354-.52.01-.166.245-.36.427-.462.129-.072.344-.055.5-.008.326.1.64.243.959.37.496-.549.49-.716-.203-.924a4.019 4.019 0 00-1.518-.135c-.6.06-1.004.596-1.04 1.18-.039.601.247 1.034.864 1.256.384.138.784.233 1.174.354.3.093.564.31.446.609-.08.202-.424.444-.625.424-.527-.054-1.04-.242-1.657-.403zm-7.781-1.47c0-.323.02-.56-.005-.792-.04-.37.127-.456.465-.443.566.024 1.134-.002 1.7.01.267.006.409-.055.402-.363-.006-.27-.07-.402-.372-.397-.897.014-1.794.01-2.692.002-.238-.001-.34.083-.338.33.007 1.292.01 2.584-.002 3.875-.004.333.18.34.422.34.24 0 .441-.004.423-.339-.018-.345.013-.693-.008-1.038-.02-.322.083-.457.424-.44.47.024.944-.002 1.416.009.27.006.446-.024.445-.372-.001-.33-.14-.395-.428-.387-.594.015-1.189.004-1.852.004zm12.8.666c0 .504.016 1.009-.005 1.512-.014.333.144.388.428.388.284 0 .435-.056.427-.388-.02-.787-.006-1.575-.006-2.363 0-.999 0-.999 1.016-1.034.015 0 .031-.002.047 0 .31.036.361-.14.362-.401 0-.261-.088-.366-.356-.363a129.9 129.9 0 01-2.928-.001c-.315-.005-.407.126-.41.422-.005.323.172.357.422.345.188-.01.379.012.566-.005.32-.029.458.083.443.424-.023.487-.006.976-.006 1.464zm-45.622-.003c0 .505.014 1.01-.005 1.513-.013.337.157.384.436.388.295.004.43-.08.423-.4-.016-.805-.005-1.61-.005-2.413 0-.954 0-.954.97-.977.032-.001.064-.003.095 0 .267.023.357-.106.36-.365.002-.275-.082-.401-.378-.398-.96.011-1.922.01-2.883.001-.292-.002-.433.097-.438.41-.005.315.163.366.418.353.189-.01.38.012.567-.004.32-.028.46.087.445.426-.022.488-.006.978-.005 1.466zm30.835 1.843c0-1.373-.01-2.723.007-4.071.004-.343-.126-.419-.442-.426-.357-.008-.411.155-.408.457.012 1.148.005 2.296.005 3.444 0 .715 0 .715.838.596zm-11.522-15.869c-.16.67-.314 1.341-.489 2.006-.028.107-.15.189-.229.282-.06-.094-.151-.18-.177-.282-.162-.637-.31-1.279-.558-1.916v2.177h-.412v-3.657h.527l.597 2.715.092.013.613-2.733h.512v3.626c-.354.068-.364.068-.368-.28-.008-.645-.002-1.292-.002-1.938l-.106-.013zm6.818-7.585c-.161.666-.316 1.335-.49 1.998-.029.112-.14.201-.213.3-.07-.102-.174-.195-.204-.308-.163-.633-.309-1.272-.46-1.908l-.12.01v2.176l-.387.038v-3.677h.532l.594 2.7.094.02.611-2.724h.522v3.654h-.386v-2.268l-.093-.01zm-1.257-7.076c-.023.334-.02.7-.082 1.055-.09.525-.418.754-.98.747-.538-.006-.885-.228-.925-.741a14.137 14.137 0 01-.002-2.214c.042-.53.403-.75.97-.742.565.007.865.237.947.782.053.357.05.722.072 1.113zm-.568-.047h.003c0-.345.014-.691-.004-1.036-.014-.263-.137-.43-.444-.435-.314-.004-.487.13-.492.432-.011.69-.012 1.383.002 2.073.005.262.132.432.44.438.315.005.479-.135.492-.435.015-.345.003-.69.003-1.037zm-10.415 15.098c.03-.353.032-.735.103-1.104.094-.493.418-.702.969-.694.545.008.89.227.928.738.055.734.057 1.48-.002 2.214-.042.525-.41.752-.973.745-.54-.007-.845-.23-.932-.744-.062-.37-.063-.751-.093-1.155zm1.52.052h.004c0-.346.013-.692-.005-1.037-.013-.262-.134-.431-.442-.435-.314-.005-.488.126-.493.43a56.65 56.65 0 000 2.073c.006.294.166.447.487.438.303-.007.433-.165.446-.433.015-.344.004-.69.004-1.036zm31.604-7.557c-.021.334-.017.7-.074 1.055-.086.535-.403.773-.957.775-.563.003-.916-.225-.959-.76a13.721 13.721 0 01-.006-2.167c.044-.556.409-.784.998-.77.56.014.85.247.931.8.05.342.045.691.067 1.067zm-.56.01c0-.345.01-.691-.004-1.036-.012-.284-.133-.464-.466-.464-.322 0-.471.154-.475.45-.01.675-.01 1.351 0 2.026.005.283.129.465.461.467.357 0 .473-.194.48-.5.01-.313.003-.628.003-.942zm-17.534 7.886v-2.16c.142-.007.267-.013.406-.018v3.661l-.108.078c-.104-.114-.245-.212-.305-.346-.29-.641-.56-1.293-.906-1.94v2.19l-.46.05v-3.816c.203.169.381.247.443.38.295.64.56 1.294.834 1.942l.096-.02zm2.475-8.295v2.184l-.44.056v-3.657l.097-.103c.122.118.291.215.358.359.29.625.55 1.264.903 1.89v-2.172h.42v3.641l-.104.08c-.104-.11-.247-.204-.306-.335-.295-.649-.568-1.307-.849-1.963l-.079.02zm18.437.726v-2.168l.404-.02v3.65l-.093.085c-.106-.106-.252-.193-.31-.321-.296-.65-.57-1.311-.936-1.953v2.202l-.433.034v-3.66c.259-.125.365.014.46.248.263.646.545 1.284.82 1.926l.088-.023zm-30.524-2.195c0 .993.026 1.906-.008 2.817-.024.612-.35.88-.94.88-.589.001-.9-.276-.958-.871a8.336 8.336 0 01-.03-.755c-.004-.676-.002-1.351-.002-2.05l.501-.024c0 .8-.004 1.582.003 2.363.002.218-.013.461.076.646a.6.6 0 00.444.287c.13.003.318-.168.385-.307.075-.16.056-.37.057-.557.005-.786.002-1.572.002-2.4l.47-.03zm3.377 3.786a169.4 169.4 0 01-.424-.327c-.685.508-1.395.235-1.482-.657-.062-.64-.05-1.292.001-1.933.052-.657.441-.928 1.1-.866.588.054.83.392.784 1.116h-.414c-.119-.264.068-.714-.452-.738-.308-.015-.503.104-.51.413-.014.693-.011 1.387.002 2.08.005.265.13.437.438.446.327.01.46-.169.491-.45.023-.201.005-.408.005-.616-.427-.122-.427-.122-.403-.436h.864v1.968zm-10.63 6.108l.456.029c.071.724-.081 1.116-.483 1.276-.665.267-1.277-.039-1.359-.751a11.157 11.157 0 01-.03-1.93c.042-.693.388-.972 1.035-.943.58.025.834.316.876 1.003.005.092 0 .185 0 .3h-.496l-.024-.528c-.012-.262-.136-.454-.407-.377-.172.049-.43.222-.438.352a25.732 25.732 0 00-.016 2.17c.007.272.188.472.467.377.159-.053.304-.247.38-.412.066-.143.028-.335.038-.566zm26.125-9.84l.77 3.624h-.476c-.06-.3-.122-.6-.186-.91h-.732l-.187.905h-.475c.233-1.116.474-2.201.682-3.293.072-.375.242-.463.604-.326zm-.227.894l-.078.013-.243 1.38h.598l-.277-1.393zm-11.775 10.303h-.481l-.18-.904h-.73l-.2.907h-.471l.773-3.658h.507l.782 3.655zm-.72-1.327l-.283-1.387-.08.016-.237 1.371h.6zm-9.405-6.245h-.477l-.188-.914h-.722l-.202.907h-.473l.772-3.643h.511l.78 3.65zm-.72-1.325c-.1-.503-.19-.956-.278-1.409l-.08.014-.244 1.395h.601zm-9.88 1.32h-.48l-.18-.903h-.729l-.2.907h-.471l.774-3.658h.506c.26 1.212.517 2.419.78 3.653zm-.719-1.32l-.278-1.407-.078.013-.245 1.394h.601zm-5.32-1.423l-.4.13c-.03-.11-.028-.214-.08-.277-.116-.144-.238-.314-.397-.382-.095-.04-.37.08-.379.151-.025.198 0 .434.092.608.092.17.294.279.444.418.173.161.357.313.509.492.3.356.36.9.146 1.235-.234.37-.598.442-.993.373-.448-.078-.661-.382-.725-1.002l.398-.117c.062.19.074.409.189.527.12.124.35.224.509.197.11-.02.263-.281.247-.417-.023-.2-.15-.41-.287-.566-.196-.224-.445-.4-.664-.604-.397-.37-.514-.818-.325-1.232.188-.413.547-.503.946-.457.505.058.715.402.77.923zm36.242 9.318l.439-.114c.025.126.016.252.073.333.108.153.233.327.393.403.094.045.37-.057.389-.135.047-.196.062-.456-.033-.618-.138-.236-.384-.41-.585-.608-.167-.166-.37-.308-.498-.5-.238-.352-.302-.795-.001-1.092.21-.208.61-.326.915-.31.473.024.663.411.7.893l-.406.133c-.03-.134-.052-.239-.08-.342-.09-.345-.38-.435-.614-.291-.13.079-.177.44-.12.633.054.185.29.316.448.468.182.174.382.332.546.521.323.371.386.927.158 1.272-.229.347-.58.429-.955.362-.511-.09-.723-.454-.77-1.008zm-8.841-15.837v1.684l-.494.032v-3.695c.351 0 .709-.025 1.061.006.492.043.728.378.733.976.004.585-.238.928-.721.993-.168.023-.342.004-.58.004zm.01-.266c.304-.125.653-.163.725-.324.106-.24.098-.607-.019-.843-.072-.146-.434-.149-.706-.227v1.394zm-4.939 15.416v1.685h-.489v-3.669c.35 0 .692-.02 1.031.005.505.035.752.358.766.947.013.611-.233.965-.734 1.028-.168.021-.34.004-.574.004zm.027-.399c.701.05.805-.034.8-.607-.005-.575-.092-.64-.8-.57v1.177zm11.043-1.567h1.318c.075.294.075.294-.814.398v1.175l.686.033v.347l-.68.031v1.238c.248.262.805-.225.922.426h-1.432v-3.648zm-4.832-7.58h1.335c.057.332.057.332-.813.388v1.186l.665.039.025.346-.702.034v1.268c.87.108.87.108.87.397h-1.38v-3.658zm-26.873.443c-.25-.164-.72.132-.588-.438h1.64c.065.342.065.342-.52.4v3.256l-.532.025v-3.243zm19.836-4.347h-.534v-3.194c-.182-.238-.73.13-.584-.472h1.64c.06.342.06.342-.523.403v3.263zm13.567 4.347c-.25-.164-.72.131-.587-.438h1.64c.064.342.064.342-.52.4v3.256l-.533.025v-3.243zm6.408 3.228h-.53v-3.162c-.173-.29-.743.114-.603-.5h1.671c.016.346.016.346-.538.385v3.277zm-30.098-3.307h-.867v1.208l.661.046c.076.65-.51.17-.683.514v1.525l-.498.026v-3.64c.938-.177 1.361-.094 1.387.321zm-3.618 3.3h-.515v-3.623c.97-.172 1.365-.094 1.384.305-.136.006-.274.016-.41.02-.142.003-.282 0-.485 0v1.205l.665.045c.019.34.019.34-.639.383v1.665zm24.01 7.581h-.477v-3.664c.147-.01.296-.018.477-.029v3.693zm11.635-11.25h.477v3.664l-.477.031v-3.695zm-16.083 41.577h.429c.024.084.026.192.08.256.092.11.224.274.327.265.135-.011.34-.145.372-.264.08-.296.08-.613.097-.782-.421-.1-.891-.07-1.097-.29-.39-.417-.31-.997-.095-1.514.153-.37.471-.482.85-.455.438.03.758.326.787.849a15.31 15.31 0 01-.007 2.028c-.046.61-.414.888-.971.849-.505-.036-.744-.322-.772-.942zm1.303-1.55c-.057-.324.092-.842-.443-.813-.489.025-.404.514-.399.86.004.29.058.603.453.576.38-.025.422-.308.39-.623zm-5.419.647c.001.33.022.662-.004.991-.043.545-.369.847-.88.854-.518.007-.868-.276-.899-.824a19.168 19.168 0 01-.003-2.076c.028-.551.371-.832.893-.828.515.004.842.298.888.843.028.345.005.693.005 1.04zm-.49-.051h.004c0-.314.047-.637-.017-.937-.039-.185-.219-.43-.384-.477-.29-.082-.412.191-.419.437-.018.673-.03 1.35.013 2.02.01.16.244.305.375.456.143-.155.375-.292.41-.468.066-.332.019-.686.019-1.031zm-2.917 1.863h-1.756c.085-.222.129-.417.227-.58.284-.47.611-.918.878-1.399.14-.251.242-.55.255-.833.008-.156-.205-.322-.319-.484-.143.139-.366.255-.41.42-.078.285-.128.487-.476.335-.105-.809.253-1.223.985-1.15.423.044.701.288.702.691a2.51 2.51 0 01-.233 1.074c-.246.504-.588.963-.888 1.442-.006.01.005.029.017.09h1.018v.394zm-4.446-1.01c-.531.01-.937-.37-.956-.896a.92.92 0 01.933-.969.91.91 0 01.93.922.908.908 0 01-.907.943zm16.65-1.832a.928.928 0 01.953.907.95.95 0 01-.958.959.947.947 0 01-.928-.94.923.923 0 01.933-.925zm-6.43 2.845h-.446v-2.948c-.216.018-.384.032-.552.044-.08-.319.473-.748.999-.759v3.663zm-4.125-19.422l.648-1.552.127-.029.702 1.58H815.6z"/></defs><use fill="#fff" xlink:href="#a" transform="translate(-778 -6258)"/></svg>