<svg xmlns="http://www.w3.org/2000/svg" xmlns:xlink="http://www.w3.org/1999/xlink" width="118" height="80"><defs><path id="a" d="M564.078 6287.325h.823c.878 0 1.45-.594 1.45-1.429 0-.821-.572-1.428-1.45-1.428h-.823zm-.737.671v-4.2h1.564c1.318 0 2.23.906 2.23 2.1 0 1.183-.912 2.1-2.23 2.1zm-3.595-2.117h1.079c.527 0 .863-.276.863-.715 0-.45-.324-.696-.869-.696h-1.073zm-.737 2.117v-4.2h1.875c.986 0 1.563.529 1.563 1.338 0 .69-.416 1.104-1.004 1.273l1.136 1.59h-.871l-1.046-1.464h-.914v1.463zm-3.637-1.668h1.444l-.725-1.68zm-1.456 1.668l1.846-4.23h.683l1.845 4.23h-.779l-.425-1.014h-1.983l-.432 1.014zm-4.647.03l-1.464-4.23h.799l1.001 3.115 1.033-3.126h.624l1.031 3.126 1.003-3.114h.774l-1.464 4.23h-.636l-1.033-3.018-1.032 3.018zm-4.239-1.698h1.444l-.725-1.68zm-1.456 1.668l1.846-4.23h.683l1.845 4.23h-.778l-.426-1.014h-1.983l-.432 1.014zm-5.452 0v-4.2h3.11v.66h-2.373v1.092h2.103v.66h-2.103v1.129h2.403v.66zm-3.71 0v-4.2h.738v3.529h2.205v.672zm-1.857 0v-4.2h.737v4.2zm-3.643-.643h1.229c.506 0 .813-.2.813-.594 0-.356-.283-.569-.867-.569h-1.175zm0-1.786h1.007c.473 0 .79-.186.79-.583 0-.33-.263-.534-.736-.534h-1.06zm-.725 2.43v-4.2h1.882c.48 0 .857.131 1.096.372a.95.95 0 01.282.708c0 .504-.288.774-.6.936.492.167.834.45.834 1.032 0 .75-.618 1.152-1.552 1.152zm-3.08-.616c.833 0 1.415-.664 1.415-1.49 0-.813-.594-1.489-1.426-1.489-.833 0-1.414.665-1.414 1.49 0 .813.593 1.489 1.426 1.489zm-.011.688c-1.289 0-2.187-.978-2.187-2.173 0-1.181.91-2.172 2.199-2.172 1.288 0 2.187.978 2.187 2.172 0 1.183-.911 2.173-2.2 2.173zm-7.203-.073v-4.2h.785l1.277 1.987 1.276-1.986h.785v4.2h-.737v-3.013l-1.324 1.98h-.024l-1.312-1.968v3zm84.566 9.206v.56h.42c.182 0 .287-.106.287-.292 0-.187-.105-.268-.288-.268zm-74.033-33.622c.393-4.798 5.674-5.585 6.59-5.585.025 3.593-4.158 5.376-6.59 5.586zm-1.509-5.14zm-5.087 9.008c5.513-2.602 10.185-.667 10.995.066-3.692 2.282-8.668 1.731-11.025-.052.29-5.743 4.068-8.654 5.117-9.022.288 4.312-2.42 7.738-5.087 9.008zm-3.453-4.523c1.817 3.887.53 8.031-1.453 10.179 4.813-3.637 9.753-2.754 10.69-2.206-3.116 2.99-8.119 3.514-10.79 2.282l.023-.018c-1.776-5.447.69-9.53 1.53-10.237zm-7.602 17.415c-2.33-5.246-.262-9.547.472-10.36 2.214 3.705 1.345 7.98-.444 10.322 3.716-4.817 8.748-5.234 9.819-4.946-2.278 3.698-6.966 5.508-9.847 4.984zm5.725 39.495c-7.17.314-11.198-4.17-11.8-5.429 4.95-.851 9.248 1.748 11.349 4.725-1.75-2.804-2.432-5.57-2.577-7.845h3.51c.812 3.173.576 6.45-.472 8.55a10.87 10.87 0 01-.072-.106l.062.105zm7.63 7.447c-6.257 1.6-10.632-1.6-11.39-2.621 3.971-1.533 7.962-.315 10.413 1.69-4.254-4.439-4.39-9.612-4.024-10.74 4.022 2.857 5.722 8.357 4.994 11.662l.008.01zm9.193 5.514c-6.416 2.972-11.759.395-12.78-.526 3.995-2.49 8.576-1.947 11.603-.25-4.961-3.59-6.04-8.626-5.894-9.799 4.498 2.097 7.19 7.185 7.06 10.567l.01.008zm-3.037 4.557c3.467-3.595 8.414-4.043 11.805-2.896-6.028-2.478-8.17-7.508-8.27-8.696 4.818 1.154 8.458 5.639 8.983 8.97-5.5 4.458-11.314 3.278-12.518 2.622zm21.84-79.358c.916 0 6.181.787 6.574 5.586-2.437-.21-6.626-1.993-6.574-5.586zm8.093.445c1.048.368 4.827 3.279 5.116 9.02-2.36 1.785-7.34 2.336-11.035.054.81-.733 5.49-2.669 11.01-.064-2.668-1.268-5.38-4.695-5.092-9.01zm8.536 4.485c.837.707 3.293 4.788 1.527 10.231l.029.023c-2.674 1.232-7.68.708-10.8-2.282.935-.546 5.866-1.426 10.675 2.188-1.967-2.153-3.238-6.284-1.431-10.16zm7.124 7.054zm.48 10.338l.018.022c-2.907.524-7.595-1.285-9.847-4.983 1.045-.28 5.863.11 9.549 4.608-1.619-2.4-2.312-6.45-.2-9.984.733.814 2.795 5.103.48 10.337zm6.066 34.089c-.602 1.258-4.634 5.743-11.81 5.428.184-.268.359-.536.524-.803 2.127-2.935 6.387-5.468 11.286-4.625zm-11.81 5.429c-1.048-2.1-1.284-5.377-.472-8.55h3.51c-.144 2.248-.81 4.976-2.514 7.746a9.294 9.294 0 00-.525.803zm3.771 4.826c-.76 1.021-5.133 4.221-11.392 2.621-.733-3.304.995-8.811 5.002-11.67.367 1.13.23 6.328-4.065 10.774 2.451-2.026 6.484-3.267 10.455-1.725zm-7.814 7.61c-1.02.92-6.36 3.497-12.77.525l.036-.028-.036.022c-.13-3.383 2.567-8.47 7.07-10.57.148 1.175-.937 6.23-5.931 9.82 3.029-1.714 7.644-2.27 11.63.23zm-9.722 5.082c-1.206.656-7.024 1.836-12.528-2.622.525-3.33 4.169-7.816 8.992-8.97-.1 1.188-2.244 6.217-8.279 8.695 3.395-1.145 8.345-.697 11.814 2.897zm45.919-39.345h-.312v.653h-.312v-1.747h.753c.339 0 .573.234.573.547 0 .312-.208.47-.416.522l.416.678h-.338zm.056-2.092a1.924 1.924 0 00-1.911 1.915c0 1.05.865 1.914 1.911 1.914a1.923 1.923 0 001.913-1.914 1.924 1.924 0 00-1.913-1.915zm0 4.128a2.173 2.173 0 01-2.173-2.171v-.01a2.172 2.172 0 114.347 0c0 1.21-.968 2.182-2.174 2.182zm-50.385-1.689c-.549 1.731-1.021 3.2-1.518 4.72h2.985a64.58 64.58 0 01-.707-2.201c-.235-.76-.445-1.522-.759-2.519zm-5.787 10.16l4.474-12.835h2.616l4.501 12.835h-2.538l-1.02-3.07h-4.449l-1.072 3.07zm-59.656 0l4.478-12.835h2.62l4.503 12.835h-2.54l-1.021-3.07h-4.452l-1.075 3.07zm5.787-10.16c-.55 1.731-1.02 3.2-1.518 4.72h2.985a69.51 69.51 0 01-.707-2.201c-.236-.76-.446-1.522-.76-2.519zm97.525 6.865c.863.366 1.727.864 2.592 1.074.523.13 1.205.079 1.728-.131.943-.367 1.074-1.389.314-2.07-.314-.288-.733-.499-1.125-.709-.891-.47-1.834-.838-2.699-1.362-1.151-.655-1.806-1.704-1.727-3.066.105-1.468.89-2.516 2.199-3.145 1.86-.89 4.426-.471 6.075.996-.313.576-.654 1.232-1.02 1.913 0 0-.55-.315-.812-.445-.707-.394-1.44-.656-2.253-.55-.392.052-.81.184-1.125.392-.733.524-.733 1.337-.026 1.887.42.315.89.524 1.36.76.708.34 1.442.63 2.122.997 1.467.785 2.174 2.095 1.99 3.59-.182 1.546-1.335 2.83-2.906 3.223-2.2.524-4.112-.053-5.919-1.599zm-61.953-9.513h2.489s-1.074 4.304-1.624 6.43c-.551 2.074-1.074 4.226-1.625 6.378h-2.83l-2.254-8.635-2.254 8.635h-2.778l-1.388-5.486c.078-.289.157-.604.236-.891.287-1.051.68-2.678 1.021-4.017.734 3.15 1.625 7.007 1.625 7.007l2.49-9.448h2.175c.813 3.124 1.624 6.194 2.463 9.448.786-3.254 1.494-6.324 2.254-9.448zm14.395 0h2.514s-1.073 4.304-1.624 6.43c-.549 2.074-1.073 4.226-1.623 6.378h-2.828l-2.252-8.635-2.253 8.635h-2.803l-1.388-5.486c.08-.289.158-.604.237-.891.288-1.051.68-2.678 1.02-4.017.735 3.15 1.624 7.007 1.624 7.007l2.488-9.448h2.174c.812 3.124 1.624 6.194 2.462 9.448.786-3.254 1.493-6.324 2.252-9.448zm21.395 5.822c.76 0 1.415.027 2.096 0 1.126-.052 1.754-.734 1.78-1.888.026-1.102-.55-1.758-1.676-1.862-.707-.053-1.414 0-2.2 0zm4.55 6.976l-2.485-4.642h-2.146v4.642h-2.301v-12.876h5.1c2.905.051 4.552 3.173 3.271 5.664-.34.682-.81 1.285-1.518 1.94l2.878 5.272zm9.147-2.255c1.073 0 2.017.078 2.933-.027 1.178-.13 2.069-.839 2.566-1.94.55-1.18.576-2.413.288-3.62-.34-1.468-1.283-2.465-2.801-2.726-.944-.158-1.887-.21-3.065-.21zm-2.383-10.621c2.016.025 4.084-.21 6.102.13 2.723.473 4.451 2.519 4.74 5.272.13 1.232.078 2.465-.367 3.645-.864 2.23-2.567 3.54-4.898 3.75-1.832.184-3.718.026-5.577.026zm-72.567 12.886l-3.222-12.835h2.54l2.175 9.449 2.487-9.449h2.174c.812 3.099 1.597 6.169 2.461 9.449.786-3.254 1.52-6.324 2.253-9.449h2.514s-1.048 4.33-1.624 6.43c-.55 2.1-1.074 4.227-1.624 6.379H510.2l-2.252-8.608-2.252 8.634z"/></defs><use fill="#fff" xlink:href="#a" transform="translate(-487 -6258)"/></svg>