<svg xmlns="http://www.w3.org/2000/svg" xmlns:xlink="http://www.w3.org/1999/xlink" width="51" height="62"><defs><path id="a" d="M1306.12 3270.44c0 14.945-1.863 24.897-6.04 32.266-4.148 7.319-10.322 11.87-18.94 16.842a1.284 1.284 0 01-1.28 0c-8.618-4.971-14.792-9.524-18.94-16.842-4.177-7.37-6.04-17.321-6.04-32.267 0-.707.574-1.28 1.281-1.28 3.998 0 7.033-2.338 10.245-4.813 3.692-2.844 7.875-6.067 14.094-6.067 6.219 0 10.402 3.223 14.093 6.067 3.213 2.475 6.248 4.813 10.246 4.813a1.28 1.28 0 011.28 1.28zm-2.566 1.215c-4.221-.425-7.421-2.89-10.525-5.281-3.532-2.722-7.183-5.535-12.529-5.535s-8.998 2.814-12.53 5.535c-3.103 2.39-6.303 4.856-10.524 5.28.202 28.546 7.602 36.302 23.054 45.305 15.452-9.003 22.851-16.76 23.054-45.304zm-38.726 2.972c-.18.094-.362.187-.545.277a1.281 1.281 0 11-1.131-2.297c.162-.079.323-.162.482-.245a1.28 1.28 0 111.194 2.265zm33.196 6.917l.042-.474a1.28 1.28 0 112.553.216l-.043.49a1.28 1.28 0 01-1.391 1.16 1.28 1.28 0 01-1.16-1.392zm-31.167-9.62a1.28 1.28 0 01.288-1.788c.716-.516 1.426-1.056 2.112-1.578 3.487-2.653 6.781-5.16 11.243-5.16a1.28 1.28 0 110 2.561c-3.598 0-6.421 2.149-9.691 4.636-.699.532-1.422 1.082-2.164 1.617a1.279 1.279 0 01-1.788-.289zm23.85 30.841c3.567-4.204 5.828-9.983 6.912-17.667a1.281 1.281 0 012.537.357c-1.154 8.177-3.606 14.381-7.495 18.965-3.411 4.02-7.936 7.012-11.497 9.169l-.02.01a.831.831 0 01-.094.048c-.02.01-.04.021-.062.03-.028.012-.058.021-.088.031-.024.007-.048.017-.073.023-.027.008-.055.011-.082.018l-.081.015a1.087 1.087 0 01-.118.007c-.015.001-.03.004-.045.004h-.002c-.015 0-.03-.003-.045-.004a.733.733 0 01-.2-.024c-.027-.005-.054-.008-.08-.016-.026-.006-.05-.016-.075-.023l-.087-.031c-.021-.009-.042-.02-.062-.03a1.49 1.49 0 01-.094-.048l-.02-.01c-3.561-2.158-8.086-5.15-11.497-9.169a1.28 1.28 0 111.954-1.655c2.97 3.497 6.929 6.21 10.207 8.229 3.279-2.02 7.238-4.732 10.207-8.229zm1.005-29.688c1.114 0 2.16.432 2.944 1.215a4.163 4.163 0 010 5.884l-16.286 16.274a1.403 1.403 0 01-.034.035l-.053.05-.024.023-.054.05-.021.02-.055.048c-.01.01-.022.019-.033.028l-.033.027-.044.037-.057.044a.567.567 0 00-.02.017l-.059.043-.03.022-.058.041a.32.32 0 01-.03.022l-.06.04-.02.014-.06.038-.029.017-.06.037a.692.692 0 01-.03.018l-.062.035-.028.016-.033.017-.06.033-.063.031a.282.282 0 01-.025.013l-.064.03-.032.015-.033.015c-.02.01-.04.018-.062.027l-.064.027c-.007.003-.015.005-.022.009l-.065.025-.03.011-.066.024a.804.804 0 01-.036.012l-.033.012-.062.02-.067.02-.028.008-.067.02-.026.006-.067.017a.725.725 0 01-.033.009l-.068.015a.456.456 0 01-.026.006l-.068.014-.038.007-.033.006a.834.834 0 01-.062.011l-.069.01a.326.326 0 01-.032.005l-.069.01a.503.503 0 01-.028.002l-.033.004a.867.867 0 01-.064.006l-.069.006a.509.509 0 01-.04.003l-.032.001a.87.87 0 01-.064.004l-.07.002-.02.001h-.196l-.07-.003a.865.865 0 01-.064-.004l-.033-.001a.488.488 0 01-.039-.003l-.07-.006a.887.887 0 01-.064-.006l-.033-.004-.029-.003-.069-.01a.154.154 0 01-.03-.004l-.069-.01a.765.765 0 01-.06-.011l-.034-.006-.04-.007-.067-.014-.03-.006-.067-.016-.027-.007-.068-.018c-.01-.001-.019-.004-.028-.006l-.067-.02-.029-.007-.067-.02-.066-.023-.032-.011a.586.586 0 01-.032-.01l-.067-.025-.03-.011-.065-.025-.017-.008-.065-.026a2.279 2.279 0 01-.07-.031l-.033-.015a.31.31 0 00-.027-.012l-.064-.031a.815.815 0 01-.033-.017l-.063-.032a.314.314 0 01-.02-.01l-.062-.033a10.684 10.684 0 01-.037-.02l-.061-.036-.025-.015-.06-.037c-.01-.004-.017-.01-.025-.015l-.06-.038-.03-.019-.059-.04-.026-.019-.058-.04-.025-.019-.058-.043-.032-.025-.057-.045-.02-.017-.055-.045a.402.402 0 01-.026-.023l-.055-.048c-.01-.008-.02-.016-.029-.026l-.053-.05a.334.334 0 01-.024-.022l-.053-.052-6.124-6.12a4.164 4.164 0 010-5.883 4.136 4.136 0 012.944-1.216c1.114 0 2.16.432 2.944 1.216l3.171 3.169 13.363-13.353a4.14 4.14 0 012.945-1.216zm1.132 3.026a1.59 1.59 0 00-1.132-.466c-.43 0-.832.166-1.133.465l-14.27 14.259a1.284 1.284 0 01-1.81 0l-4.077-4.074c-.3-.3-.703-.466-1.133-.466-.43 0-.833.166-1.133.466a1.603 1.603 0 000 2.264l6.176 6.168.222.167.24.122.126.046h.001l.22.051.01.002.11.013.008.002.064.002h.008l.023.002h.04l.064-.001h.008l.062-.004h.008l.111-.014a.64.64 0 00.008-.002l.222-.051.004-.002.143-.053h.002l.217-.112.152-.108.004-.003.12-.107.008-.008 16.308-16.295a1.602 1.602 0 000-2.263z"/></defs><use fill="#242424" xlink:href="#a" transform="translate(-1255 -3258)"/></svg>