<svg xmlns="http://www.w3.org/2000/svg" xmlns:xlink="http://www.w3.org/1999/xlink" width="60" height="61"><defs><path id="a" d="M322.435 3078.089a1.2 1.2 0 011.208 1.192 1.2 1.2 0 01-1.208 1.191 1.2 1.2 0 01-1.209-1.191 1.2 1.2 0 011.209-1.192zm-46.005 0a1.2 1.2 0 011.208 1.192 1.2 1.2 0 01-1.208 1.191 1.2 1.2 0 01-1.209-1.191 1.2 1.2 0 011.209-1.192zm53.577 20.72A1.2 1.2 0 01328.8 3100h-57.6a1.2 1.2 0 01-1.209-1.193c0-.658.542-1.192 1.21-1.192h9.587v-29.267a1.2 1.2 0 011.21-1.193 1.2 1.2 0 011.208 1.193v29.267h2.971v-13.025a1.2 1.2 0 011.209-1.192 1.2 1.2 0 011.209 1.192v13.025h3.293v-15.754c-3.518-.204-6.316-3.019-6.316-6.45v-11.55c0-1.832.394-3.628 1.147-5.286-5.08.41-9.082 4.476-9.082 9.418v6.758a1.2 1.2 0 01-1.208 1.192 1.2 1.2 0 01-1.21-1.192v-6.758c0-4.993 3.24-9.274 7.81-11.01a6.254 6.254 0 01-2.196-4.75c0-3.477 2.87-6.305 6.396-6.305 1.065 0 2.12.263 3.051.762.586.314.803 1.039.485 1.616a1.22 1.22 0 01-1.64.478 4.023 4.023 0 00-1.896-.473c-2.194 0-3.978 1.76-3.978 3.922s1.784 3.921 3.978 3.921c.022 0 .044.003.066.004a12.228 12.228 0 01.843.01 13.728 13.728 0 016.44-4.744c-1.608-1.282-2.64-3.243-2.64-5.436 0-3.855 3.181-6.99 7.091-6.99s7.091 3.135 7.092 6.99c0 2.092-.939 3.972-2.421 5.254a13.753 13.753 0 016.99 4.933l.193-.01c.05-.006.1-.01.153-.01 2.194-.005 3.974-1.768 3.97-3.93-.005-2.162-1.79-3.914-3.987-3.913a3.966 3.966 0 00-1.833.444 1.218 1.218 0 01-1.631-.503 1.183 1.183 0 01.51-1.609 6.488 6.488 0 012.949-.716h.014c3.52 0 6.387 2.82 6.395 6.291a6.245 6.245 0 01-1.99 4.58 12.386 12.386 0 014.664 2.792c2.345 2.233 3.64 5.207 3.647 8.376l.022 6.78a1.2 1.2 0 01-1.205 1.196h-.004a1.2 1.2 0 01-1.209-1.188l-.022-6.781c-.005-2.52-1.038-4.888-2.909-6.669-1.709-1.627-3.93-2.585-6.318-2.741a12.776 12.776 0 011.151 5.297v11.55c0 3.365-2.69 6.136-6.111 6.435v15.77h2.935l-.031-13.023a1.2 1.2 0 011.206-1.194h.003a1.2 1.2 0 011.208 1.189l.031 13.027h3.51l-.063-29.277a1.2 1.2 0 011.207-1.194h.002a1.2 1.2 0 011.209 1.19l.063 29.281h10.378c.668 0 1.21.534 1.21 1.192zm-30.977-48.213c2.577 0 4.674-2.067 4.674-4.607 0-2.541-2.097-4.608-4.674-4.608-2.577 0-4.673 2.067-4.673 4.608 0 2.54 2.097 4.607 4.673 4.607zm8.11 13.67v15.184c2.085-.283 3.694-1.986 3.694-4.039v-11.549c0-2.056-.606-4.059-1.751-5.79-2.108-3.19-5.723-5.093-9.67-5.093-3.942 0-7.554 1.899-9.663 5.079a10.476 10.476 0 00-1.76 5.804v11.55c0 2.119 1.715 3.865 3.899 4.06v-15.207a1.2 1.2 0 011.208-1.192 1.2 1.2 0 011.21 1.192v33.352H298v-16.58a1.2 1.2 0 011.209-1.19 1.2 1.2 0 011.208 1.19v16.58h4.305v-33.352a1.2 1.2 0 011.21-1.192 1.2 1.2 0 011.208 1.192z"/></defs><use fill="#252525" xlink:href="#a" transform="translate(-270 -3039)"/></svg>