<svg xmlns="http://www.w3.org/2000/svg" xmlns:xlink="http://www.w3.org/1999/xlink" width="52" height="62"><defs><path id="a" d="M277.209 2839.119c0 .316-.129.626-.352.848a1.208 1.208 0 01-.848.352c-.316 0-.625-.129-.849-.352a1.206 1.206 0 01-.351-.848c0-.316.128-.625.351-.849.224-.223.533-.351.849-.351.315 0 .625.128.848.351.223.224.352.533.352.849zm48.48-17.64v54.24c0 1.985-1.615 3.6-3.6 3.6h-43.68a3.604 3.604 0 01-3.6-3.6v-32.12a1.2 1.2 0 112.4 0v32.12c0 .662.538 1.2 1.2 1.2h43.68c.661 0 1.2-.538 1.2-1.2v-54.24c0-.662-.539-1.2-1.2-1.2h-24.28a1.2 1.2 0 010-2.4h24.28c1.985 0 3.6 1.615 3.6 3.6zm-9.48 17.16c0 8.8-7.16 15.96-15.96 15.96a15.964 15.964 0 01-15.74-13.302 1.2 1.2 0 012.367-.398 13.518 13.518 0 002.989 6.487 11.999 11.999 0 016.277-5.264 5.863 5.863 0 01-1.773-4.203v-1.17a5.887 5.887 0 015.88-5.88 5.887 5.887 0 015.88 5.88v1.17c0 1.645-.68 3.135-1.773 4.203a12.001 12.001 0 016.264 5.242 13.497 13.497 0 003.189-8.725c0-7.477-6.083-13.56-13.56-13.56-.695 0-1.393.053-2.075.157a1.2 1.2 0 11-.364-2.372 16.2 16.2 0 012.439-.185c8.8 0 15.96 7.16 15.96 15.96zm-19.44-.72a3.484 3.484 0 003.48 3.48 3.484 3.484 0 003.48-3.48v-1.17a3.484 3.484 0 00-3.48-3.48 3.484 3.484 0 00-3.48 3.48zm12.073 11.203a9.54 9.54 0 00-8.593-5.323 9.542 9.542 0 00-8.604 5.342 13.543 13.543 0 008.604 3.058 13.5 13.5 0 008.593-3.077zm3.69 17.717a1.2 1.2 0 01-1.2 1.2h-17.04a1.2 1.2 0 110-2.4h17.04a1.2 1.2 0 011.2 1.2zm-22.166-6.72a1.203 1.203 0 01-1.2 1.2 1.21 1.21 0 01-.849-.352 1.206 1.206 0 01-.351-.848c0-.316.128-.625.351-.848.223-.224.533-.352.849-.352a1.204 1.204 0 011.2 1.2zm0 6.72a1.201 1.201 0 01-2.049.848 1.208 1.208 0 01-.351-.848c0-.316.128-.625.351-.848.223-.224.533-.352.849-.352a1.204 1.204 0 011.2 1.2zm22.166-6.72a1.2 1.2 0 01-1.2 1.2h-17.04a1.2 1.2 0 110-2.4h17.04a1.2 1.2 0 011.2 1.2zm-23.608-33.627l-4.757 4.756a1.198 1.198 0 01-1.697 0l-2.184-2.184a1.2 1.2 0 011.697-1.698l1.336 1.336 3.908-3.908a1.2 1.2 0 011.697 1.698zm5.565 1.227c0 5.426-4.414 9.84-9.84 9.84s-9.84-4.414-9.84-9.84 4.414-9.84 9.84-9.84 9.84 4.414 9.84 9.84zm-2.4 0c0-4.102-3.338-7.44-7.44-7.44-4.103 0-7.44 3.338-7.44 7.44 0 4.103 3.337 7.44 7.44 7.44 4.102 0 7.44-3.337 7.44-7.44z"/></defs><use fill="#252525" xlink:href="#a" transform="translate(-274 -2818)"/></svg>