<svg xmlns="http://www.w3.org/2000/svg" xmlns:xlink="http://www.w3.org/1999/xlink" width="62" height="60"><defs><path id="a" d="M766.602 3065.45a1.2 1.2 0 11-.001 2.4 1.2 1.2 0 01.001-2.4zm5.295 0a1.2 1.2 0 11-.002 2.4 1.2 1.2 0 01.002-2.4zm5.44 0a1.2 1.2 0 11-.001 2.4 1.2 1.2 0 01.002-2.4zm20.663-.68a1.2 1.2 0 11-.001 2.401 1.2 1.2 0 01.001-2.401zm11.214-4.889a1.2 1.2 0 11.001 2.4 1.2 1.2 0 010-2.4zm5.295 0a1.2 1.2 0 110 2.4 1.2 1.2 0 010-2.4zm-47.907 27.933a1.2 1.2 0 110 2.4 1.2 1.2 0 010-2.4zm5.295 0a1.2 1.2 0 110 2.4 1.2 1.2 0 010-2.4zm39.962-44.17a1.2 1.2 0 110 2.4 1.2 1.2 0 010-2.4zm8.86 11.952v21.058a1.2 1.2 0 01-1.199 1.2h-5.536v11.618a1.2 1.2 0 01-1.2 1.2H799.2v7.006a1.2 1.2 0 01-1.2 1.2h-37.52a1.2 1.2 0 01-1.2-1.2v-57.359a1.2 1.2 0 011.2-1.2H798a1.2 1.2 0 011.2 1.2v20.763a1.2 1.2 0 11-2.4 0v-19.562h-35.12v54.958h35.12v-5.806h-15.838a1.2 1.2 0 01-1.2-1.2v-18.598a1.2 1.2 0 011.2-1.2h22.036v-14.078a1.2 1.2 0 011.2-1.2h15.322a1.2 1.2 0 011.2 1.2zm-35.458 16.478l11.612 6.712 11.612-6.712zm26.323.981l-14.11 8.157a1.195 1.195 0 01-1.201 0l-14.111-8.157v15.216h29.422zm6.736-16.258h-12.922v12.876h7.387a1.2 1.2 0 011.2 1.2v4.58h4.335zm-43.184.37a5.12 5.12 0 01-5.114 5.115 5.12 5.12 0 01-5.114-5.115 5.12 5.12 0 015.114-5.115 5.12 5.12 0 015.114 5.115zm-2.4 0a2.717 2.717 0 00-2.714-2.715 2.717 2.717 0 00-2.714 2.715 2.718 2.718 0 002.714 2.715 2.718 2.718 0 002.715-2.715zm47.984-16.848v9.05a1.2 1.2 0 01-1.2 1.201h-15.322a1.2 1.2 0 01-1.2-1.2v-9.05a1.2 1.2 0 011.2-1.201h15.322a1.2 1.2 0 011.2 1.2zm-2.4 1.201h-12.922v6.65h12.922zm-25.38 6.24a1.2 1.2 0 01-1.2 1.201h-25.768a1.2 1.2 0 010-2.4h25.768a1.2 1.2 0 011.2 1.2z"/></defs><use fill="#252525" xlink:href="#a" transform="translate(-759 -3039)"/></svg>