<svg xmlns="http://www.w3.org/2000/svg" xmlns:xlink="http://www.w3.org/1999/xlink" width="62" height="62"><defs><path id="a" d="M1310.72 2845.683v6.632c0 2.33-1.987 4.323-4.62 4.635l-2.69.318a24.864 24.864 0 01-1.01 2.435l1.678 2.128c1.642 2.083 1.638 4.896-.01 6.544l-4.69 4.691c-1.648 1.648-4.462 1.652-6.545.01l-2.128-1.678a24.3 24.3 0 01-2.436 1.01l-.318 2.69c-.312 2.635-2.305 4.62-4.635 4.62h-6.633c-2.331 0-4.324-1.985-4.635-4.62l-.318-2.69a24.605 24.605 0 01-2.435-1.01l-2.128 1.678c-2.083 1.642-4.897 1.638-6.545-.01l-4.69-4.69c-1.648-1.65-1.652-4.462-.01-6.545l1.678-2.129a24.758 24.758 0 01-1.01-2.434l-2.69-.319c-2.634-.311-4.62-2.304-4.62-4.634v-6.632c0-2.332 1.987-4.325 4.62-4.636l2.691-.318c.293-.828.63-1.643 1.01-2.436l-1.678-2.127c-1.642-2.083-1.638-4.896.01-6.545l4.69-4.69c1.648-1.648 4.462-1.652 6.545-.01l2.128 1.679c.792-.38 1.606-.717 2.434-1.01l.318-2.69c.311-2.635 2.304-4.621 4.635-4.621h6.632c2.331 0 4.324 1.986 4.636 4.62l.318 2.69c.828.294 1.643.631 2.435 1.01l2.128-1.677c2.083-1.643 4.897-1.639 6.545.01l4.69 4.69c1.648 1.648 1.652 4.462.01 6.544l-1.678 2.128a24.78 24.78 0 011.01 2.436l2.69.317c2.634.311 4.621 2.304 4.621 4.636zm-2.4 0c0-1.116-1.076-2.084-2.503-2.253l-3.444-.407a1.2 1.2 0 01-1.003-.828 22.314 22.314 0 00-1.45-3.495 1.2 1.2 0 01.124-1.295l2.148-2.725c.89-1.128.966-2.573.178-3.362l-4.69-4.69c-.788-.788-2.234-.711-3.362.178l-2.725 2.149c-.37.29-.877.339-1.295.122a22.361 22.361 0 00-3.495-1.449 1.199 1.199 0 01-.828-1.002l-.408-3.444c-.168-1.427-1.136-2.503-2.251-2.503h-6.633c-1.115 0-2.083 1.076-2.252 2.503l-.407 3.444c-.055.469-.38.86-.828 1.002-1.2.383-2.376.87-3.494 1.45a1.202 1.202 0 01-1.295-.124l-2.725-2.148c-1.128-.89-2.574-.966-3.362-.178l-4.69 4.69c-.788.789-.712 2.234.178 3.362l2.148 2.725c.292.37.34.877.123 1.294a22.348 22.348 0 00-1.449 3.496 1.2 1.2 0 01-1.002.828l-3.445.407c-1.427.17-2.503 1.137-2.503 2.253v6.632c0 1.114 1.076 2.082 2.502 2.252l3.445.407c.468.055.86.378 1.003.828.382 1.2.87 2.377 1.448 3.495a1.2 1.2 0 01-.123 1.295l-2.148 2.725c-.89 1.129-.966 2.574-.178 3.362l4.69 4.69c.788.788 2.234.712 3.362-.177l2.725-2.149a1.196 1.196 0 011.295-.123 22.362 22.362 0 003.495 1.449 1.2 1.2 0 01.828 1.002l.407 3.445c.169 1.427 1.137 2.504 2.252 2.504h6.633c1.115 0 2.083-1.077 2.251-2.504l.408-3.444a1.2 1.2 0 01.828-1.003c1.2-.381 2.377-.87 3.496-1.45a1.2 1.2 0 011.295.124l2.725 2.149c1.128.889 2.574.965 3.362.177l4.69-4.69c.788-.788.712-2.234-.178-3.363l-2.148-2.724a1.2 1.2 0 01-.123-1.295 22.348 22.348 0 001.448-3.495 1.2 1.2 0 011.003-.828l3.444-.408c1.427-.169 2.503-1.137 2.503-2.251zm-8.914 3.316c0 8.846-5.973 16.573-14.527 18.788a1.2 1.2 0 01-.602-2.323c7.495-1.942 12.73-8.713 12.73-16.465 0-9.377-7.63-17.006-17.007-17.006-9.378 0-17.007 7.629-17.007 17.006 0 7.495 5.016 14.204 12.198 16.318a1.2 1.2 0 11-.677 2.302 19.552 19.552 0 01-9.977-6.893 19.231 19.231 0 01-3.944-11.727c0-10.701 8.706-19.406 19.407-19.406 10.7 0 19.406 8.705 19.406 19.406zm-9.777 7.315a1.197 1.197 0 01-1.682.229l-8.673-6.588a1.201 1.201 0 01-.474-.956v-5.955a1.2 1.2 0 012.4 0v5.359l8.199 6.229a1.2 1.2 0 01.23 1.681zm-9.63-19.553a1.2 1.2 0 11.001 2.4 1.2 1.2 0 010-2.4zm-.436 29.244a1.2 1.2 0 110 2.4 1.2 1.2 0 010-2.4z"/></defs><use fill="#252525" xlink:href="#a" transform="translate(-1249 -2818)"/></svg>