<svg xmlns="http://www.w3.org/2000/svg" xmlns:xlink="http://www.w3.org/1999/xlink" width="57" height="62"><defs><path id="a" d="M818.76 2874.275a5.449 5.449 0 01-5.441 5.444c-3 0-5.44-2.443-5.44-5.444a5.453 5.453 0 014.24-5.31v-2.69c0-1.15-.934-2.085-2.082-2.085h-18.338v4.774a5.452 5.452 0 014.242 5.31 5.45 5.45 0 01-5.441 5.445 5.45 5.45 0 01-5.441-5.445 5.452 5.452 0 014.242-5.31v-4.774h-18.338a2.086 2.086 0 00-2.083 2.085v2.69a5.452 5.452 0 014.242 5.31 5.449 5.449 0 01-5.441 5.444 5.45 5.45 0 01-5.441-5.444 5.453 5.453 0 014.241-5.31v-2.69a4.49 4.49 0 014.482-4.485h18.338v-1.113a1.2 1.2 0 112.398 0v1.113h18.338a4.49 4.49 0 014.481 4.485v2.69a5.453 5.453 0 014.242 5.31zm-51.08-3.045a3.047 3.047 0 00-3.042 3.044 3.046 3.046 0 003.043 3.045 3.047 3.047 0 003.042-3.045 3.047 3.047 0 00-3.042-3.044zm22.82 0a3.047 3.047 0 00-3.043 3.044 3.047 3.047 0 003.043 3.045 3.047 3.047 0 003.042-3.045 3.047 3.047 0 00-3.042-3.044zm25.862 3.044a3.047 3.047 0 00-3.043-3.044 3.047 3.047 0 00-3.043 3.044 3.047 3.047 0 003.043 3.045 3.046 3.046 0 003.043-3.045zm-7.044-37.165c0 5.914-2.74 11.198-7.013 14.653-.03.031-.062.061-.096.089-.396.315-.803.612-1.217.893l-.006-.006a18.7 18.7 0 01-10.486 3.203 18.69 18.69 0 01-8.738-2.158v.013a19.001 19.001 0 01-2.971-1.945 1.2 1.2 0 01-.096-.089c-4.274-3.455-7.013-8.74-7.013-14.653 0-10.382 8.442-18.83 18.818-18.83 10.376 0 18.818 8.447 18.818 18.83zm-9.223 13.325c-1.256-4.039-5.171-6.897-9.595-6.897s-8.34 2.858-9.595 6.897a16.324 16.324 0 009.595 3.106 16.32 16.32 0 009.595-3.106zm-9.934-9.297a4.031 4.031 0 004.024-4.028 4.03 4.03 0 00-4.024-4.026 4.03 4.03 0 00-4.025 4.026 4.031 4.031 0 004.025 4.028zm16.758-4.028c0-9.06-7.366-16.43-16.42-16.43-9.053 0-16.419 7.37-16.418 16.43 0 4.56 1.866 8.691 4.873 11.671a12.17 12.17 0 013.713-4.935 12.473 12.473 0 013.303-1.872 6.414 6.414 0 01-2.232-4.864c0-3.544 2.881-6.427 6.423-6.427 3.541 0 6.423 2.883 6.423 6.427a6.412 6.412 0 01-2.038 4.69 12.505 12.505 0 013.787 2.046 12.17 12.17 0 013.713 4.935 16.386 16.386 0 004.873-11.67zm-16.42 19.398a1.2 1.2 0 11-.001 2.4 1.2 1.2 0 01.002-2.4z"/></defs><use fill="#252525" xlink:href="#a" transform="translate(-762 -2818)"/></svg>