<svg xmlns="http://www.w3.org/2000/svg" xmlns:xlink="http://www.w3.org/1999/xlink" width="50" height="63"><defs><path id="a" d="M291.762 3283.708v.016a1.2 1.2 0 01-2.4 0v-.016a1.2 1.2 0 012.4 0zm14.4-19.904l-.003 7.491c.001.023.003.045.003.07l-.003.097-.007 14.227a17.19 17.19 0 011.21-.045c9.264 0 16.8 7.537 16.8 16.8 0 9.264-7.536 16.8-16.8 16.8a16.815 16.815 0 01-16.104-12.005c-.23.003-.462.005-.696.005-7.752 0-15.6-2.06-15.6-6v-37.44c0-3.938 7.848-6 15.6-6 7.753 0 15.6 2.062 15.6 6zm-11.925 28.166a43.672 43.672 0 01-3.675.154c-5.122 0-10.285-.9-13.2-2.647v4.207c0 .388.71 1.36 3.398 2.256 2.6.867 6.082 1.345 9.802 1.345.267 0 .54-.004.815-.009a16.911 16.911 0 012.86-5.306zm9.527-5.936l.002-3.742c-2.267 1.346-6.974 2.36-8.412 2.36a1.2 1.2 0 01-.136-2.392l.014-.002c6.254-.712 8.12-2.644 8.132-2.649.164-.162.354-.38.403-.605.002-.012 0 .13.002-4.272-.7.418-1.606.825-2.741 1.197-2.827.925-6.543 1.435-10.466 1.435-5.122 0-10.285-.9-13.2-2.647.012 4.48-.018 4.143.014 4.312.184.334.31.686 1.337 1.27 2.58 1.474 6.81 1.898 7.194 1.96a1.2 1.2 0 01-.136 2.393c-.744 0-4.329-.642-6.286-1.376a12.518 12.518 0 01-2.123-.989v3.837c0 .389.71 1.36 3.398 2.256 2.6.867 6.082 1.344 9.802 1.344 2.268 0 4.5-.185 6.479-.533a16.818 16.818 0 016.723-3.157zm.002-7.024v-.002.002zm.007-11.852c-2.914 1.746-8.089 2.646-13.21 2.646-5.123 0-10.286-.9-13.2-2.647v4.207c0 .388.71 1.36 3.397 2.255 2.6.867 6.082 1.345 9.802 1.345 3.675 0 7.127-.467 9.719-1.317 2.666-.872 3.449-1.837 3.49-2.241zm-26.41-3.354c0 .389.71 1.36 3.397 2.256 2.6.867 6.082 1.344 9.802 1.344 3.72 0 7.202-.477 9.803-1.344 2.687-.896 3.397-1.867 3.397-2.256 0-.388-.71-1.36-3.397-2.255-2.6-.867-6.082-1.345-9.803-1.345-3.72 0-7.201.478-9.802 1.345-2.687.895-3.398 1.867-3.398 2.255zm13.2 41.04h.17a16.92 16.92 0 01.056-5.16h-.227c-5.122 0-10.285-.9-13.2-2.647v4.207c0 .388.71 1.36 3.398 2.256 2.6.867 6.082 1.344 9.802 1.344zm16.8-16.8c-6.736 0-12.325 4.613-13.93 10.738a14.42 14.42 0 00-.47 3.662c0 1.111.126 2.215.375 3.282l.001.005.002.01c1.53 6.538 7.296 11.104 14.021 11.104 7.94 0 14.4-6.46 14.4-14.401 0-7.94-6.46-14.4-14.4-14.4zm-1.2 8.606v-1.406a1.2 1.2 0 112.4 0v1.398c.548.182 1.157.515 1.766 1.105a1.2 1.2 0 01-1.669 1.725c-.424-.41-.872-.628-1.298-.628a1.201 1.201 0 000 2.4c1.986 0 3.6 1.616 3.6 3.6a3.607 3.607 0 01-2.4 3.394v1.406a1.2 1.2 0 11-2.4 0v-1.4c-.799-.268-1.553-.8-2.195-1.563a1.2 1.2 0 111.837-1.545c.492.585 1.046.908 1.558.908a1.201 1.201 0 000-2.4 3.604 3.604 0 01-3.6-3.6 3.605 3.605 0 012.4-3.394z"/></defs><use fill="#252525" xlink:href="#a" transform="translate(-275 -3257)"/></svg>