<svg xmlns="http://www.w3.org/2000/svg" viewBox="0 0 120 29"><path d="M9 12.8c-.2.2-.6.3-.9.2H5.3c2.8-6.6 5.2-11.6 5.8-13h7.7c.3.6.9 2 1.8 4-.7.2-1.4.5-2 .9 0 0-1.1.7-2.6 2-.3-.8-.7-1.7-1-2.5-.7 1.5-1.4 3.3-2 5l-4 3.4zm-6.6 8.9h6.7l-2.2 6.8H0c.8-2.4 1.6-4.7 2.4-6.8zm22.7-3.3l.6-1.2c1.5 3.7 2.9 7.5 4.2 11.3h-6.8L20.8 22c1.8-.7 3.3-2 4.3-3.6zm-1.3-.8c-1 1.3-2.6 2.1-4.2 2h-3.1 3.1c1.7.1 3.2-.6 4.2-2-2.2 3.5-6.1 3.9-7.7 3.9H16l2.5 7H17l-2.8-7.7c0-.1 0-.1.1-.2.7-.3 1.5-.6 2.2-1 1.8-1.3 3.3-3.1 4.1-5.2v-.2h-.2c-2.2 2.5-5.4 3.9-8.7 3.8H8c-.1 0-.2-.1-.1-.2.1-.2.2-.3.3-.5 2.3-3.1 5-5.9 7.9-8.5 1.1-.9 2.2-1.8 3.4-2.7.9-.6 2.1-1 3.2-.9 1.5 0 2.9.7 3.8 2l-.6.8c0 .1-.1.1-.1.1 0 .1 0 .1.1.1l.8.4c-.4 3.2-1.4 6.2-2.9 9zm-15.9.2c-.1.1 0 .2.1.2h3.7c2.2.1 4.4-.5 6.2-1.7.9-.6 1.7-1.3 2.5-2.1.1-.1.1 0 .2 0-.2.3-.3.6-.5.8-2.1 3.4-6 5.4-10 5.2H3.2c-.2 0-.2-.2-.1-.3L4.9 18c-2 .1-3.9-1.2-4.5-3.1 0-.1-.1-.3.1-.3h7.7c.7 0 1.3-.2 1.8-.7l6.1-5.2c-3.1 2.8-5.8 5.8-8.2 9.1zM26.5 7.2H29c.1 0 .2.1.2.2s0 .1-.1.1l-2.3 1.1-.8-.4c-.1 0-.1-.1-.1-.1s0-.1.1-.1l.5-.8zm-3.5.4c.3-.3.7-.3 1 0-.5-.5-1.3-.5-1.8 0-.4.5-.5 1.2 0 1.7s1.3.6 1.8.1.6-1.3.1-1.8c.2.3.2.7-.1 1-.3.2-.7.2-1-.1-.3-.2-.2-.6 0-.9zm-5 15.2c.5-.1.9-.2 1.4-.3l2.2 6.1h-1.5L18 22.8zm76.8-7.2c-.8-.2-1.6-.3-2.4-.3-1.8 0-2.7 1.7-2.7 5 0 2.7.8 4.1 2.4 4.1 1 0 2-.4 2.7-1.2v-7.6zm-10.8 5c0-6.3 3.1-9.7 8.7-9.7 2.7-.1 5.4.3 7.9 1.1v16.5H96l-.3-1.9c-1.3 1.6-3.3 2.5-5.3 2.3-4.2.1-6.4-2.4-6.4-8.3zm30.2-9.7c3.9 0 5.8 2.1 5.8 6.3v11.3h-5.8V17.9c.1-.7-.2-1.4-.6-1.9-.5-.5-1.2-.7-1.9-.7-1 0-2 .5-2.6 1.2v12h-5.8V11.2h4.6l.4 2c1.5-1.7 3.7-2.5 5.9-2.3zm-38 0c3.9 0 5.9 2.1 5.9 6.3v11.3h-5.8V17.9c.1-.7-.2-1.4-.6-1.9-.5-.5-1.2-.7-1.9-.7-1 0-2 .5-2.6 1.2v12h-5.8V4.7h5.8v7.6c1.4-1 3.1-1.6 5-1.4zM62.9 23l.8 4.4c-2 1.1-4.2 1.6-6.4 1.6-5.6 0-8.5-3.1-8.5-9s3.1-9.1 8.7-9.1c2-.1 4 .3 5.9 1.2l-.8 4.8c-1.1-.7-2.4-1.1-3.7-1.1-2.8 0-4.2 1.6-4.2 4.1 0 2.6 1.4 4.4 4.2 4.4 1.4-.2 2.8-.6 4-1.3zM41.2 11.2h5.6v17.3h-4.6l-.3-1.9c-1.5 1.6-3.6 2.5-5.8 2.3-3.9 0-5.8-2.1-5.8-6.3V11.2h5.6V22c-.1.7.2 1.4.7 1.9s1.2.7 1.9.6c1 0 2-.5 2.7-1.2V11.2z" fill="#252525"/></svg>