<svg xmlns="http://www.w3.org/2000/svg" viewBox="0 0 120 24.6"><path d="M87.8 7.3c-.3-1.2-1.6-1.9-2.8-1.6-1.2.3-2 1.6-1.6 2.8l3.6 13c.3 1.2 1.6 1.9 2.8 1.6 1.2-.3 1.9-1.6 1.6-2.8l-3.6-13zm-.4 17.3C81.7 24.6 77 20 77 14.4S81.7 4.2 87.4 4.2s10.4 4.6 10.4 10.2c0 5.7-4.6 10.2-10.4 10.2zM43.8 18c0-2-1.6-3.6-3.7-3.6-2 0-3.7 1.6-3.7 3.6s1.6 3.6 3.6 3.7c2 0 3.7-1.5 3.7-3.5l.1-.2zM70.3 4.3c2 0 3.7 1.6 3.7 3.6v16.2h-7.3V9.6c0-1-.8-1.8-1.8-1.8s-1.8.8-1.8 1.8V24h-7.3V7.8h-5l6.9-3.2c.5-.2 1-.3 1.6-.3 1.8 0 3.3 1.3 3.6 3l5.8-2.7c.5-.2 1-.4 1.6-.3zm0 0c.4 0 .1 0 0 0zM53 24h-7.3l-1-3.4C42.9 23 40 24.5 37 24.5c-4.4 0-8-2.9-8-6.5s3.6-6.4 8-6.4c2.2 0 4.2.8 5.8 2.1l-1.6-5.9h-9.4l9.1-3.2c3.1-1.1 6.5.5 7.6 3.5.2.1.2.3.3.5L53 24zm63.3-19.8c.5 0 .1 0 0 0 2 0 3.7 1.6 3.7 3.6V24h-7.3V9.6c0-1-.8-1.8-1.8-1.9-1 0-1.9.8-1.9 1.7v14.5h-7.3V7.8h-5l7.1-3.3c.5-.2 1-.3 1.6-.3 1.8 0 3.3 1.3 3.6 3l5.8-2.7c.5-.1 1-.3 1.5-.3zm-96.7 18c3.4 0 6.5-1.7 8.3-4.2l.4 1.4c-.1.2-.3.3-.4.5-2.6 2.8-7.2 4.7-12.4 4.7s-9.8-1.9-12.4-4.7C1.2 17.8 0 15.2 0 12.3s1.1-5.5 3.1-7.6C5.7 1.9 10.3 0 15.6 0c3.7 0 7.1.9 9.5 2.3 1.9 1.1 3.5 2.6 4.6 4.3l-10.1 5.7L25 3.9c-1.6-1-3.5-1.5-5.4-1.5-5.6 0-10.1 4.4-10.1 9.9s4.5 9.9 10.1 9.9z" fill="#252525"/></svg>