<svg xmlns="http://www.w3.org/2000/svg" viewBox="0 0 120 60.2"><path d="M56.688 60.117c-4-.1-8.4-.5-12.3-1-16.5-2.2-30.4-7.9-38.1-15.6-3.3-3.3-5.3-6.9-6-10.5-.2-1.2-.3-1.7-.3-3s.1-1.8.3-3c.5-2.4 1.6-4.8 3.2-7.1 3.6-5.1 10-9.7 18.4-13.1 14-5.8 32.3-8.1 50.1-6.3 20.9 2.1 38.1 9.7 45 19.9 3.1 4.7 3.9 9.7 2.2 14.7-1 2.9-2.8 5.7-5.5 8.3-7.3 7.3-20.2 12.8-35.6 15.2-6.9 1.3-14.1 1.7-21.4 1.5zm9.1-3.8c8.4-.5 15.4-1.7 22.3-3.9 5.5-1.7 10.6-4 14.5-6.7 2-1.3 3.3-2.4 4.9-4 1.8-1.8 3-3.5 4-5.4 1.1-2.2 1.5-3.9 1.5-6.2 0-2.3-.4-4.1-1.5-6.3-.9-1.9-2.2-3.5-3.9-5.3-2.6-2.6-5.8-4.8-9.9-6.9-7.7-3.9-17.4-6.4-28.2-7.4-6-.5-12.8-.5-18.8 0-15.2 1.4-28.2 5.9-36.3 12.5-1 .8-2.8 2.7-3.6 3.6-2.7 3.4-4 7.1-3.7 10.7.3 3.9 2.1 7.3 5.5 10.7 2.6 2.6 5.6 4.7 9.6 6.7 9.1 4.6 20.2 7.2 33.3 7.9 1.4.1 8.9.1 10.3 0zm-42.5-11c-.1 0-.2-.1-.3-.2-.1-.1-.1-.2-.1-14.1v-14l-.2-.2c-.2-.2-.2-.2-.8-.2h-.7v-1.8h9.6l.2.2.2.2v5c0 5.5 0 5.3.4 5.3.2 0 .3-.1 1.7-2.1 3.7-5.2 5.7-8 5.8-8.2.4-.5.2-.5 4.9-.5h4.1l.2.2c.2.2.3.5.2.6-.1.1-1.8 2.8-8.1 12-.7 1-.9 1.3-.9 1.5 0 .2.4.8 2.3 3.5 8.4 11.8 8.4 11.9 8.4 12.1 0 .2 0 .3-.1.4l-.2.2h-4.3c-4.3 0-4.3 0-4.6-.1-.2-.1-.4-.2-.5-.3-.1-.1-2.1-2.8-4.4-6.1-2.3-3.3-4.3-6-4.3-6-.2-.1-.5-.1-.6.1-.1.1-.1 1.5-.1 6.1v5.9l-.2.2-.2.2h-3.7c-1.9.1-3.6.1-3.7.1zm32.8 0c-.1 0-.2-.2-.3-.3-.1-.1-.1-3.2-.1-14.1v-13.9l-.2-.2c-.2-.2-.2-.2-.8-.2h-.6v-1.9h9.6l.2.2.2.2v29.8l-.2.2-.2.2h-7.6zm14.1 0c-.2-.1-.3-.3-.3-.5 0-.1.9-3 2.1-6.4 1.1-3.4 2.9-8.8 4-12 1.1-3.2 2.2-6.6 2.5-7.5.3-.9.6-1.7.6-1.8s-.1-.2-.1-.3c-.1-.1-.2-.2-.8-.2h-.6v-1.8h5.8c3.8 0 5.9 0 6.1.1.1 0 .3.1.3.2.1.2.7 2.1 3.8 11.2 5 14.9 6.1 18.3 6.1 18.5 0 .2-.1.5-.3.5-.1.1-1.3.1-3.8.1-3.3 0-3.7 0-3.9-.1-.1-.1-.3-.2-.3-.3s-.6-1.6-1.1-3.3c-5.3-16.5-5.1-16-5.3-16.1-.1-.1-.2-.1-.4 0-.1.1-.3.7-3.2 9.8-.8 2.6-1.7 5.5-2 6.3-.3.8-.6 1.9-.8 2.4-.3.9-.4 1.2-.8 1.3-.3 0-7.4 0-7.6-.1z" fill="#252525"/></svg>