<svg version="1.1" id="svg1906" xmlns="http://www.w3.org/2000/svg" x="0" y="0" viewBox="0 0 120 28.4" xml:space="preserve"><style>.st0{fill-rule:evenodd;clip-rule:evenodd;fill:#252525}</style><g id="g3549" transform="translate(7.087 8.866) scale(2.7407)"><path id="path54" class="st0" d="M1.3-2.1C-1-2.1-1.2.2-1.2.2h-1v-3.4h8.3s0 2.6-2.5 5.3c0 0-2.3 2.7-2.4 3.9h1.4c2 0 2.1-2.3 2.1-2.3h1.1v3.4h-8.5S-3 4.6-.1 1.5c0 0 1.9-2 2.3-3.6h-.9"/><path id="path56" class="st0" d="M22.5 7.1V6h-.3c-.4 0-.8-.4-.8-.8v-6.5c0-.5.4-.8.8-.8h.3v-1.1H17v1.1h.3c.5 0 .8.4.8.8v6.5c0 .5-.3.8-.8.8H17v1.1h5.5"/><path id="path58" class="st0" d="M15.9 7.1V3.8h-1.1s-.3 2.3-2.2 2.3h-1.1V2.5h.4c.4 0 .8.4.8.8v.4h1.1V.1h-1.1v.4c0 .5-.4.8-.8.8h-.4v-3.5h1.1c2 0 2.2 2.3 2.2 2.3h1.1v-3.4H7.1v1.1h.3c.4 0 .8.4.8.8v6.5c-.1.5-.4.9-.8.9h-.3v1.1h8.8"/><path id="path60" class="st0" d="M28.3-2.1c2.3 0 2.5 2.3 2.5 2.3h1v-3.4h-7.9s-1.3 1.6 2 5.3c0 0 2.3 2.7 2.4 3.9h-1.4c-2 0-2.1-2.3-2.1-2.3h-1.1v3.4h8s1.4-1.6-2.1-5.6c0 0-2-1.9-2.3-3.6h1"/><path id="path62" class="st0" d="M37.6-2.1C39.8-2.1 40 .2 40 .2h1.1v-3.4h-8s-1.3 1.6 2 5.3c0 0 2.3 2.7 2.4 3.9h-1.4C34.3 6 34 3.8 34 3.8h-1.1v3.4h8s1.4-1.6-2.1-5.6c0 0-1.9-1.9-2.2-3.6l1-.1"/></g></svg>