<svg xmlns="http://www.w3.org/2000/svg" viewBox="0 0 120 48.4"><path d="M24.4 31.1c0 .5 0 1 .3 1.5H12.9c.3-.5.3-1 .3-1.5V16.4c0-.5 0-1-.3-1.5h11.8c-.3.5-.3 1-.3 1.5v14.7zm72.4-5L95.2 22c-.1-.4-.3-.8-.3-1.2l-.3 1.2c-.1.2-.7 2-1.5 4.1h3.7zm13.6 6.5H99.1c.1-.5-.1-1-.3-1.5 0 0-.2-.4-.4-1l-.1-.3h-6.5l-.1.3-.4 1c-.2.5-.4 1-.3 1.5h-8.9c.4-.4.6-1 .8-1.5l5.3-14.7c.2-.5.4-1 .3-1.5h15.1c-.1.5.1 1 .3 1.5.4 1.1 5.3 13.6 5.7 14.6.1.6.4 1.1.8 1.6zM80.6 19.8c-.5-.2-1-.2-1.5-.2h-8.8v2.3h8.4v3.7h-8.4v2.3h8.8c.5 0 1 0 1.5-.3v4.9H59.7c.3-.5.3-1 .3-1.5V16.4c0-.5 0-1-.3-1.5h20.9v4.9zm-40-4.9c-.3.5-.3 1-.3 1.5v6.4s3.5-4.5 4.2-5.5c.6-.8 1.3-1.9 1.3-2.4h11.3c-.8.5-1.6 1.4-2.3 2.3l-4.1 5s5.2 7.9 5.9 8.9c.4.5.8 1.1 1.3 1.5h-13c0-.5-.5-1.6-1-2.4-.6-.8-3.5-5.3-3.5-5.3v6.2c0 .5 0 1 .3 1.5h-11c.3-.5.3-1 .3-1.5V16.4c0-.5 0-1-.3-1.5h10.9zM0 48.4V0h120v48.4H0zm2.3-24.2c0 11.7 24.2 21.4 57.7 21.4s57.6-9.7 57.6-21.4S93.4 2.8 60 2.8 2.3 12.5 2.3 24.2z" fill="#252525"/></svg>