<svg version="1.1" id="svg2" xmlns="http://www.w3.org/2000/svg" x="0" y="0" viewBox="0 0 121.3 17.4" xml:space="preserve"><style>.st0{fill:#252525}</style><path class="st0" d="M40.5 6.8c-.4-.2-.8-.3-1.1-.5l-.2-.1c-.3-.2-.7-.4-.7-.6 0-.3 0-.7.2-.9.4-.3.9-.5 1.5-.4.6.1 1.1.4 1.4.8l.3.5.5-.2c.1-.2.3-.4.6-.5l.6-.3.5-.3-.3-.6c-.5-1.1-1.6-2-2.9-2.3-1.3-.3-2.8 0-3.8.7-.9.6-1.5 1.7-1.6 2.9-.1 1.1.4 2.1 1.1 2.7.6.7 1.5 1 2.3 1.4.8.3 1.6.7 2.1 1.3.4.5.2 1.2-.1 1.6-.3.5-.8.9-1.5.9-1-.1-1.7-1-1.7-1.9l-.1-.7-.6.2c-.3.1-.6.1-.9.2-.3.1-.5.1-.8.2l-.6.1.1.6c.4 1.7 1.3 3.1 2.7 3.7.6.3 1.3.4 2 .4 1.4 0 2.7-.6 3.6-1.6 1.4-1.5 1.5-3.8.3-5.5-.7-.9-1.8-1.4-2.9-1.8zM2.8 1.6H0v14h6.7v-2.7H2.8z"/><path class="st0" d="M28 9.9c0 .8-.2 1.6-.5 2.2-.3.5-.9.9-1.6 1-.8.1-1.5-.1-1.9-.5-.5-.7-.8-1.6-.8-2.8V1.6h-3v6.1A7 7 0 0017.6 3c-1.7-1.3-3.7-1.9-5.7-1.6-3.5.6-6.3 3.7-6.3 7 0 2 .8 4 2.2 5.3 1.3 1.3 3.1 2.1 5.1 2.1h.1c2 0 3.8-.7 5.1-2 1.3-1.2 2.1-2.8 2.2-4.4v1c0 1.1.2 2.7 1.4 3.8.9 1.1 2.4 1.7 4 1.7h.3c1.6-.1 3.1-.8 3.9-2 .8-.9 1.2-2.1 1.2-3.8V1.6H28v8.3zm-11.7 1.5c-1 1.4-3.2 2-4.9 1.4-2-.7-3.2-2.8-2.9-4.9.3-1.8 1.8-3.3 3.6-3.7 1.2-.2 2.7.1 3.6 1 1.8 1.4 2 4.3.6 6.2zm15.4-9.8h3v14.1h-3zm86.7-.1V10c-1.2-1.3-2.5-2.6-3.7-3.9-1.6-1.7-3.2-3.3-4.8-5L108.8 0v15.6h2.9V7c1.2 1.3 2.5 2.6 3.7 3.9 1.6 1.7 3.2 3.4 4.8 5l1.1 1.1V1.5h-2.9zm-18.9-.1c-2.8.3-5.4 2.4-6.2 5.1-.7 2.2-.3 4.6 1 6.4 1.3 1.7 3.3 2.8 5.2 3h.9c2 0 3.7-.7 5-1.9 2.7-2.5 3-6.9.8-9.7-1.6-2.1-4.2-3.2-6.7-2.9zm4.6 9.8c-.8 1.2-2.2 2-3.7 2-2.1 0-4.1-1.8-4.4-3.9-.2-1.1.1-2.3.8-3.3.7-.9 1.6-1.6 2.6-1.7h.1c.3-.1.7-.1 1-.1 1.1 0 2.2.4 2.9 1.3 1.6 1.4 1.9 3.9.7 5.7zM58.7 1.5l-.2.5c-.6 1.5-1.2 3.1-1.8 4.6-.4 1.1-.9 2.1-1.3 3.2-.4-1.1-.9-2.1-1.3-3.2-.6-1.6-1.3-3.1-1.9-4.7l-.2-.3h-3.2l.4.9c1 2.3 1.9 4.5 2.8 6.8.9 2.3 1.8 4.5 2.8 6.8l.6 1.4.6-1.5 2.1-5.1c1.2-2.8 2.3-5.7 3.5-8.5l.4-.9m8 5.7c0 .6 0 1.1-.1 1.7 0 .8 0 1.5-.1 2.3-.1.6-.4 1.2-.8 1.6-.9.6-2.3.5-3-.1-.7-.7-.8-1.7-.8-3v-8h-3v9c0 1.5.6 3 1.7 4 .9.9 2.2 1.3 3.6 1.3h.6c1.6-.2 2.9-.9 3.7-2.1 1-1.4 1-3.1 1-4.6V1.6H70v5.6zm3.6-5.6h3v14.1h-3z"/><path class="st0" d="M77.5 4.3h3v11.2h2.8V4.3h4.9v11.3h2.9V4.3h3V1.6H77.5"/></svg>