<svg version="1.1" id="Слой_1" xmlns="http://www.w3.org/2000/svg" x="0" y="0" viewBox="0 0 120 18.4" xml:space="preserve"><style>.st0{fill:#252525}</style><g transform="translate(-2.01 -1.85) scale(2.0134)"><path id="S" class="st0" d="M5 7.3V8c-.1.2-.3.5-.9.5-.5 0-.9-.3-.9-.8v-.8H1v.7c0 1.9 1.5 2.5 3.1 2.5 1.5 0 2.8-.5 3-1.9.1-.7 0-1.2 0-1.4-.4-1.9-3.6-2.4-3.8-3.4V3c0-.3.2-.6.7-.6s.8.3.8.8v.5h2.1v-.6C6.9 1.2 5.2 1 4 1c-1.5 0-2.8.5-3 1.9 0 .3 0 .6.1 1.1.4 1.7 3.4 2.2 3.9 3.3"/><path class="st0" d="M10.1 1.2L8.5 9.7h2.3L12 2l1.1 7.7h2.3l-1.6-8.5h-3.7zm12.9 0l-1.1 6.5-1-6.5h-3.5l-.2 8.5h2.1l.1-7.7 1.4 7.7H23L24.4 2l.1 7.7h2.1l-.2-8.5H23z"/><path class="st0" d="M-106 7.3c.1.2.1.5 0 .6-.1.3-.3.6-.8.6s-.9-.3-.9-.8v-.8h-2.3v.7c0 1.9 1.5 2.5 3.1 2.5 1.5 0 2.8-.5 3-1.9.1-.7 0-1.2 0-1.4-.4-1.8-3.6-2.3-3.8-3.3v-.4c.1-.3.2-.6.8-.6.5 0 .8.3.8.8v.5h2.1v-.7c0-1.9-1.7-2.1-2.9-2.1-1.5 0-2.8.5-3 1.9-.1.4-.1.7 0 1.1.5 1.7 3.5 2.2 3.9 3.3" transform="translate(138.47 -.08)"/><path class="st0" d="M39.8 8.4c.6 0 .8-.4.8-.6V1.2h2.2v6.7c-.2 1.6-1.4 2.1-3 2.1s-2.8-.5-3-2.1V1.2H39v6.6c0 .2.2.6.8.6m10.4-7.2l.1 6.7-2-6.7h-3.2v8.4h2.1l-.1-6.9 2.1 6.9h3V1.2h-2zm7.4 7.2c.6 0 .8-.4.9-.6V6.2h-.9V4.9h3v2.9c-.1 1.6-1.5 2.1-3 2.1s-2.9-.6-3-2.1V3c.2-1.6 1.5-2.1 3-2.1s2.8.5 3 2.1v.9h-2.1v-.8c0-.2-.2-.6-.9-.6-.6 0-.8.4-.8.6v4.6c-.1.3.1.7.8.7"/></g></svg>