<svg version="1.1" id="svg2" xmlns="http://www.w3.org/2000/svg" x="0" y="0" viewBox="0 0 120 25.9" xml:space="preserve"><style>.st0{fill-rule:evenodd;clip-rule:evenodd;fill:#252525}</style><g id="layer1" transform="translate(934.331 72.52)"><g id="g2688" transform="translate(35.448 35.437)"><path id="path2416" class="st0" d="M-853.5-108c-2.1 0-3.7 1.6-3.7 3.7s1.6 3.7 3.7 3.7 3.7-1.6 3.7-3.7c0-2-1.6-3.7-3.7-3.7zm0 .6c1.8 0 3.1 1.4 3.1 3.2s-1.3 3.2-3.1 3.2-3.1-1.4-3.1-3.2 1.3-3.2 3.1-3.2zm-.8 3.4h.9l1.2 1.9h.6l-1.3-1.9c.6-.1 1.1-.4 1.1-1.2 0-.8-.4-1.2-1.4-1.2h-1.6v4.3h.5v-1.9zm0-.5v-1.5h1c.5 0 1 .1 1 .7 0 .7-.6.7-1.3.7h-.7"/><path id="path2424" class="st0" d="M-871.3-106.4h7.4l-6.7 18.4h15.8l-2.2 5.9h-23.2l8.9-24.3zm-28.4 0h7.1l-3.1 8.6h8.9l3.1-8.6h7.3l-8.9 24.4h-7.3l3.6-10h-8.9l-3.6 10h-7.1l8.9-24.4zm-21.5 24.3h7.4l8.9-24.4h-7.4l-8.9 24.4zm-17.4 0h7.4l6.7-18.4h7.7l2.2-5.9h-22.7l-2.2 5.9h7.6l-6.7 18.4zm-.8-24.3h-17.7c-2.5 0-4.2 1.6-5 3.8l-2.3 6.4c-1 2.9.4 5 3.3 5h9.2c.4 0 .7.4.5.8l-.6 1.6c-.2.4-.7.8-1.1.8h-14.5l-2.2 5.9h18.7c2.1 0 3.9-1 5-3.9l2.2-6.1c1.1-2.9-.5-5-3.1-5h-9.3c-.5 0-.7-.4-.5-.8l.6-1.6c.2-.5.6-1 1.3-1h13.3l2.2-5.9"/></g></g></svg>